# Created by Kenney (www.kenney.nl)

mtllib cabinRoofCenter.mtl

g cabinRoofCenter

v 0.602705 0.039808 -0.6351
v 0.587578 0 -0.6351
v 0.602705 0.039808 0.6351
v 0.587578 0 0.6351
v 0.150676 0.7554229 -0.6351
v 0.150676 0.726891 -0.6351
v 0.150676 0.7554229 0.6351
v 0.150676 0.726891 0.6351
v 0.527367 0.182854 -0.6351
v 0.527367 0.154322 -0.6351
v 0.527367 0.182854 0.6351
v 0.527367 0.154322 0.6351
v -0.226014 0.612377 -0.6351
v -0.226014 0.640909 -0.6351
v -0.226014 0.612377 0.6351
v -0.226014 0.640909 0.6351
v -0.075338 0.841405 -0.6351
v -0.075338 0.869937 -0.6351
v -0.075338 0.841405 0.6351
v -0.075338 0.869937 0.6351
v -0.376691 0.38335 -0.6351
v -0.376691 0.411882 -0.6351
v -0.376691 0.38335 0.6351
v -0.376691 0.411882 0.6351
v -0.150676 0.726891 -0.6351
v -0.150676 0.7554229 -0.6351
v -0.150676 0.726891 0.6351
v -0.150676 0.7554229 0.6351
v 0.376691 0.411882 -0.6351
v 0.376691 0.38335 -0.6351
v 0.376691 0.411882 0.6351
v 0.376691 0.38335 0.6351
v -0.527367 0.154322 -0.6351
v -0.527367 0.182854 -0.6351
v -0.527367 0.154322 0.6351
v -0.527367 0.182854 0.6351
v 0 0.893118 0.6351
v 0.602705 0.06834 0.6351
v 0.452029 0.268836 0.6351
v 0.452029 0.297368 0.6351
v 0.301352 0.497864 0.6351
v 0.226014 0.612377 0.6351
v 0.301352 0.526396 0.6351
v 0.226014 0.640909 0.6351
v 0.075338 0.841405 0.6351
v 0.075338 0.869937 0.6351
v 0 0.955919 0.6351
v -0.301352 0.497864 0.6351
v -0.452029 0.268836 0.6351
v -0.602705 0.039808 0.6351
v -0.587578 0 0.6351
v -0.602705 0.06834 0.6351
v -0.452029 0.297368 0.6351
v -0.301352 0.526396 0.6351
v 0.452029 0.297368 -0.6351
v 0.452029 0.268836 -0.6351
v 0.301352 0.526396 -0.6351
v 0.301352 0.497864 -0.6351
v -0.602705 0.039808 -0.6351
v -0.602705 0.06834 -0.6351
v 0.075338 0.869937 -0.6351
v 0.075338 0.841405 -0.6351
v 0 0.893118 -0.6351
v -0.587578 0 -0.6351
v -0.452029 0.268836 -0.6351
v -0.452029 0.297368 -0.6351
v 0.226014 0.640909 -0.6351
v 0.226014 0.612377 -0.6351
v -0.301352 0.497864 -0.6351
v -0.301352 0.526396 -0.6351
v 0 0.955919 -0.6351
v 0.602705 0.06834 -0.6351

vn 0.9347838 -0.3552169 0
vn 1 0 0
vn -1 0 0
vn 0 0 1
vn 0.835417 -0.5496168 0
vn -0.835417 -0.5496168 0
vn 0 0 -1
vn -0.9347838 -0.3552169 0
vn -0.7521268 0.6590185 0
vn 0.7521268 0.6590185 0
vn -0.752123 0.6590229 0
vn 0.752123 0.6590229 0
vn 0.7521224 0.6590234 0
vn -0.7521224 0.6590234 0

vt 25.00394 9.893815
vt 25.00394 8.217231
vt -25.00394 9.893815
vt -25.00394 8.217231
vt 25.00394 29.74106
vt 25.00394 28.61776
vt -25.00394 29.74106
vt -25.00394 28.61776
vt 25.00394 7.198977
vt 25.00394 6.075669
vt -25.00394 7.198977
vt -25.00394 6.075669
vt -25.00394 24.10933
vt -25.00394 25.23264
vt 25.00394 24.10933
vt 25.00394 25.23264
vt -25.00394 33.12618
vt -25.00394 34.24949
vt 25.00394 33.12618
vt 25.00394 34.24949
vt -25.00394 15.09252
vt -25.00394 16.21583
vt 25.00394 15.09252
vt 25.00394 16.21583
vt 23.13299 -2.182976E-31
vt -1.995144E-31 35.16212
vt 23.72854 1.567244
vt 20.76248 6.075669
vt 23.72854 2.690551
vt 17.79642 10.58409
vt 20.76248 7.198977
vt 14.83035 15.09252
vt 17.79642 11.7074
vt 11.86425 19.60094
vt 14.83035 16.21583
vt 8.898189 24.10933
vt 11.86425 20.72425
vt 8.898189 25.23264
vt 5.932126 28.61776
vt 5.932126 29.74106
vt 2.966063 33.12618
vt 2.966063 34.24949
vt -1.995144E-31 37.63461
vt -2.966063 34.24949
vt -2.966063 33.12618
vt -5.932126 29.74106
vt -5.932126 28.61776
vt -8.898189 25.23264
vt -8.898189 24.10933
vt -11.86425 19.60094
vt -14.83035 15.09252
vt -17.79642 10.58409
vt -20.76248 6.075669
vt -23.72854 1.567244
vt -23.13299 -2.182976E-31
vt -23.72854 2.690551
vt -20.76248 7.198977
vt -17.79642 11.7074
vt -14.83035 16.21583
vt -11.86425 20.72425
vt 25.00394 11.7074
vt 25.00394 10.58409
vt -25.00394 11.7074
vt -25.00394 10.58409
vt 25.00394 20.72425
vt 25.00394 19.60094
vt -25.00394 20.72425
vt -25.00394 19.60094
vt -25.00394 1.567244
vt -25.00394 2.690551
vt 25.00394 1.567244
vt 25.00394 2.690551
vt 25.00394 29.37503
vt 25.00394 -12.71428
vt -25.00394 29.37503
vt -25.00394 -12.71428
vt 23.13299 0
vt 0 35.16212
vt 0 37.63461
vt -23.13299 0
vt -25.00394 23.80527
vt -25.00394 28.30599
vt 25.00394 23.80527
vt 25.00394 28.30599
vt -25.00394 18.45967
vt -25.00394 22.9604
vt 25.00394 18.45967
vt 25.00394 22.9604
vt 25.00394 -9.113185
vt 25.00394 -13.61391
vt -25.00394 -9.113185
vt -25.00394 -13.61391
vt -25.00394 13.11407
vt -25.00394 17.6148
vt 25.00394 13.11407
vt 25.00394 17.6148
vt -25.00394 7.768373
vt -25.00394 12.26907
vt 25.00394 7.768373
vt 25.00394 12.26907
vt 25.00394 1.578011
vt 25.00394 -2.922718
vt -25.00394 1.578011
vt -25.00394 -2.922718
vt 25.00394 6.923491
vt 25.00394 2.422736
vt -25.00394 6.923491
vt -25.00394 2.422736
vt -25.00394 -8.268315
vt -25.00394 -3.767587
vt 25.00394 -8.268315
vt 25.00394 -3.767587

usemtl wood

f 3/3/1 2/2/1 1/1/1
f 2/2/1 3/3/1 4/4/1
f 7/7/2 6/6/2 5/5/2
f 6/6/2 7/7/2 8/8/2
f 11/11/2 10/10/2 9/9/2
f 10/10/2 11/11/2 12/12/2
f 15/15/3 14/14/3 13/13/3
f 14/14/3 15/15/3 16/16/3
f 19/19/3 18/18/3 17/17/3
f 18/18/3 19/19/3 20/20/3
f 23/23/3 22/22/3 21/21/3
f 22/22/3 23/23/3 24/24/3
f 27/6/3 26/7/3 25/8/3
f 26/7/3 27/6/3 28/5/3
f 31/22/2 30/23/2 29/24/2
f 30/23/2 31/22/2 32/21/2
f 35/10/3 34/11/3 33/12/3
f 34/11/3 35/10/3 36/9/3
f 3/27/4 37/26/4 4/25/4
f 37/26/4 3/27/4 12/28/4
f 12/28/4 3/27/4 38/29/4
f 37/26/4 12/28/4 39/30/4
f 39/30/4 12/28/4 11/31/4
f 37/26/4 39/30/4 32/32/4
f 32/32/4 39/30/4 40/33/4
f 37/26/4 32/32/4 41/34/4
f 41/34/4 32/32/4 31/35/4
f 37/26/4 41/34/4 42/36/4
f 42/36/4 41/34/4 43/37/4
f 37/26/4 42/36/4 44/38/4
f 37/26/4 44/38/4 8/39/4
f 37/26/4 8/39/4 7/40/4
f 37/26/4 7/40/4 45/41/4
f 37/26/4 45/41/4 46/42/4
f 37/26/4 46/42/4 47/43/4
f 20/44/4 37/26/4 47/43/4
f 19/45/4 37/26/4 20/44/4
f 28/46/4 37/26/4 19/45/4
f 27/47/4 37/26/4 28/46/4
f 16/48/4 37/26/4 27/47/4
f 15/49/4 37/26/4 16/48/4
f 48/50/4 37/26/4 15/49/4
f 23/51/4 37/26/4 48/50/4
f 49/52/4 37/26/4 23/51/4
f 35/53/4 37/26/4 49/52/4
f 50/54/4 37/26/4 35/53/4
f 37/26/4 50/54/4 51/55/4
f 50/54/4 35/53/4 52/56/4
f 35/53/4 49/52/4 36/57/4
f 49/52/4 23/51/4 53/58/4
f 23/51/4 48/50/4 24/59/4
f 48/50/4 15/49/4 54/60/4
f 40/63/2 56/62/2 55/61/2
f 56/62/2 40/63/2 39/64/2
f 43/67/2 58/66/2 57/65/2
f 58/66/2 43/67/2 41/68/2
f 50/71/3 60/70/3 59/69/3
f 60/70/3 50/71/3 52/72/3
f 46/18/2 62/19/2 61/20/2
f 62/19/2 46/18/2 45/17/2
f 37/75/5 64/74/5 63/73/5
f 64/74/5 37/75/5 51/76/5
f 49/62/3 66/63/3 65/64/3
f 66/63/3 49/62/3 53/61/3
f 44/14/2 68/15/2 67/16/2
f 68/15/2 44/14/2 42/13/2
f 4/74/6 63/75/6 2/76/6
f 63/75/6 4/74/6 37/73/6
f 59/27/7 63/78/7 64/77/7
f 63/78/7 59/27/7 33/28/7
f 33/28/7 59/27/7 60/29/7
f 63/78/7 33/28/7 65/30/7
f 65/30/7 33/28/7 34/31/7
f 63/78/7 65/30/7 21/32/7
f 21/32/7 65/30/7 66/33/7
f 63/78/7 21/32/7 69/34/7
f 69/34/7 21/32/7 22/35/7
f 63/78/7 69/34/7 13/36/7
f 13/36/7 69/34/7 70/37/7
f 63/78/7 13/36/7 14/38/7
f 63/78/7 14/38/7 25/39/7
f 63/78/7 25/39/7 26/40/7
f 63/78/7 26/40/7 17/41/7
f 63/78/7 17/41/7 18/42/7
f 63/78/7 18/42/7 71/79/7
f 61/44/7 63/78/7 71/79/7
f 62/45/7 63/78/7 61/44/7
f 5/46/7 63/78/7 62/45/7
f 6/47/7 63/78/7 5/46/7
f 67/48/7 63/78/7 6/47/7
f 68/49/7 63/78/7 67/48/7
f 58/50/7 63/78/7 68/49/7
f 30/51/7 63/78/7 58/50/7
f 56/52/7 63/78/7 30/51/7
f 10/53/7 63/78/7 56/52/7
f 1/54/7 63/78/7 10/53/7
f 63/78/7 1/54/7 2/80/7
f 1/54/7 10/53/7 72/56/7
f 10/53/7 56/52/7 9/57/7
f 56/52/7 30/51/7 55/58/7
f 30/51/7 58/50/7 29/59/7
f 58/50/7 68/49/7 57/60/7
f 38/70/2 1/71/2 72/72/2
f 1/71/2 38/70/2 3/69/2
f 48/66/3 70/67/3 69/68/3
f 70/67/3 48/66/3 54/65/3
f 51/2/8 59/3/8 64/4/8
f 59/3/8 51/2/8 50/1/8

usemtl snow

f 20/83/9 71/82/9 18/81/9
f 71/82/9 20/83/9 47/84/9
f 28/87/9 17/86/9 26/85/9
f 17/86/9 28/87/9 19/88/9
f 45/86/10 5/87/10 62/88/10
f 5/87/10 45/86/10 7/85/10
f 12/91/10 72/90/10 10/89/10
f 72/90/10 12/91/10 38/92/10
f 16/95/9 25/94/9 14/93/9
f 25/94/9 16/95/9 27/96/9
f 54/99/11 13/98/11 70/97/11
f 13/98/11 54/99/11 15/100/11
f 8/94/10 67/95/10 6/96/10
f 67/95/10 8/94/10 44/93/10
f 32/103/10 55/102/10 30/101/10
f 55/102/10 32/103/10 40/104/10
f 53/102/9 21/103/9 66/104/9
f 21/103/9 53/102/9 23/101/9
f 42/98/12 57/99/12 68/100/12
f 57/99/12 42/98/12 43/97/12
f 41/107/13 29/106/13 58/105/13
f 29/106/13 41/107/13 31/108/13
f 36/111/9 65/110/9 34/109/9
f 65/110/9 36/111/9 49/112/9
f 52/90/9 33/91/9 60/92/9
f 33/91/9 52/90/9 35/89/9
f 24/106/14 69/107/14 22/108/14
f 69/107/14 24/106/14 48/105/14
f 47/82/10 61/83/10 71/84/10
f 61/83/10 47/82/10 46/81/10
f 39/110/10 9/111/10 56/112/10
f 9/111/10 39/110/10 11/109/10

