# Created by Kenney (www.kenney.nl)

mtllib cabinWindow.mtl

g cabinWindow

v 0.23 0.547155 -0.0702
v 0.5 0.547155 -0.0702
v 0.23 0.60795 -0.0351
v 0.5 0.60795 -0.0351
v 0.5 0.182385 0.0702
v -0.5 0.182385 0.0702
v 0.5 0.24318 0.0351
v -0.5 0.24318 0.0351
v 0.23 0.24318 0.0351
v -0.23 0.24318 0.0351
v 0.23 0.48636 -0.0351
v 0.5 0.48636 -0.0351
v 0.5 0.97272 0.0351
v 0.5 0.85113 0.0351
v 0.5 0.911925 0.0702
v 0.5 0 0.0351
v 0.5 0 -0.0351
v 0.5 0.12159 -0.0351
v 0.5 0.24318 -0.0351
v 0.5 0.36477 -0.0351
v 0.5 0.72954 -0.0351
v 0.5 0.85113 -0.0351
v 0.5 0.97272 -0.0351
v 0.5 0.911925 -0.0702
v 0.5 0.72954 0.0351
v 0.5 0.790335 0.0702
v 0.5 0.60795 0.0351
v 0.5 0.668745 0.0702
v 0.5 0.48636 0.0351
v 0.5 0.547155 0.0702
v 0.5 0.060795 -0.0702
v 0.5 0.303975 -0.0702
v 0.5 0.790335 -0.0702
v 0.5 0.36477 0.0351
v 0.5 0.425565 0.0702
v 0.5 0.303975 0.0702
v 0.5 0.12159 0.0351
v 0.5 0.060795 0.0702
v 0.5 0.182385 -0.0702
v 0.5 0.425565 -0.0702
v 0.5 0.668745 -0.0702
v -0.23 0.48636 0.0351
v -0.5 0.48636 0.0351
v -0.23 0.547155 0.0702
v -0.5 0.547155 0.0702
v -0.5 0.48636 -0.0351
v -0.23 0.48636 -0.0351
v -0.5 0.547155 -0.0702
v -0.23 0.547155 -0.0702
v 0.23 0.547155 0.0702
v 0.23 0.60795 0.0351
v 0.23 0.36477 0.0351
v 0.23 0.425565 0.0702
v -0.5 0.12159 -0.0351
v -0.5 0.182385 -0.0702
v -0.23 0.72954 0.0351
v -0.23 0.60795 0.0351
v -0.23 0.668745 0.0702
v -0.23 0.24318 -0.0351
v -0.23 0.36477 -0.0351
v -0.23 0.60795 -0.0351
v -0.23 0.72954 -0.0351
v -0.23 0.668745 -0.0702
v -0.23 0.36477 0.0351
v -0.23 0.425565 0.0702
v -0.23 0.303975 0.0702
v -0.23 0.303975 -0.0702
v -0.23 0.425565 -0.0702
v -0.5 0.60795 -0.0351
v 0.23 0.303975 0.0702
v 0.23 0.72954 0.0351
v 0.23 0.72954 -0.0351
v 0.23 0.36477 -0.0351
v 0.23 0.24318 -0.0351
v 0.23 0.303975 -0.0702
v 0.23 0.48636 0.0351
v 0.23 0.668745 0.0702
v 0.23 0.425565 -0.0702
v 0.23 0.668745 -0.0702
v -0.5 0.060795 -0.0702
v -0.5 0 -0.0351
v -0.5 0 0.0351
v -0.5 0.060795 0.0702
v -0.5 0.12159 0.0351
v -0.5 0.97272 0.0351
v -0.5 0.97272 -0.0351
v -0.5 0.85113 -0.0351
v -0.5 0.72954 -0.0351
v -0.5 0.36477 -0.0351
v -0.5 0.24318 -0.0351
v -0.5 0.36477 0.0351
v -0.5 0.303975 0.0702
v -0.5 0.425565 0.0702
v -0.5 0.425565 -0.0702
v -0.5 0.303975 -0.0702
v -0.5 0.60795 0.0351
v -0.5 0.72954 0.0351
v -0.5 0.668745 0.0702
v -0.5 0.85113 0.0351
v -0.5 0.790335 0.0702
v -0.5 0.911925 0.0702
v -0.5 0.668745 -0.0702
v -0.5 0.790335 -0.0702
v -0.5 0.911925 -0.0702

vn 0 0.4999999 -0.8660254
vn 0 0.4999999 0.8660254
vn 0 -0.4999999 -0.8660254
vn 1 0 0
vn 0 -0.4999999 0.8660254
vn -1 0 0
vn 0 -1 0
vn 0 1 0

vt -9.055119 17.27363
vt -19.68504 17.27363
vt -9.055119 20.03741
vt -19.68504 20.03741
vt 19.68504 4.836617
vt -19.68504 4.836617
vt 19.68504 7.600397
vt -19.68504 7.600397
vt 9.055119 7.600397
vt -9.055119 7.600397
vt -9.055119 20.03741
vt -19.68504 20.03741
vt -1.38189 38.29606
vt -1.38189 33.50906
vt -2.76378 35.90256
vt -1.38189 -2.253534E-29
vt 1.38189 -2.253534E-29
vt 1.38189 4.787008
vt 1.38189 9.574016
vt 1.38189 14.36102
vt 1.38189 19.14803
vt 1.38189 23.93504
vt 1.38189 28.72205
vt 1.38189 33.50906
vt 1.38189 38.29606
vt 2.76378 35.90256
vt -1.38189 28.72205
vt -2.76378 31.11555
vt -1.38189 23.93504
vt -2.76378 26.32854
vt -1.38189 19.14803
vt -2.76378 21.54154
vt 2.76378 2.393504
vt 2.76378 11.96752
vt 2.76378 21.54154
vt 2.76378 31.11555
vt -1.38189 14.36102
vt -2.76378 16.75453
vt -1.38189 9.574016
vt -2.76378 11.96752
vt -1.38189 4.787008
vt -2.76378 7.180512
vt -2.76378 2.393504
vt 2.76378 7.180512
vt 2.76378 16.75453
vt 2.76378 26.32854
vt 19.68504 17.27363
vt 9.055119 17.27363
vt 19.68504 20.03741
vt 9.055119 20.03741
vt 19.68504 20.03741
vt 9.055119 20.03741
vt 19.68504 13.12796
vt 9.055119 13.12796
vt 19.68504 15.89174
vt 9.055119 15.89174
vt 19.68504 4.836616
vt -19.68504 4.836616
vt 19.68504 7.600396
vt -19.68504 7.600396
vt 19.68504 0.6909459
vt -19.68504 0.6909459
vt 19.68504 3.454726
vt -19.68504 3.454726
vt 19.68504 0.6909447
vt -19.68504 0.6909447
vt 19.68504 3.454725
vt -19.68504 3.454725
vt 19.68504 1.38189
vt 19.68504 -1.38189
vt -19.68504 1.38189
vt -19.68504 -1.38189
vt 19.68504 21.4193
vt 9.055119 21.4193
vt 19.68504 24.18308
vt 9.055119 24.18308
vt -9.055119 21.4193
vt -19.68504 21.4193
vt -9.055119 24.18308
vt -19.68504 24.18308
vt 19.68504 21.4193
vt 9.055119 21.4193
vt 1.38189 0
vt -1.38189 0
vt -9.055119 21.4193
vt -19.68504 21.4193
vt -9.055119 -1.38189
vt -9.055119 1.38189
vt 9.055119 -1.38189
vt 9.055119 1.38189
vt -9.055119 13.12796
vt -19.68504 13.12796
vt -9.055119 15.89174
vt -19.68504 15.89174
vt -9.055119 13.12796
vt -19.68504 13.12796
vt -9.055119 15.89174
vt -19.68504 15.89174
vt 19.68504 29.71064
vt -19.68504 29.71064
vt 19.68504 32.47442
vt -19.68504 32.47442
vt 19.68504 13.12796
vt 9.055119 13.12796
vt 19.68504 15.89174
vt 9.055119 15.89174
vt 19.68504 8.982287
vt 9.055119 8.982287
vt 19.68504 11.74607
vt 9.055119 11.74607
vt 19.68504 25.56497
vt 9.055119 25.56497
vt 19.68504 28.32875
vt -9.055119 25.56497
vt -19.68504 25.56497
vt -19.68504 28.32875
vt 19.68504 25.56497
vt -19.68504 25.56497
vt 19.68504 28.32875
vt -19.68504 28.32875
vt -9.055119 8.982287
vt -19.68504 8.982287
vt -9.055119 11.74607
vt -19.68504 11.74607
vt 19.68504 8.982286
vt 9.055119 8.982286
vt 19.68504 11.74607
vt 9.055119 11.74607
vt 19.68504 32.47442
vt -19.68504 32.47442
vt -9.055119 8.982286
vt -19.68504 8.982286
vt -9.055119 11.74607
vt -19.68504 11.74607

usemtl wood

f 3/3/1 2/2/1 1/1/1
f 2/2/1 3/3/1 4/4/1
f 7/7/2 6/6/2 5/5/2
f 6/6/2 7/7/2 8/8/2
f 8/8/2 7/7/2 9/9/2
f 8/8/2 9/9/2 10/10/2
f 1/11/3 12/2/3 11/1/3
f 12/2/3 1/11/3 2/12/3
f 15/15/4 14/14/4 13/13/4
f 16/16/4 13/13/4 14/14/4
f 17/17/4 13/13/4 16/16/4
f 18/18/4 13/13/4 17/17/4
f 19/19/4 13/13/4 18/18/4
f 20/20/4 13/13/4 19/19/4
f 12/21/4 13/13/4 20/20/4
f 4/22/4 13/13/4 12/21/4
f 21/23/4 13/13/4 4/22/4
f 22/24/4 13/13/4 21/23/4
f 22/24/4 23/25/4 13/13/4
f 23/25/4 22/24/4 24/26/4
f 16/16/4 14/14/4 25/27/4
f 26/28/4 25/27/4 14/14/4
f 16/16/4 25/27/4 27/29/4
f 28/30/4 27/29/4 25/27/4
f 16/16/4 27/29/4 29/31/4
f 30/32/4 29/31/4 27/29/4
f 17/17/4 31/33/4 18/18/4
f 19/19/4 32/34/4 20/20/4
f 12/21/4 2/35/4 4/22/4
f 21/23/4 33/36/4 22/24/4
f 35/38/4 34/37/4 29/31/4
f 16/16/4 29/31/4 34/37/4
f 16/16/4 34/37/4 7/39/4
f 36/40/4 7/39/4 34/37/4
f 16/16/4 7/39/4 37/41/4
f 5/42/4 37/41/4 7/39/4
f 16/16/4 37/41/4 38/43/4
f 18/18/4 39/44/4 19/19/4
f 20/20/4 40/45/4 12/21/4
f 4/22/4 41/46/4 21/23/4
f 44/11/5 43/2/5 42/1/5
f 43/2/5 44/11/5 45/12/5
f 48/49/3 47/48/3 46/47/3
f 47/48/3 48/49/3 49/50/3
f 27/51/2 50/48/2 30/47/2
f 50/48/2 27/51/2 51/52/2
f 35/55/5 52/54/5 34/53/5
f 52/54/5 35/55/5 53/56/5
f 55/59/3 18/58/3 54/57/3
f 18/58/3 55/59/3 39/60/3
f 58/30/4 57/29/4 56/27/4
f 10/39/4 56/27/4 57/29/4
f 59/19/4 56/27/4 10/39/4
f 60/20/4 56/27/4 59/19/4
f 47/21/4 56/27/4 60/20/4
f 61/22/4 56/27/4 47/21/4
f 61/22/4 62/23/4 56/27/4
f 62/23/4 61/22/4 63/46/4
f 10/39/4 57/29/4 42/31/4
f 44/32/4 42/31/4 57/29/4
f 10/39/4 42/31/4 64/37/4
f 65/38/4 64/37/4 42/31/4
f 10/39/4 64/37/4 66/40/4
f 59/19/4 67/34/4 60/20/4
f 47/21/4 49/35/4 61/22/4
f 60/20/4 68/45/4 47/21/4
f 69/51/1 49/48/1 48/47/1
f 49/48/1 69/51/1 61/52/1
f 70/34/6 52/20/6 9/19/6
f 71/23/6 9/19/6 52/20/6
f 72/27/6 9/19/6 71/23/6
f 3/29/6 9/19/6 72/27/6
f 11/31/6 9/19/6 3/29/6
f 73/37/6 9/19/6 11/31/6
f 73/37/6 74/39/6 9/19/6
f 74/39/6 73/37/6 75/40/6
f 71/23/6 52/20/6 76/21/6
f 53/45/6 76/21/6 52/20/6
f 71/23/6 76/21/6 51/22/6
f 50/35/6 51/22/6 76/21/6
f 71/23/6 51/22/6 77/46/6
f 11/31/6 78/38/6 73/37/6
f 3/29/6 1/32/6 11/31/6
f 72/27/6 79/30/6 3/29/6
f 54/63/1 31/62/1 80/61/1
f 31/62/1 54/63/1 18/64/1
f 80/67/3 17/66/3 81/65/3
f 17/66/3 80/67/3 31/68/3
f 82/71/7 17/70/7 16/69/7
f 17/70/7 82/71/7 81/72/7
f 37/63/2 83/62/2 38/61/2
f 83/62/2 37/63/2 84/64/2
f 38/67/5 82/66/5 16/65/5
f 82/66/5 38/67/5 83/68/5
f 25/75/2 77/74/2 28/73/2
f 77/74/2 25/75/2 71/76/2
f 72/79/1 41/78/1 79/77/1
f 41/78/1 72/79/1 21/80/1
f 28/75/5 51/82/5 27/81/5
f 51/82/5 28/75/5 77/76/5
f 83/33/6 84/18/6 82/83/6
f 85/25/6 82/83/6 84/18/6
f 86/13/6 82/83/6 85/25/6
f 87/14/6 82/83/6 86/13/6
f 88/27/6 82/83/6 87/14/6
f 69/29/6 82/83/6 88/27/6
f 46/31/6 82/83/6 69/29/6
f 89/37/6 82/83/6 46/31/6
f 90/39/6 82/83/6 89/37/6
f 54/41/6 82/83/6 90/39/6
f 54/41/6 81/84/6 82/83/6
f 81/84/6 54/41/6 80/43/6
f 85/25/6 84/18/6 8/19/6
f 6/44/6 8/19/6 84/18/6
f 85/25/6 8/19/6 91/20/6
f 92/34/6 91/20/6 8/19/6
f 85/25/6 91/20/6 43/21/6
f 93/45/6 43/21/6 91/20/6
f 46/31/6 94/38/6 89/37/6
f 89/37/6 95/40/6 90/39/6
f 90/39/6 55/42/6 54/41/6
f 69/29/6 48/32/6 46/31/6
f 45/35/6 96/22/6 43/21/6
f 85/25/6 43/21/6 96/22/6
f 85/25/6 96/22/6 97/23/6
f 98/46/6 97/23/6 96/22/6
f 85/25/6 97/23/6 99/24/6
f 100/36/6 99/24/6 97/23/6
f 85/25/6 99/24/6 101/26/6
f 88/27/6 102/30/6 69/29/6
f 87/14/6 103/28/6 88/27/6
f 86/13/6 104/15/6 87/14/6
f 79/79/3 4/86/3 3/85/3
f 4/86/3 79/79/3 41/80/3
f 90/7/1 39/6/1 55/5/1
f 39/6/1 90/7/1 19/8/1
f 19/8/1 90/7/1 59/9/1
f 19/8/1 59/9/1 74/10/1
f 59/89/8 9/88/8 74/87/8
f 9/88/8 59/89/8 10/90/8
f 5/59/5 84/58/5 37/57/5
f 84/58/5 5/59/5 6/60/5
f 57/3/2 45/2/2 44/1/2
f 45/2/2 57/3/2 96/4/2
f 30/49/5 76/48/5 29/47/5
f 76/48/5 30/49/5 50/50/5
f 78/93/3 20/92/3 73/91/3
f 20/92/3 78/93/3 40/94/3
f 11/97/1 40/96/1 78/95/1
f 40/96/1 11/97/1 12/98/1
f 13/101/2 101/100/2 15/99/2
f 101/100/2 13/101/2 85/102/2
f 86/70/8 13/71/8 23/72/8
f 13/71/8 86/70/8 85/69/8
f 58/79/5 96/86/5 57/85/5
f 96/86/5 58/79/5 98/80/5
f 29/105/2 53/104/2 35/103/2
f 53/104/2 29/105/2 76/106/2
f 86/101/1 24/100/1 104/99/1
f 24/100/1 86/101/1 23/102/1
f 34/109/2 70/108/2 36/107/2
f 70/108/2 34/109/2 52/110/2
f 103/113/3 62/112/3 88/111/3
f 62/112/3 103/113/3 72/114/3
f 72/114/3 103/113/3 21/115/3
f 21/115/3 103/113/3 33/116/3
f 87/119/1 33/118/1 103/117/1
f 33/118/1 87/119/1 22/120/1
f 89/109/1 67/108/1 95/107/1
f 67/108/1 89/109/1 60/110/1
f 64/123/2 92/122/2 66/121/2
f 92/122/2 64/123/2 91/124/2
f 94/55/3 60/54/3 89/53/3
f 60/54/3 94/55/3 68/56/3
f 65/93/5 91/92/5 64/91/5
f 91/92/5 65/93/5 93/94/5
f 36/127/5 9/126/5 7/125/5
f 9/126/5 36/127/5 70/128/5
f 56/88/7 72/89/7 71/90/7
f 72/89/7 56/88/7 62/87/7
f 104/129/3 22/100/3 87/99/3
f 22/100/3 104/129/3 24/130/3
f 14/119/2 100/118/2 26/117/2
f 100/118/2 14/119/2 99/120/2
f 95/127/3 59/126/3 90/125/3
f 59/126/3 95/127/3 67/128/3
f 26/113/5 71/112/5 25/111/5
f 71/112/5 26/113/5 56/114/5
f 56/114/5 26/113/5 97/115/5
f 97/115/5 26/113/5 100/116/5
f 42/97/2 93/96/2 65/95/2
f 93/96/2 42/97/2 43/98/2
f 102/75/3 61/82/3 69/81/3
f 61/82/3 102/75/3 63/76/3
f 88/75/1 63/74/1 102/73/1
f 63/74/1 88/75/1 62/76/1
f 56/79/2 98/78/2 58/77/2
f 98/78/2 56/79/2 97/80/2
f 15/129/5 99/100/5 14/99/5
f 99/100/5 15/129/5 101/130/5
f 73/123/1 32/122/1 75/121/1
f 32/122/1 73/123/1 20/124/1
f 66/133/5 8/132/5 10/131/5
f 8/132/5 66/133/5 92/134/5
f 75/133/3 19/132/3 74/131/3
f 19/132/3 75/133/3 32/134/3
f 46/105/1 68/104/1 94/103/1
f 68/104/1 46/105/1 47/106/1

g frame

v 0.168719 0.304461 0.0351
v 0.168719 0.668259 0.0351
v -0.168719 0.668259 0.0351
v -0.168719 0.304461 0.0351
v -0.194317 0.278863 -0.0351
v -0.194317 0.693857 -0.0351
v 0.194317 0.693857 -0.0351
v 0.194317 0.278863 -0.0351
v 0.168719 0.304461 0.015
v 0.0201 0.304461 0.00495
v 0.168719 0.304461 -0.0051
v -0.168719 0.304461 -0.0051
v -0.0201 0.304461 0.00495
v -0.0201 0.304461 0.015
v -0.168719 0.304461 0.015
v 0.0201 0.304461 0.015
v -0.0201 0.304461 0.02505
v 0.0201 0.304461 0.02505
v -0.0201 0.668259 0.015
v -0.0201 0.668259 0.00495
v -0.168719 0.668259 0.015
v -0.168719 0.668259 -0.0051
v 0.0201 0.668259 0.00495
v 0.168719 0.668259 -0.0051
v 0.0201 0.668259 0.015
v 0.168719 0.668259 0.015
v -0.0201 0.668259 0.02505
v 0.0201 0.668259 0.02505
v -0.168719 0.46626 0.00495
v -0.168719 0.50646 0.00495
v -0.168719 0.46626 0.015
v -0.168719 0.50646 0.015
v -0.168719 0.50646 0.02505
v -0.168719 0.46626 0.02505
v 0.194317 0.278863 -0.0051
v -0.194317 0.278863 -0.0051
v -0.194317 0.693857 -0.0051
v 0.194317 0.693857 -0.0051
v 0.168719 0.50646 0.00495
v 0.168719 0.46626 0.00495
v 0.168719 0.50646 0.015
v 0.168719 0.46626 0.015
v 0.168719 0.46626 0.02505
v 0.168719 0.50646 0.02505
v 0.0201 0.46626 0.00495
v 0.0201 0.46626 0.015
v 0.0201 0.46626 0.02505
v 0.0201 0.50646 0.02505
v -0.0201 0.50646 0.02505
v -0.0201 0.46626 0.02505
v -0.0201 0.50646 0.00495
v 0.0201 0.50646 0.00495
v -0.0201 0.46626 0.00495
v -0.0201 0.50646 0.015
v 0.0201 0.50646 0.015
v -0.0201 0.46626 0.015

vn 0 0 1
vn 0 0 -1

vt -9.055119 0
vt 6.64248 2.412638
vt 9.055119 0
vt 9.055119 19.14803
vt 6.64248 16.73539
vt -6.64248 16.73539
vt -6.64248 2.412638
vt -9.055119 19.14803
vt 7.650276 1.404842
vt 7.650276 17.74319
vt -7.650276 17.74319
vt -7.650276 1.404842
vt -6.64248 0.5905512
vt -0.7913386 0.1948819
vt -6.64248 -0.2007874
vt 6.64248 -0.2007874
vt 0.7913386 0.1948819
vt 0.7913386 0.5905512
vt 6.64248 0.5905512
vt -0.7913386 0.5905512
vt 0.7913386 0.9862205
vt -6.64248 1.38189
vt -0.7913386 0.9862205
vt 6.64248 1.38189
vt -0.5905512 2.412638
vt -0.1948819 8.782677
vt 0.2007874 2.412638
vt -0.1948819 10.36535
vt -0.5905512 8.782677
vt 0.2007874 16.73539
vt -0.5905512 16.73539
vt -0.5905512 10.36535
vt -1.38189 16.73539
vt -0.9862205 10.36535
vt -0.9862205 8.782677
vt -1.38189 2.412638
vt -7.650276 -1.38189
vt -7.650276 -0.2007874
vt 7.650276 -1.38189
vt 7.650276 -0.2007874
vt -1.38189 1.404842
vt -1.38189 17.74319
vt -0.2007874 1.404842
vt -0.2007874 17.74319
vt 1.38189 17.74319
vt 1.38189 1.404842
vt 0.2007874 17.74319
vt 0.2007874 1.404842
vt 0.5905512 16.73539
vt 0.1948819 10.36535
vt -0.2007874 16.73539
vt 0.1948819 8.782677
vt 0.5905512 10.36535
vt -0.2007874 2.412638
vt 0.5905512 2.412638
vt 0.5905512 8.782677
vt 1.38189 2.412638
vt 0.9862205 8.782677
vt 0.9862205 10.36535
vt 1.38189 16.73539
vt -0.1948819 2.412638
vt -0.9862205 2.412638
vt 6.64248 0.1948819
vt 6.64248 0.9862205
vt 0.7913386 10.36535
vt -0.7913386 10.36535
vt 0.7913386 16.73539
vt -0.7913386 16.73539
vt -6.64248 10.36535
vt 6.64248 10.36535
vt -6.64248 8.782677
vt -0.7913386 8.782677
vt 0.7913386 8.782677
vt 6.64248 8.782677
vt -0.7913386 2.412638
vt 0.7913386 2.412638
vt 0.1948819 16.73539
vt 0.9862205 16.73539
vt -6.64248 0.1948819
vt -6.64248 0.9862205
vt -0.1948819 16.73539
vt -0.9862205 16.73539
vt 0.1948819 2.412638
vt 0.9862205 2.412638

usemtl woodDark

f 10/88/7 74/89/7 9/90/7
f 74/89/7 10/88/7 59/87/7
f 62/89/8 71/88/8 72/87/8
f 71/88/8 62/89/8 56/90/8
f 10/83/6 62/31/6 59/84/6
f 62/31/6 10/83/6 56/21/6
f 9/137/9 105/136/9 10/135/9
f 105/136/9 9/137/9 71/138/9
f 105/136/9 71/138/9 106/139/9
f 106/139/9 71/138/9 107/140/9
f 108/141/9 10/135/9 105/136/9
f 10/135/9 108/141/9 56/142/9
f 56/142/9 108/141/9 107/140/9
f 56/142/9 107/140/9 71/138/9
f 71/31/4 74/83/4 72/21/4
f 74/83/4 71/31/4 9/84/4
f 59/137/10 109/143/10 74/135/10
f 109/143/10 59/137/10 62/138/10
f 109/143/10 62/138/10 110/144/10
f 110/144/10 62/138/10 111/145/10
f 112/146/10 74/135/10 109/143/10
f 74/135/10 112/146/10 72/142/10
f 72/142/10 112/146/10 111/145/10
f 72/142/10 111/145/10 62/138/10
f 115/149/8 114/148/8 113/147/8
f 114/148/8 115/149/8 116/150/8
f 114/148/8 116/150/8 117/151/8
f 117/151/8 116/150/8 118/152/8
f 118/152/8 116/150/8 119/153/8
f 120/154/8 113/147/8 114/148/8
f 119/153/8 121/155/8 118/152/8
f 120/154/8 105/156/8 113/147/8
f 105/156/8 120/154/8 122/157/8
f 105/156/8 122/157/8 108/158/8
f 108/158/8 122/157/8 121/155/8
f 108/158/8 121/155/8 119/153/8
f 125/147/7 124/148/7 123/154/7
f 126/149/7 124/148/7 125/147/7
f 126/149/7 127/151/7 124/148/7
f 128/150/7 127/151/7 126/149/7
f 128/150/7 129/152/7 127/151/7
f 129/152/7 128/150/7 130/153/7
f 123/154/7 107/156/7 125/147/7
f 131/157/7 107/156/7 123/154/7
f 132/155/7 107/156/7 131/157/7
f 129/152/7 130/153/7 132/155/7
f 106/158/7 132/155/7 130/153/7
f 132/155/7 106/158/7 107/156/7
f 116/161/4 133/160/4 119/159/4
f 133/160/4 116/161/4 134/162/4
f 119/159/4 133/160/4 135/163/4
f 126/164/4 134/162/4 116/161/4
f 134/162/4 126/164/4 125/165/4
f 134/162/4 125/165/4 136/166/4
f 107/167/4 136/166/4 125/165/4
f 136/166/4 107/167/4 137/168/4
f 137/168/4 107/167/4 138/169/4
f 138/169/4 119/159/4 135/163/4
f 119/159/4 138/169/4 108/170/4
f 108/170/4 138/169/4 107/167/4
f 140/143/10 116/136/10 139/146/10
f 116/136/10 140/143/10 141/144/10
f 116/136/10 141/144/10 126/139/10
f 126/139/10 141/144/10 128/140/10
f 115/141/10 139/146/10 116/136/10
f 139/146/10 115/141/10 142/145/10
f 142/145/10 115/141/10 128/140/10
f 142/145/10 128/140/10 141/144/10
f 109/173/8 139/172/8 112/171/8
f 139/172/8 109/173/8 140/174/8
f 139/177/6 111/176/6 112/175/6
f 111/176/6 139/177/6 142/178/6
f 141/172/7 111/173/7 142/174/7
f 111/173/7 141/172/7 110/171/7
f 141/181/4 109/180/4 110/179/4
f 109/180/4 141/181/4 140/182/4
f 128/185/6 143/184/6 130/183/6
f 143/184/6 128/185/6 144/186/6
f 130/183/6 143/184/6 145/187/6
f 115/188/6 144/186/6 128/185/6
f 144/186/6 115/188/6 113/189/6
f 144/186/6 113/189/6 146/190/6
f 105/191/6 146/190/6 113/189/6
f 146/190/6 105/191/6 147/192/6
f 147/192/6 105/191/6 148/193/6
f 148/193/6 130/183/6 145/187/6
f 130/183/6 148/193/6 106/194/6
f 106/194/6 148/193/6 105/191/6
f 150/163/4 114/195/4 149/160/4
f 114/195/4 150/163/4 120/159/4
f 151/169/4 120/159/4 150/163/4
f 120/159/4 151/169/4 122/196/4
f 149/160/6 114/195/6 150/163/6
f 120/159/6 150/163/6 114/195/6
f 150/163/6 120/159/6 151/169/6
f 122/196/6 151/169/6 120/159/6
f 150/152/7 144/197/7 146/153/7
f 144/197/7 150/152/7 149/151/7
f 146/153/7 151/155/7 150/152/7
f 151/155/7 146/153/7 147/198/7
f 146/153/8 144/197/8 150/152/8
f 149/151/8 150/152/8 144/197/8
f 150/152/8 151/155/8 146/153/8
f 147/198/8 146/153/8 151/155/8
f 132/201/9 153/200/9 152/199/9
f 153/200/9 132/201/9 131/202/9
f 137/203/9 152/199/9 153/200/9
f 137/203/9 148/204/9 152/199/9
f 138/205/9 148/204/9 137/203/9
f 154/206/9 148/204/9 138/205/9
f 151/207/9 148/204/9 154/206/9
f 148/204/9 151/207/9 147/208/9
f 121/209/9 151/207/9 154/206/9
f 151/207/9 121/209/9 122/210/9
f 152/199/10 153/200/10 132/201/10
f 131/202/10 132/201/10 153/200/10
f 153/200/10 152/199/10 137/203/10
f 152/199/10 148/204/10 137/203/10
f 137/203/10 148/204/10 138/205/10
f 138/205/10 148/204/10 154/206/10
f 154/206/10 148/204/10 151/207/10
f 147/208/10 151/207/10 148/204/10
f 154/206/10 151/207/10 121/209/10
f 122/210/10 121/209/10 151/207/10
f 124/201/10 156/200/10 155/199/10
f 156/200/10 124/201/10 127/202/10
f 143/203/10 134/204/10 156/200/10
f 144/205/10 134/204/10 143/203/10
f 149/206/10 134/204/10 144/205/10
f 157/207/10 134/204/10 149/206/10
f 134/204/10 157/207/10 133/208/10
f 114/209/10 157/207/10 149/206/10
f 157/207/10 114/209/10 117/210/10
f 155/199/9 156/200/9 124/201/9
f 127/202/9 124/201/9 156/200/9
f 133/208/9 157/207/9 134/204/9
f 149/206/9 134/204/9 157/207/9
f 144/205/9 134/204/9 149/206/9
f 143/203/9 134/204/9 144/205/9
f 156/200/9 134/204/9 143/203/9
f 149/206/9 157/207/9 114/209/9
f 117/210/9 114/209/9 157/207/9
f 134/197/8 158/152/8 155/151/8
f 158/152/8 134/197/8 136/153/8
f 136/153/8 153/155/8 158/152/8
f 153/155/8 136/153/8 137/198/8
f 155/151/7 158/152/7 134/197/7
f 136/153/7 134/197/7 158/152/7
f 158/152/7 153/155/7 136/153/7
f 137/198/7 136/153/7 153/155/7
f 158/187/6 124/211/6 155/184/6
f 124/211/6 158/187/6 123/183/6
f 153/193/6 123/183/6 158/187/6
f 123/183/6 153/193/6 131/212/6
f 155/184/4 124/211/4 158/187/4
f 123/183/4 158/187/4 124/211/4
f 158/187/4 123/183/4 153/193/4
f 131/212/4 153/193/4 123/183/4
f 156/148/8 145/147/8 143/213/8
f 145/147/8 156/148/8 159/154/8
f 159/154/8 148/214/8 145/147/8
f 148/214/8 159/154/8 152/157/8
f 143/213/7 145/147/7 156/148/7
f 159/154/7 156/148/7 145/147/7
f 145/147/7 148/214/7 159/154/7
f 152/157/7 159/154/7 148/214/7
f 129/165/4 156/162/4 127/215/4
f 156/162/4 129/165/4 159/166/4
f 132/216/4 159/166/4 129/165/4
f 159/166/4 132/216/4 152/168/4
f 127/215/6 156/162/6 129/165/6
f 159/166/6 129/165/6 156/162/6
f 129/165/6 159/166/6 132/216/6
f 152/168/6 132/216/6 159/166/6
f 118/189/6 157/186/6 117/217/6
f 157/186/6 118/189/6 160/190/6
f 121/218/6 160/190/6 118/189/6
f 160/190/6 121/218/6 154/192/6
f 117/217/4 157/186/4 118/189/4
f 160/190/4 118/189/4 157/186/4
f 118/189/4 160/190/4 121/218/4
f 154/192/4 121/218/4 160/190/4
f 135/147/7 157/148/7 160/154/7
f 157/148/7 135/147/7 133/213/7
f 160/154/7 138/214/7 135/147/7
f 138/214/7 160/154/7 154/157/7
f 160/154/8 157/148/8 135/147/8
f 133/213/8 135/147/8 157/148/8
f 135/147/8 138/214/8 160/154/8
f 154/157/8 160/154/8 138/214/8

usemtl window

f 130/139/9 159/199/9 145/204/9
f 159/199/9 130/139/9 129/201/9
f 145/204/10 159/199/10 130/139/10
f 129/201/10 130/139/10 159/199/10
f 123/202/9 136/203/9 158/200/9
f 136/203/9 123/202/9 125/140/9
f 158/200/10 136/203/10 123/202/10
f 125/140/10 123/202/10 136/203/10
f 146/208/9 120/210/9 113/136/9
f 120/210/9 146/208/9 150/207/9
f 113/136/10 120/210/10 146/208/10
f 150/207/10 146/208/10 120/210/10
f 160/206/9 119/141/9 118/209/9
f 119/141/9 160/206/9 135/205/9
f 118/209/10 119/141/10 160/206/10
f 135/205/10 160/206/10 119/141/10

