# Created by Kenney (www.kenney.nl)

mtllib cabinFloor.mtl

g cabinFloor

v 0.5 0.027814 0.375
v 0.5 0.027814 0.384549
v -0.5 0.027814 0.375
v -0.5 0.027814 0.384549
v 0.5 0.04 -0.365451
v 0.5 0.04 -0.25
v -0.5 0.04 -0.365451
v -0.5 0.04 -0.25
v 0.5 0.04 0.384549
v 0.5 0.04 0.5
v -0.5 0.04 0.384549
v -0.5 0.04 0.5
v 0.5 0 0.5
v -0.5 0 0.5
v 0.5 0 0.25
v 0.5 0 0.125
v 0.5 0 -0.125
v 0.5 0 -0.5
v -0.5 0 -0.5
v -0.5 0 0.25
v -0.5 0 -0.125
v 0.5 0.027814 -0.25
v -0.5 0.027814 -0.25
v 0.5 0.027814 -0.375
v 0.5 0.027814 -0.365451
v -0.5 0.027814 -0.375
v -0.5 0.027814 -0.365451
v 0.5 0.027814 0.125
v -0.5 0.027814 0.125
v 0.5 0.04 0.125
v -0.5 0.04 0.125
v 0.5 0.04 0.259549
v 0.5 0.04 0.375
v -0.5 0.04 0.259549
v -0.5 0.04 0.375
v -0.5 0.027814 0.009549
v 0.5 0.027814 0.009549
v -0.5 0.04 0.009549
v 0.5 0.04 0.009549
v 0.5 0.027814 0.25
v 0.5 0.027814 0.259549
v -0.5 0.027814 0.25
v -0.5 0.027814 0.259549
v 0.5 0.027814 0
v -0.5 0.027814 0
v -0.5 0.027814 -0.5
v 0.5 0.027814 -0.5
v -0.5 0.027814 -0.490451
v -0.5 0.04 -0.490451
v -0.5 0.027814 -0.240451
v -0.5 0.04 -0.240451
v -0.5 0.04 -0.125
v -0.5 0.04 -0.375
v -0.5 0.027814 -0.125
v -0.5 0.027814 -0.115451
v -0.5 0.04 -0.115451
v -0.5 0.027814 0.134549
v -0.5 0.04 0.134549
v -0.5 0.04 0.25
v -0.5 0.04 0
v 0.5 0.04 -0.490451
v 0.5 0.04 -0.375
v 0.5 0.027814 -0.490451
v 0.5 0.027814 -0.240451
v 0.5 0.04 -0.125
v 0.5 0.04 -0.240451
v 0.5 0.027814 -0.125
v 0.5 0.027814 -0.115451
v 0.5 0.04 0
v 0.5 0.04 -0.115451
v 0.5 0.027814 0.134549
v 0.5 0.04 0.25
v 0.5 0.04 0.134549

vn 0 1 0
vn 0 0 -1
vn 0 0 1
vn 0 -1 0
vn -1 0 0
vn 1 0 0

vt -19.68504 14.76378
vt -19.68504 15.13972
vt 19.68504 14.76378
vt 19.68504 15.13972
vt -19.68504 -14.38783
vt -19.68504 -9.84252
vt 19.68504 -14.38783
vt 19.68504 -9.84252
vt -19.68504 19.68504
vt 19.68504 19.68504
vt 19.68504 1.095039
vt -19.68504 1.095039
vt 19.68504 1.574803
vt -19.68504 1.574803
vt 19.68504 0
vt -19.68504 0
vt 19.68504 9.84252
vt 19.68504 4.92126
vt 19.68504 -4.92126
vt 19.68504 -19.68504
vt -19.68504 -19.68504
vt -19.68504 9.84252
vt -19.68504 -4.92126
vt -19.68504 -14.76378
vt 19.68504 -14.76378
vt -19.68504 10.21846
vt 19.68504 10.21846
vt -19.68504 0.3759449
vt 19.68504 0.3759449
vt -19.68504 4.92126
vt -4.92126 0
vt -19.3091 1.095039
vt -19.3091 1.574803
vt -14.76378 1.095039
vt -14.38783 1.095039
vt -14.38783 1.574803
vt -9.84252 1.095039
vt -9.466575 1.095039
vt -9.466575 1.574803
vt -4.92126 1.574803
vt -9.84252 1.574803
vt -14.76378 1.574803
vt -4.92126 1.095039
vt 9.84252 0
vt -4.545315 1.095039
vt -4.545315 1.574803
vt 0 1.095039
vt 0.3759449 1.095039
vt 0.3759449 1.574803
vt 4.92126 1.095039
vt 5.297204 1.095039
vt 5.297204 1.574803
vt 9.84252 1.574803
vt 4.92126 1.574803
vt 0 1.574803
vt 9.84252 1.095039
vt 10.21846 1.095039
vt 10.21846 1.574803
vt 14.76378 1.095039
vt 15.13972 1.095039
vt 15.13972 1.574803
vt 14.76378 1.574803
vt -19.68504 -19.3091
vt 19.68504 -19.3091
vt 19.3091 1.574803
vt 19.3091 1.095039
vt 4.92126 0
vt 14.38783 1.095039
vt 14.38783 1.574803
vt 9.466575 1.095039
vt 9.466575 1.574803
vt 4.545315 1.095039
vt 4.545315 1.574803
vt -0.3759449 1.095039
vt -0.3759449 1.574803
vt -5.297204 1.095039
vt -9.84252 0
vt -5.297204 1.574803
vt -10.21846 1.095039
vt -10.21846 1.574803
vt -15.13972 1.095039
vt -15.13972 1.574803
vt -19.68504 5.297204
vt 19.68504 5.297204
vt -19.68504 -9.466575
vt 19.68504 -9.466575
vt -19.68504 -4.545315
vt 19.68504 -4.545315

usemtl wood

f 3/3/1 2/2/1 1/1/1
f 2/2/1 3/3/1 4/4/1
f 7/7/1 6/6/1 5/5/1
f 6/6/1 7/7/1 8/8/1
f 11/4/1 10/9/1 9/2/1
f 10/9/1 11/4/1 12/10/1
f 11/13/2 2/12/2 4/11/2
f 2/12/2 11/13/2 9/14/2
f 10/13/3 14/16/3 13/15/3
f 14/16/3 10/13/3 12/14/3
f 14/9/4 15/17/4 13/10/4
f 15/17/4 14/9/4 16/18/4
f 16/18/4 14/9/4 17/19/4
f 17/19/4 14/9/4 18/20/4
f 18/20/4 14/9/4 19/21/4
f 19/21/4 14/9/4 20/22/4
f 19/21/4 20/22/4 21/23/4
f 6/13/3 23/12/3 22/11/3
f 23/12/3 6/13/3 8/14/3
f 26/25/1 25/5/1 24/24/1
f 25/5/1 26/25/1 27/7/1
f 7/13/2 25/12/2 27/11/2
f 25/12/2 7/13/2 5/14/2
f 30/13/3 29/12/3 28/11/3
f 29/12/3 30/13/3 31/14/3
f 34/27/1 33/1/1 32/26/1
f 33/1/1 34/27/1 35/3/1
f 38/13/2 37/12/2 36/11/2
f 37/12/2 38/13/2 39/14/2
f 42/17/1 41/26/1 40/22/1
f 41/26/1 42/17/1 43/27/1
f 33/13/3 3/12/3 1/11/3
f 3/12/3 33/13/3 35/14/3
f 45/15/1 37/28/1 44/16/1
f 37/28/1 45/15/1 36/29/1
f 34/13/2 41/12/2 43/11/2
f 41/12/2 34/13/2 32/14/2
f 38/29/1 30/30/1 39/28/1
f 30/30/1 38/29/1 31/18/1
f 46/11/2 18/16/2 19/15/2
f 18/16/2 46/11/2 47/12/2
f 21/31/5 46/12/5 19/16/5
f 46/12/5 21/31/5 48/32/5
f 48/32/5 21/31/5 49/33/5
f 49/33/5 21/31/5 26/34/5
f 26/34/5 21/31/5 27/35/5
f 27/35/5 21/31/5 7/36/5
f 7/36/5 21/31/5 23/37/5
f 23/37/5 21/31/5 50/38/5
f 50/38/5 21/31/5 51/39/5
f 51/39/5 21/31/5 52/40/5
f 8/41/5 7/36/5 23/37/5
f 53/42/5 49/33/5 26/34/5
f 20/44/5 54/43/5 21/31/5
f 54/43/5 20/44/5 55/45/5
f 55/45/5 20/44/5 56/46/5
f 56/46/5 20/44/5 45/47/5
f 45/47/5 20/44/5 36/48/5
f 36/48/5 20/44/5 38/49/5
f 38/49/5 20/44/5 29/50/5
f 29/50/5 20/44/5 57/51/5
f 57/51/5 20/44/5 58/52/5
f 58/52/5 20/44/5 59/53/5
f 31/54/5 38/49/5 29/50/5
f 60/55/5 56/46/5 45/47/5
f 14/15/5 42/56/5 20/44/5
f 42/56/5 14/15/5 43/57/5
f 43/57/5 14/15/5 34/58/5
f 34/58/5 14/15/5 3/59/5
f 3/59/5 14/15/5 4/60/5
f 4/60/5 14/15/5 11/61/5
f 11/61/5 14/15/5 12/13/5
f 35/62/5 34/58/5 3/59/5
f 49/64/1 62/24/1 61/63/1
f 62/24/1 49/64/1 53/25/1
f 62/13/3 26/12/3 24/11/3
f 26/12/3 62/13/3 53/14/3
f 46/20/1 63/63/1 47/21/1
f 63/63/1 46/20/1 48/64/1
f 62/62/6 63/66/6 61/65/6
f 24/59/6 63/66/6 62/62/6
f 17/67/6 63/66/6 24/59/6
f 18/15/6 63/66/6 17/67/6
f 63/66/6 18/15/6 47/11/6
f 17/67/6 24/59/6 25/68/6
f 17/67/6 25/68/6 22/56/6
f 22/56/6 25/68/6 6/53/6
f 6/53/6 25/68/6 5/69/6
f 17/67/6 22/56/6 64/70/6
f 17/67/6 64/70/6 65/54/6
f 65/54/6 64/70/6 66/71/6
f 68/72/6 17/67/6 67/50/6
f 17/67/6 68/72/6 16/31/6
f 16/31/6 68/72/6 44/47/6
f 44/47/6 68/72/6 69/55/6
f 69/55/6 68/72/6 70/73/6
f 16/31/6 44/47/6 37/74/6
f 16/31/6 37/74/6 30/40/6
f 30/40/6 37/74/6 39/75/6
f 71/76/6 16/31/6 28/43/6
f 16/31/6 71/76/6 15/77/6
f 15/77/6 71/76/6 72/41/6
f 72/41/6 71/76/6 73/78/6
f 41/79/6 15/77/6 40/37/6
f 15/77/6 41/79/6 13/16/6
f 13/16/6 41/79/6 1/34/6
f 1/34/6 41/79/6 33/42/6
f 33/42/6 41/79/6 32/80/6
f 13/16/6 1/34/6 2/81/6
f 13/16/6 2/81/6 10/14/6
f 10/14/6 2/81/6 9/82/6
f 49/13/2 63/12/2 48/11/2
f 63/12/2 49/13/2 61/14/2
f 72/13/3 42/12/3 40/11/3
f 42/12/3 72/13/3 59/14/3
f 58/84/1 72/22/1 73/83/1
f 72/22/1 58/84/1 59/17/1
f 29/18/1 71/83/1 28/30/1
f 71/83/1 29/18/1 57/84/1
f 58/13/2 71/12/2 57/11/2
f 71/12/2 58/13/2 73/14/2
f 65/13/3 54/12/3 67/11/3
f 54/12/3 65/13/3 52/14/3
f 51/86/1 65/23/1 66/85/1
f 65/23/1 51/86/1 52/19/1
f 51/13/2 64/12/2 50/11/2
f 64/12/2 51/13/2 66/14/2
f 56/88/1 69/16/1 70/87/1
f 69/16/1 56/88/1 60/15/1
f 69/13/3 45/12/3 44/11/3
f 45/12/3 69/13/3 60/14/3
f 54/19/1 68/87/1 67/23/1
f 68/87/1 54/19/1 55/88/1
f 56/13/2 68/12/2 55/11/2
f 68/12/2 56/13/2 70/14/2
f 23/8/1 64/85/1 22/6/1
f 64/85/1 23/8/1 50/86/1

