# Created by Kenney (www.kenney.nl)

mtllib cabinCorner.mtl

g cabinCorner

v 0 0.36477 -0.0351
v 0.08 0.36477 -0.0351
v 0 0.425565 -0.0702
v 0.08 0.425565 -0.0702
v 0.1 0.72954 0.0351
v 0.08 0.72954 0.0351
v 0.1 0.790335 0.0702
v 0.0351 0.72954 0.0351
v 0.0702 0.790335 0.0702
v 0.0351 0.72954 0.1
v 0.0351 0.72954 0.08
v -0.0351 0.72954 0.1
v -0.0351 0.72954 0.08
v 0.0351 0.48636 0.1
v -0.0351 0.48636 0.1
v 0.0702 0.547155 0.1
v -0.0702 0.547155 0.1
v 0.0351 0.60795 0.1
v -0.0351 0.60795 0.1
v 0 0.060795 -0.0702
v 0 0.12159 -0.0351
v 0 0 -0.0351
v 0 0 0
v 0 0.24318 -0.0351
v 0 0.48636 -0.0351
v 0 0.60795 -0.0351
v 0 0.72954 -0.0351
v 0 0.85113 -0.0351
v 0 0.97272 -0.0351
v 0 0.97272 0
v 0 0.911925 -0.0702
v 0 0.790335 -0.0702
v 0 0.668745 -0.0702
v 0 0.547155 -0.0702
v 0 0.303975 -0.0702
v 0 0.182385 -0.0702
v 0.08 0.911925 0.0702
v 0.0702 0.911925 0.0702
v 0.08 0.97272 0.0351
v 0.0351 0.97272 0.0351
v 0.0351 0.48636 0.0351
v 0.0702 0.425565 0.0702
v 0.0351 0.48636 0.08
v 0.0702 0.425565 0.08
v 0.08 0.85113 0.0351
v 0.0351 0.85113 0.0351
v 0.1 0 0.0351
v 0.0351 0 0.0351
v 0.1 0.060795 0.0702
v 0.0702 0.060795 0.0702
v 0.0351 0.85113 0.08
v 0.0351 0.85113 0.1
v -0.0351 0.85113 0.08
v -0.0351 0.85113 0.1
v 0.0351 0.36477 0.08
v -0.0351 0.36477 0.08
v -0.0702 0.425565 0.08
v -0.0351 0.48636 0.08
v 0.08 0.182385 0.0702
v 0.0702 0.182385 0.0702
v 0.08 0.24318 0.0351
v 0.0351 0.24318 0.0351
v 0.1 0.547155 0.0702
v 0.0702 0.547155 0.0702
v 0.1 0.60795 0.0351
v 0.0351 0.60795 0.0351
v 0.1 0.12159 0.0351
v 0.0351 0.12159 0.0351
v 0.08 0.12159 0.0351
v 0.08 0.668745 0.0702
v 0.0702 0.668745 0.0702
v 0.08 0.60795 0.0351
v 0.1 0.85113 0.0351
v 0.0351 0.60795 0.08
v -0.0351 0.60795 0.08
v 0.0351 0.12159 0.08
v -0.0351 0.12159 0.08
v 0.0702 0.182385 0.08
v -0.0702 0.182385 0.08
v 0.0351 0.24318 0.08
v -0.0351 0.24318 0.08
v 0.0351 0.36477 0.1
v -0.0351 0.36477 0.1
v 0.1 0.24318 0.0351
v 0.1 0.303975 0.0702
v 0.0702 0.303975 0.0702
v 0.1 0.36477 0.0351
v 0.0351 0.36477 0.0351
v 0.08 0.36477 0.0351
v 0.08 0.425565 0.0702
v 0.1 0.303975 -0.0702
v 0.1 0.24318 -0.0351
v 0.1 0.36477 -0.0351
v 0.1 0.85113 -0.0351
v 0.08 0.85113 -0.0351
v 0.08 0.97272 -0.0351
v 0.0351 0.97272 0.08
v -0.0351 0.97272 0.08
v -0.0351 0.97272 0
v 0.08 0.48636 -0.0351
v 0.08 0.24318 -0.0351
v 0.08 0.911925 -0.0702
v 0.1 0.060795 -0.0702
v 0.1 0 -0.0351
v 0.1 0.12159 -0.0351
v 0.08 0.72954 -0.0351
v 0.1 0.72954 -0.0351
v 0.1 0.790335 -0.0702
v 0.08 0.60795 -0.0351
v 0.08 0.668745 -0.0702
v 0.1 0.547155 -0.0702
v 0.1 0.48636 -0.0351
v 0.1 0.60795 -0.0351
v 0.1 0.48636 0.0351
v 0.08 0.48636 0.0351
v 0.08 0.182385 -0.0702
v 0.08 0.12159 -0.0351
v 0.0702 0.911925 0.08
v -0.0702 0.303975 0
v -0.0351 0.36477 0
v -0.0702 0.303975 0.1
v -0.0702 0.547155 0
v -0.0351 0.60795 0
v -0.0351 0.72954 0
v -0.0702 0.790335 0
v -0.0702 0.790335 0.1
v -0.0702 0.182385 0
v -0.0351 0.24318 0
v -0.0351 0.24318 0.1
v 0.0702 0.303975 0.1
v 0.0351 0.24318 0.1
v -0.0351 0 0
v -0.0702 0.060795 0
v -0.0351 0 0.1
v -0.0702 0.060795 0.1
v -0.0702 0.425565 0
v -0.0702 0.911925 0
v -0.0702 0.911925 0.08
v 0.0702 0.060795 0.1
v 0.0351 0.12159 0.1
v -0.0351 0.48636 0
v -0.0351 0.85113 0
v -0.0702 0.668745 0
v -0.0702 0.668745 0.08
v 0.0702 0.668745 0.08
v -0.0351 0.12159 0
v 0.0702 0.790335 0.1
v 0.0351 0 0.1
v -0.0351 0.12159 0.1

vn 0 -0.4999999 -0.8660254
vn 0 -0.4999999 0.8660254
vn 0 -1 0
vn 0 0 1
vn -1 0 0
vn 0 0.4999999 0.8660254
vn 0.8660254 0.4999999 0
vn 0 1 0
vn 0.8660254 -0.4999999 0
vn 1 0 0
vn 0 0.4999999 -0.8660254
vn -0.8660254 0.4999999 0
vn -0.8660254 -0.4999999 0
vn 0 0 -1

vt 0 13.12796
vt -3.149606 13.12796
vt 0 15.89174
vt -3.149606 15.89174
vt 3.937008 25.56497
vt 3.149606 25.56497
vt 3.937008 28.32875
vt 1.38189 25.56497
vt 2.76378 28.32875
vt 1.38189 3.937008
vt 1.38189 3.149606
vt -1.38189 3.937008
vt -1.38189 3.149606
vt 1.38189 19.14803
vt -1.38189 19.14803
vt 2.76378 21.54154
vt -2.76378 21.54154
vt 1.38189 23.93504
vt -1.38189 23.93504
vt -2.76378 2.393504
vt -1.38189 4.787008
vt -1.38189 0
vt 0 0
vt -1.38189 9.574016
vt -1.38189 14.36102
vt -1.38189 28.72205
vt -1.38189 33.50906
vt -1.38189 38.29606
vt 0 38.29606
vt -2.76378 35.90256
vt -2.76378 31.11555
vt -2.76378 26.32854
vt -2.76378 16.75453
vt -2.76378 11.96752
vt -2.76378 7.180512
vt 3.149606 29.71064
vt 2.76378 29.71064
vt 3.149606 32.47442
vt 1.38189 32.47442
vt -1.38189 15.89174
vt -2.76378 13.12796
vt -3.149606 15.89174
vt -3.149606 13.12796
vt 1.38189 29.71064
vt 3.149606 32.47442
vt 2.76378 32.47442
vt 3.937008 0.6909447
vt 1.38189 0.6909447
vt 3.937008 3.454725
vt 2.76378 3.454725
vt 1.38189 14.36102
vt 2.76378 16.75453
vt 3.149606 4.836617
vt 2.76378 4.836617
vt 3.149606 7.600397
vt 1.38189 7.600397
vt 3.937008 17.27363
vt 2.76378 17.27363
vt 3.937008 20.03741
vt 1.38189 20.03741
vt 3.937008 0.6909459
vt 2.76378 0.6909459
vt 3.937008 3.454726
vt 1.38189 3.454726
vt 3.149606 4.836616
vt 1.38189 4.836616
vt 3.149606 7.600396
vt 2.76378 7.600396
vt 3.149606 21.4193
vt 2.76378 21.4193
vt 3.149606 24.18308
vt 1.38189 24.18308
vt 3.149606 21.4193
vt 1.38189 21.4193
vt 2.76378 24.18308
vt 3.937008 25.56497
vt 2.76378 25.56497
vt 3.937008 28.32875
vt 1.38189 28.32875
vt -1.38189 17.27363
vt -3.149606 17.27363
vt -2.76378 20.03741
vt -3.937008 20.03741
vt -3.937008 17.27363
vt 1.38189 4.787008
vt 2.76378 7.180512
vt 1.38189 9.574016
vt 3.937008 8.982286
vt 3.149606 8.982286
vt 3.937008 11.74607
vt 1.38189 8.982286
vt 2.76378 11.74607
vt 3.937008 8.982287
vt 2.76378 8.982287
vt 3.937008 11.74607
vt 1.38189 11.74607
vt 3.149606 13.12796
vt 1.38189 13.12796
vt 3.149606 15.89174
vt 2.76378 15.89174
vt 2.76378 11.96752
vt -3.937008 -1.38189
vt -3.937008 1.38189
vt -3.149606 -1.38189
vt -3.149606 1.38189
vt 0 -1.38189
vt -1.38189 1.38189
vt 1.38189 0
vt 0 13.12796
vt 0 15.89174
vt 1.08664E-17 8.982286
vt -3.149606 8.982286
vt 2.17328E-17 11.74607
vt -3.937008 8.982286
vt -3.937008 11.74607
vt 0 29.71064
vt -3.149606 29.71064
vt 0 32.47442
vt -3.149606 32.47442
vt 2.76378 2.393504
vt 0 25.56497
vt -3.149606 25.56497
vt 0 28.32875
vt -3.937008 25.56497
vt -3.937008 28.32875
vt 0 21.4193
vt -3.149606 21.4193
vt 0 24.18308
vt -3.149606 24.18308
vt 2.76378 26.32854
vt 1.38189 28.72205
vt 3.149606 13.12796
vt 2.76378 13.12796
vt 3.149606 15.89174
vt 1.38189 15.89174
vt -6.51984E-17 25.56497
vt -3.937008 25.56497
vt -3.25992E-17 28.32875
vt -3.937008 28.32875
vt -3.149606 28.32875
vt 3.149606 17.27363
vt 3.937008 20.03741
vt 1.38189 17.27363
vt 2.76378 20.03741
vt 3.937008 1.38189
vt 3.937008 -1.38189
vt 3.149606 1.38189
vt 3.149606 -1.38189
vt -8.693119E-17 17.27363
vt -4.346559E-17 20.03741
vt -3.937008 20.03741
vt -3.149606 20.03741
vt 0 32.47442
vt -3.149606 32.47442
vt 2.76378 31.11555
vt 1.38189 33.50906
vt 0 21.4193
vt -3.149606 21.4193
vt -1.38189 29.71064
vt -2.76378 32.47442
vt 1.303968E-16 8.982287
vt 6.51984E-17 11.74607
vt 3.149606 11.74607
vt 6.51984E-17 17.27363
vt 3.25992E-17 20.03741
vt 3.149606 20.03741
vt 0 4.836616
vt -3.149606 4.836616
vt 0 7.600396
vt -3.149606 7.600396
vt 3.25992E-17 25.56497
vt 6.51984E-17 28.32875
vt -1.38189 13.12796
vt -2.76378 15.89174
vt 0 4.836617
vt 0 7.600397
vt 2.17328E-17 8.982286
vt 4.346559E-17 11.74607
vt -1.38189 8.982286
vt -2.76378 11.74607
vt 0 0.6909447
vt 0 3.454725
vt -1.38189 3.454726
vt -2.76378 0.6909459
vt -3.149606 3.454726
vt -3.937008 0.6909459
vt -3.937008 3.454726
vt -1.38189 32.47442
vt -2.76378 29.71064
vt -1.38189 24.18308
vt -2.76378 21.4193
vt -6.51984E-17 0.6909459
vt -3.25992E-17 3.454726
vt 2.76378 35.90256
vt 1.38189 38.29606
vt -3.149606 4.836617
vt -3.149606 7.600397
vt -1.38189 25.56497
vt -2.76378 28.32875
vt 2.17328E-17 8.982287
vt -3.937008 8.982287
vt 1.08664E-17 11.74607
vt -3.937008 11.74607
vt -3.149606 11.74607
vt -3.937008 0.6909447
vt -3.937008 3.454725
vt -1.38189 0.6909447
vt -2.76378 3.454725
vt -1.38189 20.03741
vt -2.76378 17.27363
vt -1.38189 28.32875
vt -2.76378 25.56497
vt 1.08664E-17 17.27363
vt 2.17328E-17 20.03741
vt -1.38189 21.4193
vt -2.76378 24.18308
vt 1.38189 1.38189
vt -1.38189 4.836616
vt -2.76378 7.600396
vt -1.38189 7.600397
vt -2.76378 4.836617
vt 1.303968E-16 0.6909459
vt 6.51984E-17 3.454726
vt 3.149606 3.454726
vt -1.38189 11.74607
vt -2.76378 8.982287
vt 1.303968E-16 25.56497
vt 6.51984E-17 28.32875
vt 3.149606 28.32875
vt 2.17328E-17 17.27363
vt 4.346559E-17 20.03741

usemtl wood

f 3/3/1 2/2/1 1/1/1
f 2/2/1 3/3/1 4/4/1
f 7/7/2 6/6/2 5/5/2
f 6/6/2 7/7/2 8/8/2
f 8/8/2 7/7/2 9/9/2
f 12/12/3 11/11/3 10/10/3
f 11/11/3 12/12/3 13/13/3
f 16/16/4 15/15/4 14/14/4
f 15/15/4 16/16/4 17/17/4
f 17/17/4 16/16/4 18/18/4
f 17/17/4 18/18/4 19/19/4
f 22/22/5 21/21/5 20/20/5
f 21/21/5 22/22/5 23/23/5
f 21/21/5 23/23/5 24/24/5
f 24/24/5 23/23/5 1/25/5
f 1/25/5 23/23/5 25/15/5
f 25/15/5 23/23/5 26/19/5
f 26/19/5 23/23/5 27/26/5
f 27/26/5 23/23/5 28/27/5
f 28/27/5 23/23/5 29/28/5
f 29/28/5 23/23/5 30/29/5
f 29/28/5 31/30/5 28/27/5
f 28/27/5 32/31/5 27/26/5
f 27/26/5 33/32/5 26/19/5
f 26/19/5 34/17/5 25/15/5
f 25/15/5 3/33/5 1/25/5
f 1/25/5 35/34/5 24/24/5
f 24/24/5 36/35/5 21/21/5
f 39/38/6 38/37/6 37/36/6
f 38/37/6 39/38/6 40/39/6
f 43/42/7 42/41/7 41/40/7
f 42/41/7 43/42/7 44/43/7
f 37/45/2 46/44/2 45/36/2
f 46/44/2 37/45/2 38/46/2
f 49/49/2 48/48/2 47/47/2
f 48/48/2 49/49/2 50/50/2
f 53/11/8 52/12/8 51/13/8
f 52/12/8 53/11/8 54/10/8
f 44/52/4 56/25/4 55/51/4
f 56/25/4 44/52/4 57/33/4
f 57/33/4 44/52/4 43/14/4
f 57/33/4 43/14/4 58/15/4
f 61/55/6 60/54/6 59/53/6
f 60/54/6 61/55/6 62/56/6
f 65/59/6 64/58/6 63/57/6
f 64/58/6 65/59/6 66/60/6
f 67/63/6 50/62/6 49/61/6
f 50/62/6 67/63/6 68/64/6
f 59/67/2 68/66/2 69/65/2
f 68/66/2 59/67/2 60/68/2
f 6/71/6 71/70/6 70/69/6
f 71/70/6 6/71/6 8/72/6
f 70/71/2 66/74/2 72/73/2
f 66/74/2 70/71/2 71/75/2
f 73/78/6 9/77/6 7/76/6
f 9/77/6 73/78/6 46/79/6
f 75/11/8 18/12/8 74/13/8
f 18/12/8 75/11/8 19/10/8
f 64/82/9 43/81/9 41/80/9
f 43/81/9 64/82/9 16/83/9
f 43/81/9 16/83/9 14/84/9
f 78/86/4 77/21/4 76/85/4
f 77/21/4 78/86/4 79/35/4
f 79/35/4 78/86/4 80/87/4
f 79/35/4 80/87/4 81/24/4
f 56/11/8 82/12/8 55/13/8
f 82/12/8 56/11/8 83/10/8
f 85/90/2 61/89/2 84/88/2
f 61/89/2 85/90/2 62/91/2
f 62/91/2 85/90/2 86/92/2
f 87/95/6 86/94/6 85/93/6
f 86/94/6 87/95/6 88/96/6
f 90/99/2 88/98/2 89/97/2
f 88/98/2 90/99/2 42/100/2
f 15/12/3 43/11/3 14/10/3
f 43/11/3 15/12/3 58/13/3
f 93/51/10 92/87/10 91/101/10
f 92/87/10 93/51/10 87/25/10
f 92/87/10 87/25/10 84/24/10
f 84/24/10 87/25/10 85/34/10
f 95/104/8 73/103/8 94/102/8
f 73/103/8 95/104/8 45/105/8
f 29/106/8 39/105/8 96/104/8
f 39/105/8 29/106/8 40/107/8
f 40/107/8 29/106/8 97/13/8
f 97/13/8 29/106/8 30/23/8
f 97/13/8 30/23/8 98/11/8
f 98/11/8 30/23/8 99/108/8
f 25/110/11 4/43/11 3/109/11
f 4/43/11 25/110/11 100/42/11
f 35/113/1 101/112/1 24/111/1
f 101/112/1 35/113/1 92/114/1
f 92/114/1 35/113/1 91/115/1
f 29/118/11 102/117/11 31/116/11
f 102/117/11 29/118/11 96/119/11
f 105/85/10 104/108/10 103/120/10
f 104/108/10 105/85/10 67/21/10
f 104/108/10 67/21/10 47/22/10
f 47/22/10 67/21/10 49/20/10
f 32/123/1 106/122/1 27/121/1
f 106/122/1 32/123/1 107/124/1
f 107/124/1 32/123/1 108/125/1
f 33/128/1 109/127/1 26/126/1
f 109/127/1 33/128/1 110/129/1
f 113/18/10 112/14/10 111/16/10
f 112/14/10 113/18/10 65/19/10
f 112/14/10 65/19/10 114/15/10
f 114/15/10 65/19/10 63/17/10
f 2/104/8 87/103/8 93/102/8
f 87/103/8 2/104/8 89/105/8
f 106/131/10 109/18/10 110/130/10
f 109/18/10 106/131/10 6/26/10
f 109/18/10 6/26/10 72/19/10
f 72/19/10 6/26/10 70/32/10
f 100/14/10 2/51/10 4/52/10
f 2/51/10 100/14/10 115/15/10
f 2/51/10 115/15/10 89/25/10
f 89/25/10 115/15/10 90/33/10
f 115/134/6 42/133/6 90/132/6
f 42/133/6 115/134/6 41/135/6
f 28/138/11 108/137/11 32/136/11
f 108/137/11 28/138/11 94/139/11
f 94/139/11 28/138/11 95/140/11
f 63/142/2 115/141/2 114/57/2
f 115/141/2 63/142/2 41/143/2
f 41/143/2 63/142/2 64/144/2
f 115/147/3 112/146/3 114/145/3
f 112/146/3 115/147/3 100/148/3
f 26/150/11 111/84/11 34/149/11
f 111/84/11 26/150/11 113/151/11
f 113/151/11 26/150/11 109/152/11
f 109/104/8 65/103/8 113/102/8
f 65/103/8 109/104/8 72/105/8
f 101/87/10 117/85/10 116/86/10
f 117/85/10 101/87/10 61/24/10
f 117/85/10 61/24/10 69/21/10
f 69/21/10 61/24/10 59/35/10
f 6/147/3 107/146/3 5/145/3
f 107/146/3 6/147/3 106/148/3
f 31/153/1 95/117/1 28/116/1
f 95/117/1 31/153/1 102/154/1
f 117/104/8 67/103/8 105/102/8
f 67/103/8 117/104/8 69/105/8
f 94/156/10 107/131/10 108/155/10
f 107/131/10 94/156/10 73/27/10
f 107/131/10 73/27/10 5/26/10
f 5/26/10 73/27/10 7/31/10
f 61/147/3 92/146/3 84/145/3
f 92/146/3 61/147/3 101/148/3
f 27/128/11 110/158/11 33/157/11
f 110/158/11 27/128/11 106/129/11
f 38/160/9 51/117/9 46/159/9
f 51/117/9 38/160/9 118/154/9
f 121/93/12 120/162/12 119/161/12
f 120/162/12 121/93/12 56/163/12
f 56/163/12 121/93/12 83/95/12
f 17/57/12 123/165/12 122/164/12
f 123/165/12 17/57/12 75/166/12
f 75/166/12 17/57/12 19/59/12
f 36/169/1 117/168/1 21/167/1
f 117/168/1 36/169/1 116/170/1
f 13/6/13 125/172/13 124/171/13
f 125/172/13 13/6/13 126/7/13
f 126/7/13 13/6/13 12/5/13
f 42/174/9 55/2/9 88/173/9
f 55/2/9 42/174/9 44/4/9
f 79/53/12 128/176/12 127/175/12
f 128/176/12 79/53/12 81/55/12
f 81/89/13 119/178/13 128/177/13
f 119/178/13 81/89/13 121/90/13
f 121/90/13 81/89/13 129/88/13
f 86/180/9 80/112/9 62/179/9
f 80/112/9 86/180/9 130/115/9
f 80/112/9 130/115/9 131/114/9
f 134/47/13 133/182/13 132/181/13
f 133/182/13 134/47/13 135/49/13
f 56/97/13 136/3/13 120/1/13
f 136/3/13 56/97/13 57/99/13
f 138/36/12 99/118/12 137/116/12
f 99/118/12 138/36/12 98/38/12
f 76/185/7 50/184/7 68/183/7
f 50/184/7 76/185/7 139/186/7
f 139/186/7 76/185/7 140/187/7
f 57/132/12 141/110/12 136/109/12
f 141/110/12 57/132/12 58/134/12
f 53/36/13 137/153/13 142/116/13
f 137/153/13 53/36/13 138/45/13
f 97/119/7 38/189/7 40/188/7
f 38/189/7 97/119/7 118/117/7
f 75/73/13 143/128/13 123/126/13
f 143/128/13 75/73/13 144/71/13
f 11/129/7 71/191/7 8/190/7
f 71/191/7 11/129/7 145/158/7
f 144/69/12 124/128/12 143/157/12
f 124/128/12 144/69/12 13/71/12
f 145/130/4 75/19/4 74/18/4
f 75/19/4 145/130/4 144/32/4
f 144/32/4 145/130/4 11/131/4
f 144/32/4 11/131/4 13/26/4
f 21/193/11 103/186/11 20/192/11
f 103/186/11 21/193/11 105/187/11
f 105/187/11 21/193/11 117/185/11
f 133/120/14 23/23/14 132/108/14
f 23/23/14 133/120/14 146/85/14
f 23/23/14 146/85/14 30/29/14
f 30/29/14 146/85/14 128/87/14
f 128/87/14 146/85/14 127/86/14
f 30/29/14 128/87/14 120/51/14
f 120/51/14 128/87/14 119/101/14
f 30/29/14 120/51/14 141/14/14
f 141/14/14 120/51/14 136/52/14
f 30/29/14 141/14/14 123/18/14
f 123/18/14 141/14/14 122/16/14
f 30/29/14 123/18/14 124/131/14
f 124/131/14 123/18/14 143/130/14
f 30/29/14 124/131/14 142/156/14
f 142/156/14 124/131/14 125/155/14
f 30/29/14 142/156/14 137/194/14
f 30/29/14 137/194/14 99/195/14
f 24/176/11 116/196/11 36/175/11
f 116/196/11 24/176/11 101/197/11
f 9/199/9 11/122/9 8/198/9
f 11/122/9 9/199/9 147/125/9
f 11/122/9 147/125/9 10/124/9
f 1/202/11 91/201/11 35/200/11
f 91/201/11 1/202/11 93/203/11
f 93/203/11 1/202/11 2/204/11
f 20/182/1 104/205/1 22/181/1
f 104/205/1 20/182/1 103/206/1
f 118/194/4 53/27/4 51/156/4
f 53/27/4 118/194/4 138/30/4
f 138/30/4 118/194/4 97/195/4
f 138/30/4 97/195/4 98/28/4
f 50/208/9 148/205/9 48/207/9
f 148/205/9 50/208/9 139/206/9
f 74/152/7 64/210/7 66/209/7
f 64/210/7 74/152/7 16/84/7
f 16/84/7 74/152/7 18/151/7
f 77/65/13 127/169/13 146/167/13
f 127/169/13 77/65/13 79/67/13
f 139/120/4 134/22/4 148/108/4
f 134/22/4 139/120/4 135/20/4
f 135/20/4 139/120/4 140/85/4
f 135/20/4 140/85/4 149/21/4
f 130/101/4 129/24/4 131/87/4
f 129/24/4 130/101/4 121/34/4
f 121/34/4 130/101/4 82/51/4
f 121/34/4 82/51/4 83/25/4
f 51/140/7 9/212/7 46/211/7
f 9/212/7 51/140/7 147/137/7
f 147/137/7 51/140/7 52/139/7
f 34/214/1 100/81/1 25/213/1
f 100/81/1 34/214/1 112/84/1
f 112/84/1 34/214/1 111/83/1
f 71/216/9 74/127/9 66/215/9
f 74/127/9 71/216/9 145/129/9
f 134/12/3 48/217/3 148/10/3
f 48/217/3 134/12/3 23/23/3
f 23/23/3 134/12/3 132/22/3
f 22/106/3 48/217/3 23/23/3
f 104/146/3 48/217/3 22/106/3
f 48/217/3 104/146/3 47/145/3
f 129/12/3 80/11/3 131/10/3
f 80/11/3 129/12/3 81/13/3
f 147/155/4 12/26/4 10/131/4
f 12/26/4 147/155/4 126/31/4
f 126/31/4 147/155/4 52/156/4
f 126/31/4 52/156/4 54/27/4
f 60/219/9 76/168/9 68/218/9
f 76/168/9 60/219/9 78/170/9
f 77/11/8 140/12/8 76/13/8
f 140/12/8 77/11/8 149/10/8
f 80/197/7 60/221/7 62/220/7
f 60/221/7 80/197/7 78/196/7
f 135/61/12 146/223/12 133/222/12
f 146/223/12 135/61/12 77/224/12
f 77/224/12 135/61/12 149/63/12
f 55/204/7 86/226/7 88/225/7
f 86/226/7 55/204/7 130/201/7
f 130/201/7 55/204/7 82/203/7
f 126/76/12 142/228/12 125/227/12
f 142/228/12 126/76/12 53/229/12
f 53/229/12 126/76/12 54/78/12
f 58/141/13 122/231/13 141/230/13
f 122/231/13 58/141/13 17/142/13
f 17/142/13 58/141/13 15/57/13
f 96/195/10 95/156/10 102/194/10
f 95/156/10 96/195/10 39/28/10
f 95/156/10 39/28/10 45/27/10
f 45/27/10 39/28/10 37/30/10

