# Created by Kenney (www.kenney.nl)

mtllib cabinRoofFlat.mtl

g cabinRoofFlat

v 0.5 0 0.5
v 0.5 0 -0.5
v -0.5 0 0.5
v -0.5 0 -0.5
v -0.25 0.04 -0.5
v -0.25 0.027814 -0.5
v -0.25 0.04 0.5
v -0.25 0.027814 0.5
v 0.125 0.04 -0.5
v 0.125 0.027814 -0.5
v 0.125 0.04 0.5
v 0.125 0.027814 0.5
v 0.404549 0.027814 -0.5
v 0.404549 0.04 -0.5
v 0.404549 0.027814 0.5
v 0.404549 0.04 0.5
v 0.375 0.027814 -0.5
v 0.375 0.027814 0.5
v -0.345451 0.027814 -0.5
v -0.345451 0.027814 0.5
v -0.375 0.027814 -0.5
v -0.375 0.027814 0.5
v 0.279549 0.027814 -0.5
v 0.279549 0.027814 0.5
v 0.25 0.027814 -0.5
v 0.25 0.027814 0.5
v 0.279549 0.04 -0.5
v 0.279549 0.04 0.5
v 0.029549 0.027814 -0.5
v 0.029549 0.04 -0.5
v 0.029548 0.027814 0.5
v 0.029548 0.04 0.5
v 0.375 0.04 -0.5
v 0.375 0.04 0.5
v -0.5 0.027814 -0.5
v -0.5 0.027814 0.5
v -0.470452 0.027814 0.5
v -0.375 0.04 0.5
v -0.470452 0.04 0.5
v 0.5 0.04 0.5
v -0.345451 0.04 0.5
v -0.125 0.027814 0.5
v -0.220452 0.027814 0.5
v -0.125 0.04 0.5
v -0.220452 0.04 0.5
v 0 0.027814 0.5
v -0.095451 0.027814 0.5
v 0 0.04 0.5
v -0.095451 0.04 0.5
v 0.154549 0.027814 0.5
v 0.25 0.04 0.5
v 0.154549 0.04 0.5
v -0.345451 0.04 -0.5
v 0.5 0.04 -0.5
v 0 0.027814 -0.5
v -0.095451 0.027814 -0.5
v -0.095451 0.04 -0.5
v 0 0.04 -0.5
v -0.220451 0.027814 -0.5
v 0.25 0.04 -0.5
v -0.125 0.04 -0.5
v -0.125 0.027814 -0.5
v -0.375 0.04 -0.5
v -0.470451 0.027814 -0.5
v 0.154549 0.027814 -0.5
v -0.470451 0.04 -0.5
v -0.220451 0.04 -0.5
v 0.154549 0.04 -0.5

vn 0 -1 0
vn 1 0 0
vn -1 0 0
vn 0 1 0
vn -1 0 -1E-06
vn 0 0 1
vn 0 0 -1

vt 19.68504 19.68504
vt 19.68504 -19.68504
vt -19.68504 19.68504
vt -19.68504 -19.68504
vt 19.68504 1.574803
vt 19.68504 1.095039
vt -19.68504 1.574803
vt -19.68504 1.095039
vt -15.92713 -19.68504
vt -15.92713 19.68504
vt -14.76378 -19.68504
vt -14.76378 19.68504
vt 13.60043 -19.68504
vt 13.60043 19.68504
vt 14.76378 -19.68504
vt 14.76378 19.68504
vt -11.00587 -19.68504
vt -11.00587 19.68504
vt -9.84252 -19.68504
vt -9.84252 19.68504
vt -19.68504 1.095039
vt -19.68504 1.574803
vt 19.68504 1.095039
vt 19.68504 1.574803
vt -19.68504 0
vt 19.68504 0
vt -14.76378 1.095039
vt -18.52173 1.095039
vt -14.76378 1.574803
vt -18.52173 1.574803
vt 15.92713 1.095039
vt 15.92713 1.574803
vt -9.84252 1.095039
vt -13.60043 1.095039
vt -9.84252 1.574803
vt -13.60043 1.574803
vt -4.92126 1.095039
vt -8.679213 1.095039
vt -4.92126 1.574803
vt -8.679213 1.574803
vt 0 1.095039
vt -3.757913 1.095039
vt 0 1.574803
vt -3.757913 1.574803
vt 4.92126 1.095039
vt 1.163307 1.095039
vt 4.92126 1.574803
vt 1.163307 1.574803
vt 9.84252 1.095039
vt 6.084606 1.095039
vt 9.84252 1.574803
vt 6.084606 1.574803
vt 14.76378 1.095039
vt 11.00587 1.095039
vt 14.76378 1.574803
vt 11.00587 1.574803
vt -1.163346 -19.68504
vt -1.163307 19.68504
vt 0 -19.68504
vt 0 19.68504
vt 8.679173 -19.68504
vt 8.679213 19.68504
vt 9.84252 -19.68504
vt 9.84252 19.68504
vt 18.52169 -19.68504
vt 18.52173 19.68504
vt -6.084606 -19.68504
vt -6.084606 19.68504
vt -4.92126 -19.68504
vt -4.92126 19.68504
vt -19.68502 1.095039
vt -19.68502 1.574803
vt 19.68506 1.095039
vt 19.68506 1.574803
vt -19.68503 1.095039
vt -19.68503 1.574803
vt 19.68505 1.095039
vt 19.68505 1.574803
vt 3.757913 -19.68504
vt 3.757913 19.68504
vt 4.92126 -19.68504
vt 4.92126 19.68504
vt -15.92713 1.095039
vt -15.92713 1.574803
vt -11.00587 1.095039
vt -11.00587 1.574803
vt -6.084606 1.095039
vt -6.084606 1.574803
vt -1.163346 1.095039
vt -1.163346 1.574803
vt 3.757913 1.095039
vt 3.757913 1.574803
vt 8.679173 1.095039
vt 8.679173 1.574803
vt 13.60043 1.095039
vt 13.60043 1.574803
vt 18.52169 1.095039
vt 18.52169 1.574803

usemtl wood

f 3/3/1 2/2/1 1/1/1
f 2/2/1 3/3/1 4/4/1
f 7/7/2 6/6/2 5/5/2
f 6/6/2 7/7/2 8/8/2
f 11/7/2 10/6/2 9/5/2
f 10/6/2 11/7/2 12/8/2
f 15/6/3 14/7/3 13/8/3
f 14/7/3 15/6/3 16/5/3
f 17/11/4 15/10/4 13/9/4
f 15/10/4 17/11/4 18/12/4
f 21/15/4 20/14/4 19/13/4
f 20/14/4 21/15/4 22/16/4
f 25/19/4 24/18/4 23/17/4
f 24/18/4 25/19/4 26/20/4
f 24/6/3 27/7/3 23/8/3
f 27/7/3 24/6/3 28/5/3
f 31/23/5 30/22/5 29/21/5
f 30/22/5 31/23/5 32/24/5
f 34/7/2 17/6/2 33/5/2
f 17/6/2 34/7/2 18/8/2
f 3/26/3 35/8/3 4/25/3
f 35/8/3 3/26/3 36/6/3
f 38/29/6 37/28/6 22/27/6
f 37/28/6 38/29/6 39/30/6
f 1/26/6 15/31/6 3/25/6
f 15/31/6 1/26/6 40/5/6
f 15/31/6 40/5/6 16/32/6
f 36/8/6 3/25/6 15/31/6
f 7/35/6 20/34/6 8/33/6
f 20/34/6 7/35/6 41/36/6
f 44/39/6 43/38/6 42/37/6
f 43/38/6 44/39/6 45/40/6
f 48/43/6 47/42/6 46/41/6
f 47/42/6 48/43/6 49/44/6
f 11/47/6 31/46/6 12/45/6
f 31/46/6 11/47/6 32/48/6
f 51/51/6 50/50/6 26/49/6
f 50/50/6 51/51/6 52/52/6
f 34/55/6 24/54/6 18/53/6
f 24/54/6 34/55/6 28/56/6
f 20/6/3 53/7/3 19/8/3
f 53/7/3 20/6/3 41/5/3
f 40/7/2 2/26/2 54/5/2
f 2/26/2 40/7/2 1/25/2
f 55/59/4 31/58/4 29/57/4
f 31/58/4 55/59/4 46/60/4
f 47/6/3 57/7/3 56/8/3
f 57/7/3 47/6/3 49/5/3
f 48/7/2 55/6/2 58/5/2
f 55/6/2 48/7/2 46/8/2
f 6/63/4 43/62/4 59/61/4
f 43/62/4 6/63/4 8/64/4
f 51/7/2 25/6/2 60/5/2
f 25/6/2 51/7/2 26/8/2
f 44/7/2 62/6/2 61/5/2
f 62/6/2 44/7/2 42/8/2
f 38/7/2 21/6/2 63/5/2
f 21/6/2 38/7/2 22/8/2
f 35/2/4 37/66/4 64/65/4
f 37/66/4 35/2/4 36/1/4
f 10/69/4 50/68/4 65/67/4
f 50/68/4 10/69/4 12/70/4
f 37/73/5 66/72/5 64/71/5
f 66/72/5 37/73/5 39/74/5
f 43/77/5 67/76/5 59/75/5
f 67/76/5 43/77/5 45/78/5
f 62/81/4 47/80/4 56/79/4
f 47/80/4 62/81/4 42/82/4
f 50/6/3 68/7/3 65/8/3
f 68/7/3 50/6/3 52/5/3
f 35/6/7 2/25/7 4/26/7
f 2/25/7 35/6/7 13/83/7
f 2/25/7 13/83/7 54/7/7
f 54/7/7 13/83/7 14/84/7
f 27/86/7 17/27/7 23/85/7
f 17/27/7 27/86/7 33/29/7
f 68/88/7 25/33/7 65/87/7
f 25/33/7 68/88/7 60/35/7
f 30/90/7 10/37/7 29/89/7
f 10/37/7 30/90/7 9/39/7
f 57/92/7 55/41/7 56/91/7
f 55/41/7 57/92/7 58/43/7
f 67/94/7 62/45/7 59/93/7
f 62/45/7 67/94/7 61/47/7
f 53/96/7 6/49/7 19/95/7
f 6/49/7 53/96/7 5/51/7
f 66/98/7 21/53/7 64/97/7
f 21/53/7 66/98/7 63/55/7

usemtl snow

f 27/17/4 34/12/4 33/11/4
f 34/12/4 27/17/4 28/18/4
f 14/9/4 40/3/4 54/4/4
f 40/3/4 14/9/4 16/10/4
f 30/57/4 11/70/4 9/69/4
f 11/70/4 30/57/4 32/58/4
f 53/13/4 7/64/4 5/63/4
f 7/64/4 53/13/4 41/14/4
f 57/79/4 48/60/4 58/59/4
f 48/60/4 57/79/4 49/80/4
f 67/61/4 44/82/4 61/81/4
f 44/82/4 67/61/4 45/62/4
f 66/65/4 38/16/4 63/15/4
f 38/16/4 66/65/4 39/66/4
f 68/67/4 51/20/4 60/19/4
f 51/20/4 68/67/4 52/68/4

