# Created by Kenney (www.kenney.nl)

mtllib cabinSide.mtl

g cabinSide

v 0.5 0.506667 0.0551
v 0.5 0.506667 0.0351
v 0.166667 0.506667 0.0551
v 0.166667 0.506667 0.0351
v 0.5 0.38 0.0551
v 0.5 0.38 0.0351
v 0 0.38 0.0551
v 0 0.38 0.0351
v 0.5 0.76 0.0351
v 0.5 0.633333 0.0351
v 0.5 0.633333 0.0551
v 0.5 0.126667 0.0351
v 0.5 0 -0.0351
v 0.5 0.76 -0.0351
v 0.5 0 0.0551
v 0.5 0.253333 0.0351
v 0.5 0.253333 0.0551
v 0.5 0.126667 0.0551
v -0.166667 0.253333 0.0551
v 0.333333 0.633333 0.0351
v -0.5 0 0.0551
v -0.5 0 -0.0351
v -0.166667 0.253333 0.0351
v -0.333333 0.126667 0.0351
v -0.333333 0.126667 0.0551
v 0.333333 0.633333 0.0551

vn 0 -1 0
vn 1 0 0
vn 0 0.1559622 0.987763
vn 0 0.1559634 0.9877629
vn -0.6050832 0.7961622 0
vn 0 0 -1

vt 19.68504 2.169291
vt 19.68504 1.38189
vt 6.561693 2.169291
vt 6.561693 1.38189
vt 0 2.169291
vt 0 1.38189
vt -1.38189 29.92126
vt -1.38189 24.93437
vt -2.169291 24.93437
vt -1.38189 4.98689
vt 1.38189 0
vt 1.38189 29.92126
vt -2.169291 0
vt -1.38189 19.94752
vt -2.169291 19.94752
vt -1.38189 14.96063
vt -2.169291 14.96063
vt -1.38189 9.973741
vt -2.169291 9.973741
vt -2.169291 4.98689
vt 19.68504 9.513365
vt -6.561693 9.513365
vt 19.68504 14.56203
vt 0 14.56203
vt 19.68504 19.36509
vt 6.561693 19.36509
vt 19.68504 24.41372
vt 13.12335 24.41372
vt 19.68504 -1.38189
vt -19.68504 2.169291
vt -19.68504 -1.38189
vt -1.38189 33.77734
vt 1.381889 33.77734
vt -1.381889 -15.67248
vt 1.38189 25.53568
vt 1.38189 17.29408
vt 1.38189 9.052426
vt 1.38189 0.8107712
vt 1.38189 -7.430829
vt 2.169292 -15.67248
vt 2.169291 -7.430829
vt 2.169291 0.8107713
vt 2.169291 9.052426
vt 2.169291 17.29408
vt 2.169291 25.53568
vt 19.68504 -0.3383274
vt -19.68504 -0.3383274
vt 19.68504 4.710343
vt -13.12335 4.710343
vt -6.561693 2.169291
vt -6.561693 1.38189
vt 19.68504 0
vt -19.68504 0
vt -19.68504 29.92126
vt 13.12335 2.169291
vt 13.12335 1.38189
vt 19.68504 4.587534
vt -13.12335 4.587534
vt 19.68504 9.636166
vt -6.561693 9.636166
vt 19.68504 14.43923
vt 0 14.43923
vt 19.68504 19.4879
vt 6.561693 19.4879
vt -13.12335 2.169291
vt -13.12335 1.38189
vt 19.68504 24.29092
vt 13.12335 24.29092
vt 19.68504 29.33959

usemtl woodDark

f 3/3/1 2/2/1 1/1/1
f 2/2/1 3/3/1 4/4/1
f 7/5/1 6/2/1 5/1/1
f 6/2/1 7/5/1 8/6/1
f 11/9/2 10/8/2 9/7/2
f 12/10/2 9/7/2 10/8/2
f 13/11/2 9/7/2 12/10/2
f 9/7/2 13/11/2 14/12/2
f 13/11/2 12/10/2 15/13/2
f 12/10/2 10/8/2 2/14/2
f 1/15/2 2/14/2 10/8/2
f 12/10/2 2/14/2 6/16/2
f 5/17/2 6/16/2 2/14/2
f 12/10/2 6/16/2 16/18/2
f 17/19/2 16/18/2 6/16/2
f 18/20/2 12/10/2 16/18/2
f 6/23/3 19/22/3 17/21/3
f 19/22/3 6/23/3 8/24/3
f 10/27/4 3/26/4 1/25/4
f 3/26/4 10/27/4 20/28/4
f 21/30/1 13/29/1 15/1/1
f 13/29/1 21/30/1 22/31/1
f 22/34/5 9/33/5 14/32/5
f 9/33/5 22/34/5 20/35/5
f 20/35/5 22/34/5 4/36/5
f 4/36/5 22/34/5 8/37/5
f 8/37/5 22/34/5 23/38/5
f 23/38/5 22/34/5 24/39/5
f 24/39/5 22/34/5 21/40/5
f 25/41/5 23/38/5 24/39/5
f 19/42/5 8/37/5 23/38/5
f 7/43/5 4/36/5 8/37/5
f 3/44/5 20/35/5 4/36/5
f 26/45/5 9/33/5 20/35/5
f 12/48/3 21/47/3 15/46/3
f 21/47/3 12/48/3 24/49/3
f 19/50/1 16/2/1 17/1/1
f 16/2/1 19/50/1 23/51/1
f 14/54/6 13/53/6 22/52/6
f 26/55/1 10/2/1 11/1/1
f 10/2/1 26/55/1 20/56/1
f 16/59/4 25/58/4 18/57/4
f 25/58/4 16/59/4 23/60/4
f 2/63/3 7/62/3 5/61/3
f 7/62/3 2/63/3 4/64/3
f 25/65/1 12/2/1 18/1/1
f 12/2/1 25/65/1 24/66/1
f 9/69/3 26/68/3 11/67/3

