# Created by Kenney (www.kenney.nl)

mtllib cabinRoofCorner.mtl

g cabinRoofCorner

v 0.5702 0.7714437 -0.4100002
v 0.5702 0.7368187 -0.3493242
v 0.509524 0.7368187 -0.3493242
v 0.5702 0.5937727 -0.1986482
v 0.5702 0.5077907 -0.04797116
v 0.358848 0.5937727 -0.1986482
v 0.208171 0.5077907 -0.04797116
v 0.5702 0.1357177 0.4040568
v 0.5702 0.04973572 0.5547338
v -0.243857 0.1357177 0.4040568
v -0.394534 0.04973572 0.5547338
v -0.093181 0.2502317 -0.4100002
v -0.093181 0.2502317 0.2533808
v -0.243857 0.1642497 -0.4100002
v -0.243857 0.1642497 0.4040568
v 0.5702 0.4792587 -0.04797116
v 0.5702 0.3932777 0.1027048
v 0.208171 0.4792587 -0.04797116
v 0.057495 0.3932777 0.1027048
v 0.5702 0.3647457 0.1027048
v 0.5702 0.2787637 0.2533808
v 0.057495 0.3647457 0.1027048
v -0.093181 0.2787637 0.2533808
v 0.5702 0.02120372 0.5547338
v 0.5702 -0.06477828 0.7054098
v -0.394534 0.02120372 0.5547338
v -0.54521 -0.06477828 0.7054098
v 0.5702 0.7082867 -0.3493242
v 0.5702 0.6223047 -0.1986482
v 0.509524 0.7082867 -0.3493242
v 0.358848 0.6223047 -0.1986482
v -0.243857 0.1357177 -0.4100002
v -0.394534 0.04973572 -0.4100002
v 0.5702 0.2502317 0.2533808
v 0.5702 0.1642497 0.4040568
v 0.509524 0.7082867 -0.4100002
v 0.358848 0.6223047 -0.4100002
v 0.358848 0.5937727 -0.4100002
v 0.208171 0.5077907 -0.4100002
v 0.208171 0.4792587 -0.4100002
v 0.057495 0.3932777 -0.4100002
v 0.057495 0.3647457 -0.4100002
v -0.093181 0.2787637 -0.4100002
v -0.394534 0.02120372 -0.4100002
v -0.54521 -0.06477828 -0.4100002
v 0.509524 0.7368187 -0.4100002
v 0.5702 -0.1331183 0.6751558
v -0.514956 -0.1331183 0.6751558
v 0.5702 -0.09331028 0.7054098
v -0.54521 -0.09331028 0.7054098
v -0.514956 -0.1331183 -0.4100002
v 0.5702 0.6915997 -0.4100002
v -0.54521 -0.09331028 -0.4100002

vn 0 0.8685328 0.4956317
vn 0 0.8685389 0.4956212
vn -0.4956236 0.8685374 0
vn 0 0.8685399 0.4956192
vn 0 0.8685374 0.4956236
vn -0.4956212 0.8685389 0
vn -0.4956192 0.8685399 0
vn -0.4956317 0.8685328 0
vn 0 -0.6050823 0.796163
vn 0 0 1
vn -1 0 0
vn 0 -1 0
vn 0.51769 -0.6811714 -0.5176899
vn -0.796163 -0.6050823 0
vn 0 0 -1
vn 1 0 0

vt 22.44882 29.07286
vt 22.44882 26.32245
vt 20.06 26.32245
vt 22.44882 18.37874
vt 22.44882 11.54869
vt 14.12787 18.37874
vt 8.195708 11.54869
vt 22.44882 -11.16829
vt 22.44882 -17.99834
vt -9.600669 -11.16829
vt -15.53284 -17.99834
vt -16.14174 1.69644
vt 9.975623 1.69644
vt -16.14174 -5.133578
vt 15.90775 -5.133578
vt 22.44882 10.99192
vt 22.44882 4.16192
vt 8.195708 10.99192
vt 2.263583 4.16192
vt 22.44882 3.60526
vt 22.44882 -3.224758
vt 2.263583 3.60526
vt -3.668543 -3.224758
vt 22.44882 -18.55504
vt 22.44882 -25.38506
vt -15.53284 -18.55504
vt -21.46496 -25.38506
vt 22.44882 25.76554
vt 22.44882 18.93552
vt 20.06 25.76554
vt 14.12787 18.93552
vt -16.14174 -5.690342
vt 15.90775 -5.690342
vt -16.14174 -12.52039
vt 21.83991 -12.52039
vt 22.44882 -3.781496
vt 22.44882 -10.61151
vt -3.668543 -3.781496
vt -9.600669 -10.61151
vt -16.14174 31.24347
vt -13.75292 31.24347
vt -16.14174 24.41346
vt -7.820794 24.41346
vt -16.14174 23.85668
vt -7.820794 23.85668
vt -16.14174 17.02663
vt -1.888628 17.02663
vt -16.14174 16.46987
vt -1.888628 16.46987
vt -16.14174 9.639871
vt 4.043498 9.639871
vt -16.14174 9.083195
vt 4.043498 9.083195
vt -16.14174 2.253177
vt 9.975623 2.253177
vt -16.14174 -13.07711
vt 21.83991 -13.07711
vt -16.14174 -19.90712
vt 27.77204 -19.90712
vt -16.14174 31.80035
vt -16.14174 34.55076
vt -13.75292 31.80035
vt 22.44882 11.91106
vt -20.27386 11.91106
vt 22.44882 13.87956
vt -21.46496 13.87956
vt 22.44882 18.86845
vt 8.195708 18.86845
vt 22.44882 19.99176
vt 8.195708 19.99176
vt -16.14174 5.343217
vt -16.14174 6.466524
vt 15.90775 5.343217
vt 15.90775 6.466524
vt 22.44882 -3.673633
vt -21.46496 -3.673633
vt 22.44882 -2.550326
vt -21.46496 -2.550326
vt -16.14174 9.851643
vt -16.14174 10.97495
vt 9.975623 9.851643
vt 9.975623 10.97495
vt -20.27386 26.58094
vt 22.44882 26.58094
vt -20.27386 -16.14174
vt -34.66927 -5.82725
vt -4.459775 38.52208
vt 25.74972 -5.827255
vt 22.44882 5.343217
vt -9.600669 5.343217
vt 22.44882 6.466524
vt -9.600669 6.466524
vt 22.44882 23.37688
vt 14.12787 23.37688
vt 22.44882 24.50019
vt 14.12787 24.50019
vt 22.44882 0.834792
vt -15.53284 0.834792
vt 22.44882 1.958099
vt -15.53284 1.958099
vt -16.14174 0.834792
vt -16.14174 1.958099
vt 21.83991 0.834792
vt 21.83991 1.958099
vt -16.14174 18.86845
vt -16.14174 19.99176
vt -1.888628 18.86845
vt -1.888628 19.99176
vt -16.14174 8.09476
vt -16.14174 10.06326
vt 26.58094 8.09476
vt 27.77204 10.06326
vt -16.14174 27.8853
vt -16.14174 29.00861
vt -13.75292 27.8853
vt -13.75292 29.00861
vt 20.27386 -5.240877
vt -22.44882 27.22833
vt 21.46496 -3.673633
vt 15.53284 0.834792
vt 21.46496 -2.550326
vt 9.600669 5.343217
vt 15.53284 1.958099
vt 3.668543 9.851643
vt 9.600669 6.466524
vt -2.263583 14.36007
vt 3.668543 10.97495
vt -8.195708 18.86845
vt -2.263583 15.48337
vt -8.195708 19.99176
vt -14.12787 23.37688
vt -14.12787 24.50019
vt -20.06 27.8853
vt -22.44882 30.3718
vt -20.06 29.00861
vt -16.14174 14.36007
vt -16.14174 15.48337
vt 4.043498 14.36007
vt 4.043498 15.48337
vt 22.44882 14.36007
vt 2.263583 14.36007
vt 22.44882 15.48337
vt 2.263583 15.48337
vt -16.14174 23.37688
vt -16.14174 24.50019
vt -7.820794 23.37688
vt -7.820794 24.50019
vt 22.44882 27.8853
vt 20.06 27.8853
vt 22.44882 29.00861
vt 20.06 29.00861
vt 22.44882 9.851643
vt -3.668543 9.851643
vt 22.44882 10.97495
vt -3.668543 10.97495
vt 16.14174 30.3718
vt 16.14174 27.22833
vt 13.75292 29.00861
vt 13.75292 27.8853
vt -26.58094 -5.240877
vt 7.820794 23.37688
vt 7.820794 24.50019
vt 1.888628 18.86845
vt 1.888628 19.99176
vt -4.043498 14.36007
vt -4.043498 15.48337
vt -9.975623 9.851643
vt -9.975623 10.97495
vt -15.90775 5.343217
vt -15.90775 6.466524
vt -21.83991 0.834792
vt -21.83991 1.958099
vt -27.77204 -2.550326
vt -27.77204 -3.673633
vt -16.14174 -3.673633
vt -16.14174 -2.550326
vt 27.77204 -3.673633
vt 27.77204 -2.550326

usemtl snow

f 3/3/1 2/2/1 1/1/1
f 6/6/2 5/5/2 4/4/2
f 5/5/2 6/6/2 7/7/2
f 10/10/2 9/9/2 8/8/2
f 9/9/2 10/10/2 11/11/2
f 14/14/3 13/13/3 12/12/3
f 13/13/3 14/14/3 15/15/3
f 18/18/4 17/17/4 16/16/4
f 17/17/4 18/18/4 19/19/4
f 22/22/5 21/21/5 20/20/5
f 21/21/5 22/22/5 23/23/5
f 26/26/5 25/25/5 24/24/5
f 25/25/5 26/26/5 27/27/5
f 30/30/5 29/29/5 28/28/5
f 29/29/5 30/30/5 31/31/5
f 33/34/6 10/33/6 32/32/6
f 10/33/6 33/34/6 11/35/6
f 13/38/5 35/37/5 34/36/5
f 35/37/5 13/38/5 15/39/5
f 37/42/3 30/41/3 36/40/3
f 30/41/3 37/42/3 31/43/3
f 39/46/6 6/45/6 38/44/6
f 6/45/6 39/46/6 7/47/6
f 41/50/7 18/49/7 40/48/7
f 18/49/7 41/50/7 19/51/7
f 43/54/3 22/53/3 42/52/3
f 22/53/3 43/54/3 23/55/3
f 45/58/3 26/57/3 44/56/3
f 26/57/3 45/58/3 27/59/3
f 3/62/8 1/61/8 46/60/8

usemtl wood

f 49/65/9 48/64/9 47/63/9
f 48/64/9 49/65/9 50/66/9
f 5/69/10 18/68/10 16/67/10
f 18/68/10 5/69/10 7/70/10
f 10/73/11 14/72/11 32/71/11
f 14/72/11 10/73/11 15/74/11
f 25/77/10 50/76/10 49/75/10
f 50/76/10 25/77/10 27/78/10
f 13/81/11 43/80/11 12/79/11
f 43/80/11 13/81/11 23/82/11
f 51/85/12 47/84/12 48/83/12
f 51/88/13 52/87/13 47/86/13
f 35/91/10 10/90/10 8/89/10
f 10/90/10 35/91/10 15/92/10
f 29/95/10 6/94/10 4/93/10
f 6/94/10 29/95/10 31/96/10
f 9/99/10 26/98/10 24/97/10
f 26/98/10 9/99/10 11/100/10
f 26/103/11 33/102/11 44/101/11
f 33/102/11 26/103/11 11/104/11
f 18/107/11 39/106/11 40/105/11
f 39/106/11 18/107/11 7/108/11
f 48/111/14 53/110/14 51/109/14
f 53/110/14 48/111/14 50/112/14
f 30/115/11 46/114/11 36/113/11
f 46/114/11 30/115/11 3/116/11
f 53/119/15 52/118/15 51/117/15
f 52/118/15 53/119/15 44/120/15
f 44/120/15 53/119/15 45/121/15
f 52/118/15 44/120/15 32/122/15
f 32/122/15 44/120/15 33/123/15
f 52/118/15 32/122/15 12/124/15
f 12/124/15 32/122/15 14/125/15
f 52/118/15 12/124/15 42/126/15
f 42/126/15 12/124/15 43/127/15
f 52/118/15 42/126/15 40/128/15
f 40/128/15 42/126/15 41/129/15
f 52/118/15 40/128/15 39/130/15
f 52/118/15 39/130/15 38/131/15
f 52/118/15 38/131/15 37/132/15
f 52/118/15 37/132/15 36/133/15
f 52/118/15 36/133/15 1/134/15
f 1/134/15 36/133/15 46/135/15
f 22/138/11 41/137/11 42/136/11
f 41/137/11 22/138/11 19/139/11
f 17/142/10 22/141/10 20/140/10
f 22/141/10 17/142/10 19/143/10
f 6/146/11 37/145/11 38/144/11
f 37/145/11 6/146/11 31/147/11
f 2/150/10 30/149/10 28/148/10
f 30/149/10 2/150/10 3/151/10
f 21/154/10 13/153/10 34/152/10
f 13/153/10 21/154/10 23/155/10
f 2/158/16 52/157/16 1/156/16
f 52/157/16 2/158/16 28/159/16
f 52/157/16 28/159/16 47/160/16
f 47/160/16 28/159/16 4/161/16
f 4/161/16 28/159/16 29/162/16
f 47/160/16 4/161/16 16/163/16
f 16/163/16 4/161/16 5/164/16
f 47/160/16 16/163/16 20/165/16
f 20/165/16 16/163/16 17/166/16
f 47/160/16 20/165/16 34/167/16
f 34/167/16 20/165/16 21/168/16
f 47/160/16 34/167/16 8/169/16
f 8/169/16 34/167/16 35/170/16
f 47/160/16 8/169/16 24/171/16
f 24/171/16 8/169/16 9/172/16
f 47/160/16 24/171/16 25/173/16
f 47/160/16 25/173/16 49/174/16
f 50/177/11 45/176/11 53/175/11
f 45/176/11 50/177/11 27/178/11

