# Created by Kenney (www.kenney.nl)

mtllib candyCaneMint.mtl

g candyCaneMint

v 0.029247 0.181044 -0.01995
v 0.029247 0.18385 -0.01995
v 0.029247 0.18073 0.01995
v 0.029247 0.18385 0.01995
v 0.069147 0.042519 -0.01995
v 0.069147 0 -0.01995
v 0.069147 0.042206 0.01995
v 0.069147 0 0.01995
v 0.066832 0.202411 -0.01995
v 0.06859799 0.193534 -0.01995
v 0.066832 0.202411 0.01995
v 0.06859799 0.193534 0.01995
v 0.029247 0 0.01995
v 0.029247 0 -0.01995
v 0.020651 0.205153 0.01995
v 0.020651 0.205153 -0.01995
v 0.017985 0.207491 0.01995
v 0.017778 0.207672 -0.01995
v 0.017778 0.207672 0.01995
v 0.068673 0.192383 -0.01995
v 0.028955 0.188315 -0.01995
v 0.028209 0.192061 -0.01995
v 0.026981 0.195679 -0.01995
v 0.025292 0.199105 -0.01995
v 0.023169 0.202281 -0.01995
v 0.063923 0.210981 -0.01995
v 0.017702 0.207723 -0.01995
v 0.05949 0.219742 -0.01995
v 0.05992 0.219098 -0.01995
v 0.029247 0.121044 -0.01995
v 0.069147 0.132519 -0.01995
v 0.029247 0.151044 -0.01995
v 0.069147 0.162519 -0.01995
v 0.028209 0.192061 0.01995
v 0.026981 0.195679 0.01995
v 0.029247 0.061044 -0.01995
v 0.069147 0.072519 -0.01995
v 0.029247 0.091044 -0.01995
v 0.069147 0.102519 -0.01995
v -0.029247 0.182745 -0.01995
v -0.029247 0.18385 -0.01995
v -0.069147 0.182745 -0.01995
v -0.028955 0.188315 -0.01995
v -0.028209 0.192061 -0.01995
v -0.027285 0.194785 -0.01995
v -0.062046 0.214787 -0.01995
v 0.036522 0.243136 -0.01995
v -0.05992 0.219098 -0.01995
v -0.054892 0.226623 -0.01995
v -0.048925 0.233428 -0.01995
v -0.04212 0.239395 -0.01995
v -0.034595 0.244423 -0.01995
v 0.034595 0.244423 -0.01995
v -0.026478 0.248426 -0.01995
v 0.026478 0.248426 -0.01995
v -0.017908 0.251335 -0.01995
v 0.017908 0.251335 -0.01995
v -0.009031 0.253101 -0.01995
v 0.009031 0.253101 -0.01995
v 0 0.253693 -0.01995
v 0.025292 0.199105 0.01995
v 0.023169 0.202281 0.01995
v 0.028955 0.188315 0.01995
v 0.029247 0.12073 0.01995
v 0.029247 0.15073 0.01995
v -0.029247 0.182745 0.01995
v -0.068057 0.182745 0.01995
v -0.029247 0.18385 0.01995
v -0.028955 0.188315 0.01995
v -0.028209 0.192061 0.01995
v -0.027403 0.194437 0.01995
v 0.029247 0.06073 0.01995
v 0.029247 0.09073 0.01995
v 0.069147 0.072206 0.01995
v 0.069147 0.072519 0.01995
v 0.069147 0.102206 0.01995
v -0.069147 0.182745 0.01995
v 0.034595 0.244423 0.01995
v 0.026478 0.248426 0.01995
v -0.04212 0.239395 0.01995
v -0.048925 0.233428 0.01995
v -0.009031 0.253101 0.01995
v -0.017908 0.251335 0.01995
v -0.054892 0.226623 0.01995
v -0.026478 0.248426 0.01995
v -0.034595 0.244423 0.01995
v 0.017908 0.251335 0.01995
v -0.062226 0.214421 0.01995
v -0.05992 0.219098 0.01995
v 0.03685 0.242917 0.01995
v 0.009031 0.253101 0.01995
v 0 0.253693 0.01995
v 0.05992 0.219098 0.01995
v 0.063923 0.210981 0.01995
v 0.068694 0.192075 0.01995
v 0.059666 0.219479 0.01995
v 0.029247 0.031044 -0.01995
v 0.029247 0.03073 0.01995
v 0.069147 0.162206 0.01995
v 0.069147 0.132519 0.01995
v 0.069147 0.132206 0.01995
v 0.069147 0.185156 -0.01995
v 0.069147 0.185156 0.01995
v -0.069147 0.185156 -0.01995
v -0.06859799 0.193534 -0.01995
v -0.066832 0.202411 -0.01995
v -0.026981 0.195679 -0.01995
v -0.025292 0.199105 -0.01995
v -0.023169 0.202281 -0.01995
v -0.020651 0.205153 -0.01995
v -0.063923 0.210981 -0.01995
v -0.017778 0.207672 -0.01995
v -0.014602 0.209795 -0.01995
v -0.011176 0.211484 -0.01995
v -0.007559 0.212712 -0.01995
v -0.003812 0.213457 -0.01995
v 0 0.213707 -0.01995
v 0.003812 0.213457 -0.01995
v 0.007559 0.212712 -0.01995
v 0.011176 0.211484 -0.01995
v 0.014602 0.209795 -0.01995
v 0.054892 0.226623 -0.01995
v 0.048925 0.233428 -0.01995
v 0.04212 0.239395 -0.01995
v 0.048925 0.233428 0.01995
v 0.054892 0.226623 0.01995
v -0.025292 0.199105 0.01995
v -0.026981 0.195679 0.01995
v -0.069147 0.185156 0.01995
v -0.017778 0.207672 0.01995
v -0.020651 0.205153 0.01995
v -0.066832 0.202411 0.01995
v -0.063923 0.210981 0.01995
v 0.014602 0.209795 0.01995
v 0.011176 0.211484 0.01995
v -0.003812 0.213457 0.01995
v -0.007559 0.212712 0.01995
v -0.023169 0.202281 0.01995
v 0.04212 0.239395 0.01995
v 0.007559 0.212712 0.01995
v -0.06859799 0.193534 0.01995
v -0.014602 0.209795 0.01995
v 0.003812 0.213457 0.01995
v 0 0.213707 0.01995
v -0.011176 0.211484 0.01995

vn -1 0 0
vn -0.999467 -0.03264647 0
vn 1 0 0
vn 0.965924 0.2588262 0
vn 0.9914424 0.130545 -5.07154E-06
vn 0 -1 0
vn -0.7071325 -0.707081 2.417296E-06
vn -0.6593004 -0.7518796 4.824211E-06
vn -0.6582471 -0.7528019 0
vn 0 0 -1
vn -0.9659015 -0.2589101 0
vn -0.9239097 -0.3826108 0
vn -0.8660086 -0.500029 0
vn -0.7933366 -0.6087833 0
vn -0.9914397 -0.1305654 0
vn 0 0 1
vn 0.999467 -0.03264647 0
vn 0.4999109 0.8660768 -3.052758E-07
vn 0.3826839 0.9238794 0
vn -0.6087326 0.7933755 0
vn -0.7071068 0.7071068 0
vn 0.946999 -0.3212363 -5.558662E-07
vn 0.9659245 -0.2588239 -2.785255E-07
vn -0.1305441 0.9914425 0
vn -0.2588262 0.965924 0
vn -0.7933755 0.6087326 0
vn -0.3826839 0.9238794 0
vn -0.5000042 0.866023 0
vn 0.2588262 0.965924 0
vn 0.9914397 -0.1305654 0
vn 0.8661508 0.4997828 -2.428487E-06
vn 0.9238794 0.3826839 0
vn 0.1305441 0.9914425 0
vn 0 1 0
vn -0.8660356 0.4999824 2.672303E-06
vn -0.896889 0.4422557 5.333158E-06
vn 0.9978582 0.06541345 -1.012136E-05
vn 0.5553877 0.8315915 -6.092491E-07
vn 0.8317558 0.5551416 -4.846658E-06
vn 0.9994648 0.03271346 -5.105187E-06
vn 0.7071068 0.7071068 0
vn 0.7933622 0.6087499 -1.326214E-06
vn 0.8660086 -0.500029 0
vn 0.9238319 -0.3827983 -1.626773E-06
vn -0.9994648 0.03271177 0
vn 0.608793 -0.7933292 0
vn 0.7071154 -0.7070982 0
vn -0.965924 0.2588262 0
vn -0.9238683 0.3827104 2.948834E-06
vn -0.500029 -0.8660086 0
vn -0.50001 -0.8660197 0
vn -0.3826497 -0.9238936 0
vn -0.5557267 -0.831365 0
vn -0.5571284 -0.8304264 -0.000161516
vn -0.5565001 -0.8308475 -9.108357E-05
vn 0.1305041 -0.9914478 0
vn 0.2588021 -0.9659304 0
vn 0.7933366 -0.6087833 0
vn 0.6087652 0.7933504 -1.0424E-06
vn 0.5556352 0.8314262 -2.080346E-06
vn -0.2588021 -0.9659304 0
vn 0.9468112 -0.3217897 -3.246633E-06
vn -0.9914441 0.1305327 0
vn 0.500029 -0.8660086 0
vn -0.1305041 -0.9914478 0
vn 0.8314478 0.555603 -2.646758E-06
vn 0.3826497 -0.9238936 0

vt -0.7854331 7.127717
vt -0.7854331 7.238189
vt 0.7854331 7.115355
vt 0.7854331 7.238189
vt 0.7854331 1.673976
vt 0.7854331 0
vt -0.7854331 1.661654
vt -0.7854331 0
vt 0.7854331 7.302384
vt 0.7854331 6.946047
vt -0.7854331 7.302384
vt -0.7854331 6.946047
vt 2.722323 0.7854331
vt 2.722323 -0.7854331
vt 1.151457 0.7854331
vt 1.151457 -0.7854331
vt 0.785439 4.713799
vt -0.7854271 4.71379
vt 0.7854382 4.853404
vt -0.7854279 4.864221
vt 0.7854331 4.854968
vt 0.7854331 4.844142
vt -0.7854331 4.854968
vt -1.151457 7.127717
vt -2.703661 7.574134
vt -1.151457 7.238189
vt -1.139961 7.413976
vt -1.110591 7.561457
vt -1.062244 7.703897
vt -2.700709 7.619449
vt -2.631181 7.968937
vt -0.995748 7.838779
vt -0.9121653 7.963819
vt -0.8130315 8.07689
vt -2.516654 8.306338
vt -0.6999213 8.176063
vt -0.6969292 8.178071
vt -2.342126 8.651259
vt -2.359055 8.625905
vt -1.151457 4.765512
vt -2.722323 5.217283
vt -1.151457 5.946614
vt -2.722323 6.398386
vt -0.7854331 6.803309
vt -0.7854331 6.953731
vt 0.7854331 6.803309
vt 0.7854331 6.953731
vt -1.151457 2.403307
vt -2.722323 2.855079
vt -1.151457 3.584409
vt -2.722323 4.036181
vt 1.151457 7.194685
vt 1.151457 7.238189
vt 2.722323 7.194685
vt 1.139961 7.413976
vt 1.110591 7.561457
vt 1.074213 7.668701
vt 2.442756 8.456182
vt -1.437874 9.572284
vt 2.359055 8.625905
vt 2.161102 8.922165
vt 1.926181 9.190079
vt 1.658268 9.425
vt 1.362008 9.622952
vt -1.362008 9.622952
vt 1.042441 9.780551
vt -1.042441 9.780551
vt 0.7050394 9.895079
vt -0.7050394 9.895079
vt 0.3555512 9.964606
vt -0.3555512 9.964606
vt 0 9.987913
vt -0.7854331 5.963523
vt -0.7854331 6.113926
vt 0.7854331 5.963523
vt 0.7854331 6.113926
vt -0.7854331 7.048548
vt -0.7854331 7.198924
vt 0.7854331 7.048548
vt 0.7854331 7.198924
vt -0.7854331 4.765512
vt -0.7854331 5.946614
vt 0.7854331 4.75315
vt 0.7854331 5.934252
vt -1.151457 7.194685
vt -2.67941 7.194685
vt -1.078858 7.655
vt 1.151457 2.390945
vt 1.151457 3.572047
vt 2.722323 2.842756
vt 2.722323 2.855079
vt 2.722323 4.023858
vt 0.7854331 7.194685
vt -0.7854331 7.194685
vt -1.151457 0.7854331
vt -1.151457 -0.7854331
vt -2.67941 0.7854331
vt -2.722323 -0.7854331
vt -2.722323 0.7854331
vt 0.7854331 4.036181
vt 0.7854331 2.855079
vt -0.7854331 4.023858
vt -0.7854331 2.855079
vt 0.7854331 3.034702
vt -0.7854331 3.034702
vt 0.7854331 3.391017
vt -0.7854331 3.391017
vt -0.7854331 4.967022
vt 0.7854331 4.967022
vt -0.7854331 4.6107
vt 0.7854331 4.6107
vt 0.7854337 6.917176
vt 0.7854337 6.80393
vt -0.7854325 6.902709
vt -0.7854324 6.80393
vt -0.7854331 1.595551
vt 0.7854331 1.595551
vt -0.7854331 1.239214
vt 0.7854331 1.239214
vt -0.7854331 5.28364
vt -0.7854331 5.639962
vt 0.7854331 5.28364
vt 0.7854331 5.639962
vt 0.7854331 2.156613
vt -0.7854331 2.156613
vt 0.7854331 2.512922
vt -0.7854331 2.512922
vt -2.449842 8.441772
vt 1.450787 9.563662
vt -2.161102 8.922165
vt -1.926181 9.190079
vt -1.658268 9.425
vt 0.7854331 6.692875
vt 0.7854331 6.33656
vt -0.7854331 6.692875
vt -0.7854331 6.33656
vt 1.151457 7.115355
vt 2.704488 7.562008
vt 1.062244 7.703897
vt 2.700709 7.619449
vt 2.631181 7.968937
vt 0.995748 7.838779
vt 0.9121653 7.963819
vt 0.8130315 8.07689
vt 2.516654 8.306338
vt 0.7080709 8.168937
vt 2.349055 8.640905
vt 0.7854331 0.2970111
vt -0.7854331 0.2970111
vt 0.7854331 0.6533254
vt -0.7854331 0.6533254
vt -0.7854331 5.861585
vt -0.7854331 6.217893
vt 0.7854331 5.861585
vt 0.7854331 6.217893
vt -1.151457 0
vt -2.722323 0
vt -1.151457 1.222205
vt -2.722323 1.673976
vt -0.7854331 5.386874
vt -0.7854331 5.537249
vt 0.7854331 5.386874
vt 0.7854331 5.537249
vt -0.7854331 1.222205
vt 0.7854331 1.209843
vt 0.7854331 6.398386
vt 0.7854331 5.217283
vt -0.7854331 6.386063
vt -0.7854331 5.217283
vt -0.7854331 2.403307
vt -0.7854331 3.584409
vt 0.7854331 2.390945
vt 0.7854331 3.572047
vt -0.7854331 7.147618
vt -0.7854331 7.323781
vt 0.7854331 7.147618
vt 0.7854331 7.323781
vt 0.7854331 7.056635
vt 0.7854331 6.700326
vt -0.7854331 7.056635
vt -0.7854331 6.700326
vt -0.7854476 6.503935
vt -0.7854471 6.693176
vt 0.7854185 6.487873
vt 0.785419 6.693172
vt 1.151457 4.75315
vt 1.151457 5.934252
vt 2.722323 5.204961
vt 2.722323 5.217283
vt 2.722323 6.386063
vt -0.7854331 4.213722
vt 0.7854331 4.213722
vt -0.7854331 3.857415
vt 0.7854331 3.857415
vt -0.7854331 6.440125
vt -0.7854331 6.590508
vt 0.7854331 6.440125
vt 0.7854331 6.590508
vt 0.7854057 7.426466
vt 0.7854056 7.381056
vt -0.7854605 7.426468
vt -0.7854605 7.368903
vt 2.722323 0
vt 1.151457 0
vt 2.722323 1.661654
vt 1.151457 1.209843
vt -0.7854347 4.105078
vt -0.7854345 4.211836
vt 0.7854315 4.120604
vt 0.7854316 4.211835
vt 0.7854194 5.895521
vt 0.7854193 5.865035
vt -0.7854468 5.883068
vt -0.7854468 5.86504
vt 0.7854052 7.095986
vt -0.7854609 7.095987
vt -2.722323 7.289606
vt 2.722323 7.289606
vt 0.6999213 8.176063
vt 0.5748819 8.259645
vt 0.44 8.326141
vt 0.2975984 8.374488
vt 0.1500787 8.403819
vt 5.235114E-33 8.413661
vt -0.1500787 8.403819
vt -0.2975984 8.374488
vt -0.44 8.326141
vt -0.5748819 8.259645
vt -0.7854331 7.289606
vt 0.7854331 7.289606
vt -0.7854331 4.863904
vt 0.7854331 4.863904
vt -0.7854331 4.713474
vt 0.7854331 4.713474
vt 0.7854331 3.136623
vt -0.7854331 3.136623
vt 0.7854331 3.287006
vt -0.7854331 3.287006
vt -0.7854331 2.842756
vt 0.7854331 3.961766
vt -0.7854331 3.961766
vt 0.7854331 4.112169
vt -0.7854331 3.965053
vt -0.7854331 4.111852
vt -0.7856491 3.974869
vt -0.7856481 3.978472
vt 0.7852556 4.124868
vt -0.7854331 1.491619
vt 0.7854331 1.491619
vt -0.7854331 1.341212
vt 0.7854331 1.341212
vt 0.7854269 3.858132
vt -0.7854393 3.858137
vt 0.7854277 4.123209
vt -0.7854385 4.107687
vt -0.7854496 6.336221
vt 0.7854165 6.336216
vt 0.7854331 2.260087
vt -0.7854331 2.260087
vt 0.7854331 2.410472
vt -0.7854331 2.410472
vt 0.7854367 6.952318
vt 0.7854367 6.915142
vt -0.7854294 6.952316
vt -0.7854294 6.900673
vt -0.7854331 7.095997
vt -0.7854331 7.426547
vt 0.7854331 7.095997
vt 0.7854331 7.426547
vt -0.7854331 4.112169
vt 0.7854331 0.4002039
vt -0.7854331 0.4002039
vt 0.7854331 0.5506051
vt -0.7854331 0.5506051
vt 0.7854262 6.217597
vt 0.7854256 5.891777
vt -0.78544 6.2176
vt -0.7854406 5.879321
vt -0.7854331 5.204961
vt 3.198145E-32 8.413661
vt -2.722323 7.194685

usemtl _defaultMat

f 3/3/1 2/2/2 1/1/1
f 2/2/2 3/3/1 4/4/2
f 7/7/3 6/6/3 5/5/3
f 6/6/3 7/7/3 8/8/3
f 11/11/4 10/10/5 9/9/4
f 10/10/5 11/11/4 12/12/5
f 13/15/6 6/14/6 8/13/6
f 6/14/6 13/15/6 14/16/6
f 17/19/8 16/18/7 15/17/7
f 16/18/7 17/19/8 18/20/8
f 18/23/9 17/22/9 19/21/9
f 2/26/10 20/25/10 1/24/10
f 20/25/10 2/26/10 21/27/10
f 20/25/10 21/27/10 22/28/10
f 20/25/10 22/28/10 23/29/10
f 20/25/10 23/29/10 10/30/10
f 10/30/10 23/29/10 9/31/10
f 9/31/10 23/29/10 24/32/10
f 9/31/10 24/32/10 25/33/10
f 9/31/10 25/33/10 16/34/10
f 9/31/10 16/34/10 26/35/10
f 26/35/10 16/34/10 18/36/10
f 26/35/10 18/36/10 27/37/10
f 26/35/10 27/37/10 28/38/10
f 26/35/10 28/38/10 29/39/10
f 32/42/10 31/41/10 30/40/10
f 31/41/10 32/42/10 33/43/10
f 34/46/11 23/45/12 22/44/11
f 23/45/12 34/46/11 35/47/12
f 38/50/10 37/49/10 36/48/10
f 37/49/10 38/50/10 39/51/10
f 42/54/10 41/53/10 40/52/10
f 41/53/10 42/54/10 43/55/10
f 43/55/10 42/54/10 44/56/10
f 44/56/10 42/54/10 45/57/10
f 48/60/10 47/59/10 46/58/10
f 47/59/10 48/60/10 49/61/10
f 47/59/10 49/61/10 50/62/10
f 47/59/10 50/62/10 51/63/10
f 47/59/10 51/63/10 52/64/10
f 47/59/10 52/64/10 53/65/10
f 53/65/10 52/64/10 54/66/10
f 53/65/10 54/66/10 55/67/10
f 55/67/10 54/66/10 56/68/10
f 55/67/10 56/68/10 57/69/10
f 57/69/10 56/68/10 58/70/10
f 57/69/10 58/70/10 59/71/10
f 59/71/10 58/70/10 60/72/10
f 61/75/13 25/74/14 24/73/13
f 25/74/14 61/75/13 62/76/14
f 63/79/15 22/78/11 21/77/15
f 22/78/11 63/79/15 34/80/11
f 64/83/1 32/82/1 30/81/1
f 32/82/1 64/83/1 65/84/1
f 68/26/16 67/86/16 66/85/16
f 67/86/16 68/26/16 69/27/16
f 67/86/16 69/27/16 70/28/16
f 67/86/16 70/28/16 71/87/16
f 74/90/16 73/89/16 72/88/16
f 73/89/16 74/90/16 75/91/16
f 73/89/16 75/91/16 76/92/16
f 68/2/17 40/93/3 41/4/17
f 40/93/3 68/2/17 66/94/3
f 67/97/6 40/96/6 66/95/6
f 40/96/6 67/97/6 42/98/6
f 42/98/6 67/97/6 77/99/6
f 76/102/3 37/101/3 39/100/3
f 37/101/3 76/102/3 75/103/3
f 55/106/19 78/105/18 53/104/18
f 78/105/18 55/106/19 79/107/19
f 50/110/21 80/109/20 51/108/20
f 80/109/20 50/110/21 81/111/21
f 71/114/22 44/113/23 45/112/22
f 44/113/23 71/114/22 70/115/23
f 56/118/25 82/117/24 58/116/24
f 82/117/24 56/118/25 83/119/25
f 84/122/26 50/121/21 49/120/26
f 50/121/21 84/122/26 81/123/21
f 52/105/28 85/106/27 54/107/27
f 85/106/27 52/105/28 86/104/28
f 57/126/29 79/125/19 55/124/19
f 79/125/19 57/126/29 87/127/29
f 90/129/16 89/39/16 88/128/16
f 89/39/16 90/129/16 84/130/16
f 84/130/16 90/129/16 81/131/16
f 81/131/16 90/129/16 80/132/16
f 80/132/16 90/129/16 86/65/16
f 86/65/16 90/129/16 78/64/16
f 86/65/16 78/64/16 79/66/16
f 86/65/16 79/66/16 85/67/16
f 85/67/16 79/66/16 87/68/16
f 85/67/16 87/68/16 83/69/16
f 83/69/16 87/68/16 91/70/16
f 83/69/16 91/70/16 82/71/16
f 82/71/16 91/70/16 92/72/16
f 70/78/23 43/79/30 44/80/23
f 43/79/30 70/78/23 69/77/30
f 93/135/31 26/134/32 29/133/31
f 26/134/32 93/135/31 94/136/32
f 95/138/16 4/53/16 3/137/16
f 4/53/16 95/138/16 63/55/16
f 63/55/16 95/138/16 34/56/16
f 34/56/16 95/138/16 35/139/16
f 35/139/16 95/138/16 12/140/16
f 35/139/16 12/140/16 11/141/16
f 35/139/16 11/141/16 61/142/16
f 61/142/16 11/141/16 62/143/16
f 62/143/16 11/141/16 15/144/16
f 15/144/16 11/141/16 94/145/16
f 15/144/16 94/145/16 17/146/16
f 17/146/16 94/145/16 96/147/16
f 96/147/16 94/145/16 93/60/16
f 60/150/34 91/149/33 59/148/33
f 91/149/33 60/150/34 92/151/34
f 59/117/33 87/118/29 57/119/29
f 87/118/29 59/117/33 91/116/33
f 89/154/35 49/153/26 48/152/35
f 49/153/26 89/154/35 84/155/26
f 97/158/10 6/157/10 14/156/10
f 6/157/10 97/158/10 5/159/10
f 62/162/14 16/161/7 25/160/14
f 16/161/7 62/162/14 15/163/7
f 13/6/1 97/164/1 14/8/1
f 97/164/1 13/6/1 98/165/1
f 99/168/3 31/167/3 33/166/3
f 31/167/3 99/168/3 100/169/3
f 72/172/1 38/171/1 36/170/1
f 38/171/1 72/172/1 73/173/1
f 4/176/2 21/175/15 2/174/2
f 21/175/15 4/176/2 63/177/15
f 94/180/32 9/179/4 26/178/32
f 9/179/4 94/180/32 11/181/4
f 88/184/36 48/183/35 46/182/36
f 48/183/35 88/184/36 89/185/35
f 101/188/16 65/187/16 64/186/16
f 65/187/16 101/188/16 100/189/16
f 65/187/16 100/189/16 99/190/16
f 69/175/30 41/176/17 43/177/30
f 41/176/17 69/175/30 68/174/17
f 51/193/20 86/192/28 52/191/28
f 86/192/28 51/193/20 80/194/20
f 35/197/12 24/196/13 23/195/12
f 24/196/13 35/197/12 61/198/13
f 58/149/24 92/150/34 60/151/34
f 92/150/34 58/149/24 82/148/24
f 54/125/27 83/126/25 56/127/25
f 83/126/25 54/125/27 85/124/27
f 12/201/5 20/200/37 10/199/5
f 20/200/37 12/201/5 95/202/37
f 7/205/16 13/204/16 8/203/16
f 13/204/16 7/205/16 98/206/16
f 47/209/38 78/208/18 90/207/38
f 78/208/18 47/209/38 53/210/18
f 96/213/39 29/212/31 28/211/39
f 29/212/31 96/213/39 93/214/31

usemtl leaves

f 95/202/37 102/215/40 20/200/37
f 102/215/40 95/202/37 103/216/40
f 36/48/10 5/159/10 97/158/10
f 5/159/10 36/48/10 37/49/10
f 1/24/10 33/43/10 32/42/10
f 33/43/10 1/24/10 102/217/10
f 102/217/10 1/24/10 20/25/10
f 104/218/10 45/57/10 42/54/10
f 45/57/10 104/218/10 105/140/10
f 45/57/10 105/140/10 106/141/10
f 45/57/10 106/141/10 107/139/10
f 107/139/10 106/141/10 108/142/10
f 108/142/10 106/141/10 109/143/10
f 109/143/10 106/141/10 110/144/10
f 110/144/10 106/141/10 111/145/10
f 110/144/10 111/145/10 112/219/10
f 112/219/10 111/145/10 113/220/10
f 113/220/10 111/145/10 114/221/10
f 114/221/10 111/145/10 46/58/10
f 114/221/10 46/58/10 115/222/10
f 115/222/10 46/58/10 116/223/10
f 116/223/10 46/58/10 117/224/10
f 28/38/10 117/224/10 46/58/10
f 28/38/10 118/225/10 117/224/10
f 28/38/10 119/226/10 118/225/10
f 28/38/10 120/227/10 119/226/10
f 28/38/10 121/228/10 120/227/10
f 121/228/10 28/38/10 27/37/10
f 28/38/10 46/58/10 47/59/10
f 28/38/10 47/59/10 122/130/10
f 122/130/10 47/59/10 123/131/10
f 123/131/10 47/59/10 124/132/10
f 30/40/10 39/51/10 38/50/10
f 39/51/10 30/40/10 31/41/10
f 125/121/41 122/122/42 123/123/41
f 122/122/42 125/121/41 126/120/42
f 127/196/43 107/197/44 108/198/43
f 107/197/44 127/196/43 128/195/44
f 77/93/1 104/229/45 42/94/1
f 104/229/45 77/93/1 129/230/45
f 76/92/16 64/186/16 73/89/16
f 64/186/16 76/92/16 101/188/16
f 131/233/47 112/232/46 130/231/46
f 112/232/46 131/233/47 110/234/47
f 132/179/48 111/180/49 106/181/48
f 111/180/49 132/179/48 133/178/49
f 135/237/52 121/236/51 134/235/50
f 121/236/51 135/237/52 120/238/52
f 75/103/3 5/5/3 37/101/3
f 5/5/3 75/103/3 7/7/3
f 7/7/3 75/103/3 74/239/3
f 99/190/16 3/137/16 65/187/16
f 3/137/16 99/190/16 103/218/16
f 3/137/16 103/218/16 95/138/16
f 134/242/50 18/241/54 19/240/53
f 121/244/51 27/243/55 134/242/50
f 134/247/50 27/246/55 18/245/54
f 137/250/57 116/249/56 136/248/56
f 116/249/56 137/250/57 115/251/57
f 138/74/58 108/75/43 109/76/58
f 108/75/43 138/74/58 127/73/43
f 47/254/60 139/253/59 124/252/59
f 139/253/59 47/254/60 90/255/60
f 133/257/49 46/182/36 111/256/49
f 46/182/36 133/257/49 88/184/36
f 140/260/61 120/259/52 135/258/52
f 120/259/52 140/260/61 119/261/61
f 128/264/44 45/263/62 107/262/44
f 45/263/62 128/264/44 71/265/62
f 73/173/1 30/81/1 38/171/1
f 30/81/1 73/173/1 64/83/1
f 129/268/45 105/267/63 104/266/45
f 105/267/63 129/268/45 141/269/63
f 130/241/46 113/242/64 142/270/64
f 113/242/64 130/241/46 112/240/46
f 98/165/1 36/170/1 97/164/1
f 36/170/1 98/165/1 72/172/1
f 144/273/6 118/272/65 143/271/65
f 118/272/65 144/273/6 117/274/6
f 126/277/42 28/276/66 122/275/42
f 28/276/66 126/277/42 96/278/66
f 143/249/65 119/250/61 140/251/61
f 119/250/61 143/249/65 118/248/65
f 131/161/47 109/162/58 110/163/47
f 109/162/58 131/161/47 138/160/58
f 142/236/64 114/237/67 145/238/67
f 114/237/67 142/236/64 113/235/64
f 141/10/63 106/11/48 105/12/63
f 106/11/48 141/10/63 132/9/48
f 145/259/67 115/260/57 137/261/57
f 115/260/57 145/259/67 114/258/67
f 136/272/56 117/273/6 144/274/6
f 117/273/6 136/272/56 116/271/56
f 124/109/59 125/110/41 123/111/41
f 125/110/41 124/109/59 139/108/59
f 65/84/1 1/1/1 32/82/1
f 1/1/1 65/84/1 3/3/1
f 7/205/16 72/88/16 98/206/16
f 72/88/16 7/205/16 74/90/16
f 100/169/3 39/100/3 31/167/3
f 39/100/3 100/169/3 76/102/3
f 76/102/3 100/169/3 101/279/3
f 103/229/40 33/166/3 102/230/40
f 33/166/3 103/229/40 99/168/3
f 96/147/16 19/219/16 17/146/16
f 19/219/16 96/147/16 134/220/16
f 134/220/16 96/147/16 135/221/16
f 135/221/16 96/147/16 140/222/16
f 140/222/16 96/147/16 143/223/16
f 143/223/16 96/147/16 144/280/16
f 144/280/16 96/147/16 88/128/16
f 88/128/16 96/147/16 90/129/16
f 90/129/16 96/147/16 126/61/16
f 90/129/16 126/61/16 125/62/16
f 90/129/16 125/62/16 139/63/16
f 88/128/16 136/225/16 144/280/16
f 88/128/16 137/226/16 136/225/16
f 88/128/16 145/227/16 137/226/16
f 133/35/16 145/227/16 88/128/16
f 133/35/16 142/228/16 145/227/16
f 133/35/16 130/36/16 142/228/16
f 133/35/16 131/34/16 130/36/16
f 132/31/16 131/34/16 133/35/16
f 132/31/16 138/33/16 131/34/16
f 132/31/16 127/32/16 138/33/16
f 132/31/16 128/29/16 127/32/16
f 132/31/16 71/87/16 128/29/16
f 141/30/16 71/87/16 132/31/16
f 129/217/16 71/87/16 141/30/16
f 77/281/16 71/87/16 129/217/16
f 71/87/16 77/281/16 67/86/16

