# Created by Kenney (www.kenney.nl)

mtllib lightpostHanging.mtl

g lightpostHanging

v 0.116819 0.162616 0
v 0.067632 0.193081 0
v 0.05841 0.162616 -0.101168
v 0.033816 0.193081 -0.058571
v -0.018169 0 -0.03147
v 0.018169 0 -0.03147
v -0.018169 0.020697 -0.03147
v 0.018169 0.020697 -0.03147
v 0.05841 0.162616 0.101168
v -0.05841 0.162616 0.101168
v 0.033816 0.193081 0.058571
v -0.033816 0.193081 0.058571
v 0.036339 0 0
v 0.018169 0 0.03147
v -0.018169 0 0.03147
v -0.036339 0 0
v 0.072678 0.162616 0
v 0.036339 0.162616 0.062941
v -0.036339 0.162616 0.062941
v -0.072678 0.162616 0
v -0.116819 0.162616 0
v 0.036339 0.162616 -0.062941
v -0.05841 0.162616 -0.101168
v -0.036339 0.162616 -0.062941
v -0.067632 0.193081 0
v -0.033816 0.193081 -0.058571
v -0.036339 0.020697 0
v 0.016908 0.246036 0.029286
v -0.016908 0.246036 0.029286
v -0.016908 0.246036 -0.029286
v 0.016908 0.246036 -0.029286
v 0.018169 0.020697 0.03147
v -0.018169 0.020697 0.03147
v -0.026164 0.045741 -0.045317
v -0.052328 0.045741 0
v 0.026164 0.045741 -0.045317
v 0.052328 0.045741 0
v 0.036339 0.020697 0
v 0.026164 0.045741 0.045317
v -0.026164 0.045741 0.045317
v 0.033816 0.246036 0
v -0.033816 0.246036 0
v 0.0183187 0.246036 0
v 0.009159253 0.246036 -0.01586489
v -0.009159253 0.246036 -0.01586489
v -0.0183187 0.246036 0
v 0.009159253 0.246036 0.01586489
v -0.009159253 0.246036 0.01586489
v -0.009159253 0.296036 -0.01586489
v -0.0183187 0.296036 0
v -0.009159253 0.296036 0.01586489
v 0.009159253 0.296036 0.01586489
v 0.0183187 0.296036 0
v 0.009159253 0.296036 -0.01586489
v -0.0183187 0.3119009 -0.1158649
v -0.009159253 0.3277658 -0.1158649
v -0.0183187 0.3119009 -0.01586489
v -0.009159253 0.3277658 -0.01586489
v -0.009159253 0.296036 -0.1158649
v 0.009159253 0.296036 -0.1158649
v 0.0183187 0.3119009 -0.1158649
v 0.0183187 0.3119009 -0.01586489
v 0.009159253 0.3277658 -0.1158649
v 0.009159253 0.3277658 -0.01586489
v 0.0366374 0.3119009 -0.1358649
v 0.01831851 0.3436307 -0.1358649
v 0.01831851 0.2801711 -0.1358649
v -0.01831851 0.2801711 -0.1358649
v -0.01831851 0.3436307 -0.1358649
v -0.0366374 0.3119009 -0.1358649
v -0.0319009 0.2566459 -0.1358649
v 0.0319009 0.2566459 -0.1358649
v 0.06380185 0.3119009 -0.1358649
v 0.0319009 0.3671558 -0.1358649
v -0.06380185 0.3119009 -0.1358649
v -0.0319009 0.3671558 -0.1358649
v -0.0319009 0.2566459 -0.1558649
v 0.0319009 0.2566459 -0.1558649
v -0.06380185 0.3119009 -0.1558649
v 0.06380185 0.3119009 -0.1558649
v 0.0319009 0.3671558 -0.1558649
v -0.0319009 0.3671558 -0.1558649

vn 0.5037871 0.8133873 -0.2908603
vn 0 0 -1
vn 0 0.813385 0.5817258
vn 0 -1 0
vn -0.5037871 0.8133873 0.2908603
vn 0 0.813385 -0.5817258
vn 0.5037871 0.8133873 0.2908603
vn -0.5037871 0.8133873 -0.2908603
vn -0.866016 0 -0.5000163
vn 0 0.4839442 0.8750988
vn 0 0.4839442 -0.8750988
vn 0 0 1
vn -0.7578877 -0.483874 -0.4375753
vn 0.7578877 -0.483874 -0.4375753
vn 0.866016 0 -0.5000163
vn 0 -0.4838707 0.8751395
vn 0.866016 0 0.5000163
vn 0.757856 0.4839491 0.4375471
vn 0 -0.4838707 -0.8751395
vn 0.757856 0.4839491 -0.4375471
vn 0.7578877 -0.483874 0.4375753
vn -0.866016 0 0.5000163
vn -0.7578877 -0.483874 0.4375753
vn -0.757856 0.4839491 -0.4375471
vn -0.757856 0.4839491 0.4375471
vn 0 1 0
vn -0.866029 0 -0.4999939
vn -0.866029 0 0.4999939
vn 0.866029 0 0.4999939
vn 0.866029 0 -0.4999939
vn -0.866029 0.4999939 0
vn -0.866029 -0.4999939 0
vn 0.866029 -0.4999939 0
vn 0.866029 0.4999939 0
vn -0.7746018 -0.4472091 -0.4472091
vn -0.7746018 0.4472091 0.4472091
vn 0 0.7071068 0.7071068
vn 0.7746018 0.4472091 0.4472091
vn 0.7746018 -0.4472091 -0.4472091
vn 0.6784911 0.3917205 0.6214537
vn 0 -0.783444 0.6214625
vn 0 0.7834439 0.6214625
vn 0.6784911 -0.3917205 0.6214537
vn -0.6784911 -0.3917205 0.6214537
vn -0.6784911 0.3917205 0.6214537
vn -0.8563437 -0.1491055 -0.4944116
vn 0 -0.1491079 -0.9888209
vn 0.8563437 -0.1491055 -0.4944116
vn 0 -0.1491079 0.9888209
vn 0.8563437 -0.1491055 0.4944116
vn -0.8563437 -0.1491055 0.4944116

vt -2.299579 0.4845807
vt -1.331334 2.546401
vt 2.299577 0.4845779
vt 1.331342 2.546406
vt 0.715315 0
vt -0.715315 0
vt 0.715315 0.8148425
vt -0.715315 0.8148425
vt 2.299606 0.4846216
vt -2.299606 0.4846216
vt 1.331339 2.546434
vt -1.331339 2.546434
vt 1.430669 0
vt 0.715315 -1.238976
vt 0.715315 1.238976
vt -0.715315 1.238976
vt -0.715315 -1.238976
vt -1.430669 0
vt 4.599173 0
vt 2.861339 0
vt 2.299606 3.982992
vt 1.430669 2.477992
vt -2.299606 3.982992
vt -1.430669 2.477992
vt -2.861339 0
vt -4.599173 0
vt 2.299606 -3.982992
vt 1.430669 -2.477992
vt -2.299606 -3.982992
vt -1.430669 -2.477992
vt 2.299579 0.4845807
vt -2.299577 0.4845779
vt 1.331334 2.546401
vt -1.331342 2.546406
vt -0.7153043 0
vt -0.7153043 0.8148425
vt 0.7153579 0
vt 0.7153579 0.8148425
vt 1.331339 5.536215
vt -1.331339 5.536215
vt 0.6656693 7.918623
vt -0.6656693 7.918623
vt -1.030051 2.439275
vt 1.030094 2.43927
vt -0.715317 1.312607
vt 0.7153452 1.312614
vt 1.030051 2.439275
vt 0.715317 1.312607
vt -1.030094 2.43927
vt -0.7153452 1.312614
vt 0.7153043 0.8148425
vt 0.7153043 0
vt -0.7153579 0.8148425
vt -0.7153579 0
vt 0.715315 1.312605
vt -0.715315 1.312605
vt 1.030079 2.439265
vt -1.030079 2.439265
vt 0.6656678 7.9186
vt 1.331336 5.536181
vt -0.6656873 7.918596
vt -1.33134 5.536183
vt 1.33134 5.536183
vt -1.331336 5.536181
vt 0.6656873 7.918596
vt -0.6656678 7.9186
vt -1.331339 0
vt -0.7212086 0
vt -0.6656693 -1.152992
vt -0.3606005 -0.6246019
vt 0.6656693 -1.152992
vt 0.3606005 -0.6246019
vt 0.7212086 0
vt 1.331339 0
vt -0.6656693 1.152992
vt -0.3606005 0.6246019
vt 0.6656693 1.152992
vt 0.3606005 0.6246019
vt -0.3606253 9.686457
vt -0.3606253 11.65496
vt 0.3605998 9.686457
vt 0.3605998 11.65496
vt -0.3605998 9.686457
vt -0.3605998 11.65496
vt 0.3606253 9.686457
vt 0.3606253 11.65496
vt 0.3606005 9.686457
vt -0.3606005 9.686457
vt 0.3606005 11.65496
vt -0.3606005 11.65496
vt -4.56161 10.27386
vt -4.56161 10.99508
vt -0.6246019 10.27386
vt -0.6246019 10.99508
vt -4.56161 10.27383
vt -4.56161 10.99506
vt -0.6246019 10.27383
vt -0.6246019 10.99506
vt 0.3606005 -0.6246021
vt 0.3606005 -4.56161
vt -0.3606005 -0.6246021
vt -0.3606005 -4.56161
vt 4.56161 10.27383
vt 0.6246019 10.27383
vt 4.56161 10.99506
vt 0.6246019 10.99506
vt 4.56161 10.27386
vt 0.6246019 10.27386
vt 4.56161 10.99508
vt 0.6246019 10.99508
vt -0.3606253 10.70386
vt -0.1803235 11.40219
vt 0.3605998 10.70386
vt -0.9015232 10.84354
vt -0.7212213 11.54187
vt -0.3605998 10.14522
vt 0.3606253 10.14522
vt 0.3606005 7.799642
vt -0.3606005 7.799642
vt 0.3606005 9.566282
vt -0.3606005 9.566282
vt 0.9015232 10.84354
vt 0.3605998 10.14522
vt 0.7212213 11.54187
vt -0.3606253 10.14522
vt 0.1803235 11.40219
vt 0.3606253 10.70386
vt -0.3605998 10.70386
vt 4.918737 12.29681
vt 3.850962 12.29681
vt 4.431605 13.65452
vt 3.607396 12.97567
vt 0.7212011 2.664304
vt -0.7212011 2.664304
vt 0.3606005 3.669355
vt -0.3606005 3.669355
vt 0.7212011 12.59827
vt 0.3606005 11.59322
vt -0.7212011 12.59827
vt -0.3606005 11.59322
vt 4.431605 8.941945
vt 3.607396 9.620798
vt 4.918737 10.29965
vt 3.850962 10.29965
vt -4.431605 8.941945
vt -4.918737 10.29965
vt -3.607396 9.620798
vt -3.850962 10.29965
vt -4.918737 12.29681
vt -4.431605 13.65452
vt -3.850962 12.29681
vt -3.607396 12.97567
vt -1.255941 10.10417
vt 0.7212011 11.03036
vt 1.255941 10.10417
vt 2.511884 12.27956
vt 1.442417 12.27956
vt 0.7212011 13.52877
vt 1.255941 14.45496
vt -0.7212011 13.52877
vt -0.7212011 11.03036
vt -2.511884 12.27956
vt -1.442417 12.27956
vt -1.255941 14.45496
vt 6.136413 9.378531
vt 5.349011 9.378531
vt 6.136413 11.89045
vt 5.349011 11.89045
vt 6.136413 9.378467
vt 5.349011 9.378467
vt 6.136413 11.89038
vt 5.349011 11.89038
vt 1.255941 -5.349011
vt 1.255941 -6.136413
vt -1.255941 -5.349011
vt -1.255941 -6.136413
vt -6.136413 9.378467
vt -6.136413 11.89038
vt -5.349011 9.378467
vt -5.349011 11.89038
vt -6.136413 9.378531
vt -6.136413 11.89045
vt -5.349011 9.378531
vt -5.349011 11.89045
vt -1.430666 6.700119
vt 1.430672 6.700118
vt -1.030064 2.046721
vt 1.030081 2.046722
vt 1.030079 2.046724
vt -1.030079 2.046724
vt 1.430669 6.700122
vt -1.430669 6.700122
vt 1.430666 6.700119
vt 1.030064 2.046721
vt -1.430672 6.700118
vt -1.030081 2.046722

usemtl trainGrey

f 3/3/1 2/2/1 1/1/1
f 2/2/1 3/3/1 4/4/1
f 7/7/2 6/6/2 5/5/2
f 6/6/2 7/7/2 8/8/2
f 11/11/3 10/10/3 9/9/3
f 10/10/3 11/11/3 12/12/3
f 14/15/4 6/14/4 13/13/4
f 6/14/4 14/15/4 15/16/4
f 6/14/4 15/16/4 5/17/4
f 5/17/4 15/16/4 16/18/4
f 9/21/4 17/20/4 1/19/4
f 17/20/4 9/21/4 18/22/4
f 18/22/4 9/21/4 10/23/4
f 18/22/4 10/23/4 19/24/4
f 19/24/4 10/23/4 20/25/4
f 20/25/4 10/23/4 21/26/4
f 17/20/4 3/27/4 1/19/4
f 3/27/4 17/20/4 22/28/4
f 3/27/4 22/28/4 23/29/4
f 23/29/4 20/25/4 21/26/4
f 23/29/4 22/28/4 24/30/4
f 23/29/4 24/30/4 20/25/4
f 25/2/5 10/3/5 12/4/5
f 10/3/5 25/2/5 21/1/5
f 23/9/6 4/12/6 3/10/6
f 4/12/6 23/9/6 26/11/6
f 2/33/7 9/32/7 1/31/7
f 9/32/7 2/33/7 11/34/7
f 23/32/8 25/33/8 26/34/8
f 25/33/8 23/32/8 21/31/8
f 16/37/9 7/36/9 5/35/9
f 7/36/9 16/37/9 27/38/9
f 28/41/10 12/40/10 11/39/10
f 12/40/10 28/41/10 29/42/10
f 30/41/11 4/40/11 26/39/11
f 4/40/11 30/41/11 31/42/11
f 32/7/12 15/6/12 14/5/12
f 15/6/12 32/7/12 33/8/12
f 7/45/13 35/44/13 34/43/13
f 35/44/13 7/45/13 27/46/13
f 37/49/14 8/48/14 36/47/14
f 8/48/14 37/49/14 38/50/14
f 38/53/15 6/52/15 8/51/15
f 6/52/15 38/53/15 13/54/15
f 39/57/16 33/56/16 32/55/16
f 33/56/16 39/57/16 40/58/16
f 32/36/17 13/37/17 38/38/17
f 13/37/17 32/36/17 14/35/17
f 28/61/18 2/60/18 41/59/18
f 2/60/18 28/61/18 11/62/18
f 34/57/19 8/56/19 7/55/19
f 8/56/19 34/57/19 36/58/19
f 31/65/20 2/64/20 4/63/20
f 2/64/20 31/65/20 41/66/20
f 39/43/21 38/46/21 37/44/21
f 38/46/21 39/43/21 32/45/21
f 15/52/22 27/53/22 16/54/22
f 27/53/22 15/52/22 33/51/22
f 33/48/23 35/49/23 27/50/23
f 35/49/23 33/48/23 40/47/23
f 25/60/24 30/61/24 26/62/24
f 30/61/24 25/60/24 42/59/24
f 12/63/25 42/66/25 25/64/25
f 42/66/25 12/63/25 29/65/25
f 31/69/26 43/68/26 41/67/26
f 43/68/26 31/69/26 44/70/26
f 44/70/26 31/69/26 30/71/26
f 44/70/26 30/71/26 45/72/26
f 45/72/26 30/71/26 46/73/26
f 46/73/26 30/71/26 42/74/26
f 43/68/26 28/75/26 41/67/26
f 28/75/26 43/68/26 47/76/26
f 28/75/26 47/76/26 29/77/26
f 29/77/26 46/73/26 42/74/26
f 29/77/26 47/76/26 48/78/26
f 29/77/26 48/78/26 46/73/26
f 46/81/27 49/80/27 45/79/27
f 49/80/27 46/81/27 50/82/27
f 48/85/28 50/84/28 46/83/28
f 50/84/28 48/85/28 51/86/28
f 52/89/12 48/88/12 47/87/12
f 48/88/12 52/89/12 51/90/12
f 52/80/29 43/81/29 53/82/29
f 43/81/29 52/80/29 47/79/29
f 53/84/30 44/85/30 54/86/30
f 44/85/30 53/84/30 43/83/30
f 49/89/2 44/88/2 45/87/2
f 44/88/2 49/89/2 54/90/2
f 57/93/31 56/92/31 55/91/31
f 56/92/31 57/93/31 58/94/31
f 49/97/32 55/96/32 59/95/32
f 55/96/32 49/97/32 57/98/32
f 49/101/4 60/100/4 54/99/4
f 60/100/4 49/101/4 59/102/4
f 61/105/33 54/104/33 60/103/33
f 54/104/33 61/105/33 62/106/33
f 63/109/34 62/108/34 61/107/34
f 62/108/34 63/109/34 64/110/34
f 56/100/26 64/101/26 63/102/26
f 64/101/26 56/100/26 58/99/26
f 50/113/35 57/112/35 49/111/35
f 50/116/36 58/115/36 57/114/36
f 58/115/36 50/116/36 51/117/36
f 64/120/37 51/119/37 52/118/37
f 51/119/37 64/120/37 58/121/37
f 64/124/38 53/123/38 62/122/38
f 53/123/38 64/124/38 52/125/38
f 53/128/39 54/127/39 62/126/39
f 66/131/40 61/130/40 65/129/40
f 61/130/40 66/131/40 63/132/40
f 60/135/41 68/134/41 67/133/41
f 68/134/41 60/135/41 59/136/41
f 69/139/42 63/138/42 66/137/42
f 63/138/42 69/139/42 56/140/42
f 65/143/43 60/142/43 67/141/43
f 60/142/43 65/143/43 61/144/43
f 59/147/44 70/146/44 68/145/44
f 70/146/44 59/147/44 55/148/44
f 55/151/45 69/150/45 70/149/45
f 69/150/45 55/151/45 56/152/45
f 72/155/12 67/154/12 71/153/12
f 67/154/12 72/155/12 73/156/12
f 67/154/12 73/156/12 65/157/12
f 65/157/12 73/156/12 66/158/12
f 66/158/12 73/156/12 74/159/12
f 66/158/12 74/159/12 69/160/12
f 68/161/12 71/153/12 67/154/12
f 71/153/12 68/161/12 75/162/12
f 75/162/12 68/161/12 70/163/12
f 75/162/12 70/163/12 69/160/12
f 75/162/12 69/160/12 76/164/12
f 76/164/12 69/160/12 74/159/12
f 79/156/2 78/153/2 77/155/2
f 78/153/2 79/156/2 80/162/2
f 80/162/2 79/156/2 81/164/2
f 81/164/2 79/156/2 82/159/2
f 81/167/34 73/166/34 80/165/34
f 73/166/34 81/167/34 74/168/34
f 80/171/33 72/170/33 78/169/33
f 72/170/33 80/171/33 73/172/33
f 71/175/4 78/174/4 72/173/4
f 78/174/4 71/175/4 77/176/4
f 71/179/32 79/178/32 77/177/32
f 79/178/32 71/179/32 75/180/32
f 75/183/31 82/182/31 79/181/31
f 82/182/31 75/183/31 76/184/31
f 82/174/26 74/175/26 81/176/26
f 74/175/26 82/174/26 76/173/26

usemtl _defaultMat

f 34/187/46 20/186/46 24/185/46
f 20/186/46 34/187/46 35/188/46
f 24/191/47 36/190/47 34/189/47
f 36/190/47 24/191/47 22/192/47
f 17/195/48 36/194/48 22/193/48
f 36/194/48 17/195/48 37/196/48
f 18/191/49 40/190/49 39/189/49
f 40/190/49 18/191/49 19/192/49
f 18/185/50 37/188/50 17/186/50
f 37/188/50 18/185/50 39/187/50
f 40/194/51 20/195/51 35/196/51
f 20/195/51 40/194/51 19/193/51

