# Created by Kenney (www.kenney.nl)

mtllib rockFormationSmall.mtl

g rockFormationSmall

v 0.269937 0 0.155848
v 0.269937 0 -0.155848
v 0 0 0.311696
v 0 0 -0.311696
v -0.269937 0 0.155848
v -0.269937 0 -0.155848
v -0.181397 0.311696 -0.109717
v 0 0.311696 -0.214447
v -0.126978 0.667436 -0.098626
v 0 0.667436 -0.171937
v -0.215949 0.189728 -0.124678
v -0.215949 0.189728 -0.053553
v -0.215949 0.189728 0.124678
v -0.181397 0.311696 -0.049972
v -0.016638 0.189728 -0.053553
v -0.013976 0.311696 -0.049972
v 0.082434 0.311696 0.068953
v -0.026547 0.311696 0.018611
v 0.057703 0.667436 0.026443
v -0.018583 0.667436 -0.008796
v -0.009783 0.667436 -0.056804
v -0.126978 0.667436 -0.056804
v -0.046569 0.189728 0.109739
v -0.039118 0.311696 0.087193
v 0.107975 0.189728 0.187018
v 0.090699 0.311696 0.152108
v 0 0.189728 -0.249357
v 0.215949 0.189728 -0.124678
v 0.181397 0.311696 -0.109717
v 0.215949 0.189728 0.124678
v 0 0.189728 0.249357
v 0.126978 0.667436 -0.098626
v 0.181397 0.311696 -0.00799
v 0.126978 0.667436 -0.027417
v 0.181397 0.311696 0.09974299

vn 0 -1 0
vn -0.491973 0.1784842 -0.8521185
vn -0.4921597 0.1764141 -0.8524417
vn -0.4973452 0.1029379 -0.8614241
vn -0.961818 0.2736899 0
vn -0.9619645 0.2731744 0
vn -0.9619262 0.2733094 0
vn -0.9765944 0.2150894 0
vn -0.9772445 0.212116 0
vn 0 -0.02934751 0.9995692
vn 0 -0.004814001 0.9999884
vn 0 -0.008254588 0.9999659
vn -0.4180404 0.0790805 0.9049799
vn 0 0.0192015 0.9998156
vn -0.988501 0.151215 0
vn -0.9835802 0.008130211 -0.1802886
vn -0.9834629 0.01745321 -0.1802667
vn -0.9834009 0.02075882 -0.1802551
vn -0.9832608 0.02675181 -0.1802292
vn -0.4391717 0.1891745 0.8782604
vn 0.4829772 0.2587216 -0.8365383
vn 0.4829471 0.2589459 -0.8364862
vn 0.4921597 0.1764141 -0.8524417
vn 0.491973 0.1784842 -0.8521185
vn 0.48091 0.2736869 0.8329592
vn 0.4789203 0.2873183 0.829508
vn 0.4794703 0.2836218 0.8304619
vn 0.4809099 0.2736879 -0.8329589
vn 0.4973452 0.1029379 -0.8614241
vn -0.4809099 0.2736879 0.8329589
vn 0.6081173 0.1357408 0.7821558
vn 0.4763974 0.3036483 0.8251322
vn -0.4809099 0.2736879 -0.8329589
vn -0.4829471 0.2589459 -0.8364862
vn -0.4829772 0.2587216 -0.8365383
vn 0.9765944 0.2150894 0
vn 0.97237 0.2334449 0
vn 0.988501 0.151215 0
vn 0.961818 0.2736899 0
vn 0.9619645 0.2731744 0
vn 0.9619603 0.2731896 0
vn 0.9621384 0.2725617 0
vn 0 1 0

vt 10.62744 6.135748
vt 10.62744 -6.135748
vt 0 12.2715
vt 0 -12.2715
vt -10.62744 6.135748
vt -10.62744 -6.135748
vt 4.025025 11.45366
vt -4.221409 11.45366
vt 2.387911 25.53397
vt -3.384595 25.53397
vt -6.135748 -2.908623
vt -4.908583 4.85751
vt 6.135748 -2.908623
vt -2.108386 4.85751
vt 4.908583 4.85751
vt -4.908583 4.869494
vt -4.319567 9.860346
vt -2.108386 4.869494
vt -1.967402 9.860346
vt -0.6550394 7.404513
vt -8.501929 7.404513
vt -0.5502362 12.20847
vt -7.141614 12.20847
vt 4.084692 12.1458
vt -0.6415505 12.1458
vt 2.49894 26.19531
vt -0.809398 26.19531
vt -0.5502362 12.30701
vt -7.141614 12.30701
vt -0.3851575 26.31511
vt -4.999134 26.31511
vt -4.319567 11.05047
vt -3.882913 25.2189
vt -1.967402 11.05047
vt -2.236378 25.2189
vt -2.130288 26.26978
vt -0.2087182 26.26978
vt -1.835956 12.26381
vt 0.9091455 12.26381
vt -1.955736 7.439528
vt -1.835957 12.24314
vt 4.580188 7.439528
vt 0.9091447 12.24314
vt 3.654208 12.24314
vt 7.095168 6.448596
vt 0.2924682 6.448594
vt 5.872127 11.33878
vt 0.1578466 11.33879
vt 4.908622 5.204682
vt -4.908576 5.204683
vt 4.221414 10.15189
vt -4.025019 10.15189
vt 6.135752 -2.90859
vt -6.135756 -2.908586
vt 4.908589 4.857543
vt -4.908608 4.857538
vt -2.529725E-06 4.857533
vt 6.135756 -2.908597
vt -6.135752 -2.908602
vt 4.908608 4.857526
vt -4.908589 4.857532
vt 4.221409 11.45366
vt -4.025025 11.45366
vt 3.384595 25.53397
vt -2.387911 25.53397
vt 5.831119 11.5966
vt 0.8958791 11.5966
vt 4.60917 25.73295
vt 1.154476 25.73296
vt 4.90854 4.535318
vt -5.13812E-05 4.535316
vt 4.221329 9.575166
vt 0.09812959 9.57517
vt 6.135752 -2.908602
vt -6.135756 -2.908597
vt 4.908589 4.857532
vt -4.908608 4.857526
vt 4.319567 11.05047
vt 0.3145669 11.05047
vt 3.882913 25.2189
vt 1.079409 25.2189
vt 4.908576 5.204683
vt -4.908622 5.204682
vt 4.025019 10.15189
vt -4.221414 10.15189
vt 4.908583 4.869494
vt 4.319567 9.860346
vt 0.3145669 9.860346
vt -3.92689 9.860346
vt 0.6550394 -2.108386
vt 1.833425 4.320433
vt 8.501929 -2.108386
vt 8.501929 4.908583
vt 0 9.817204
vt -4.250984 7.362914
vt 0 -6.769173
vt 0.3851575 -2.236378
vt 4.999134 -3.882913
vt 4.999134 -2.236378
vt -2.271772 1.041063
vt -4.999134 -1.079409
vt -4.999134 -3.882913
vt 0.7316142 -0.3462992
vt -7.141614 -0.3145669
vt -7.141614 3.92689
vt -3.245433 2.714685
vt -3.570827 5.988504
vt 1.540079 3.432795
vt 1.045157 0.7327166

usemtl stone

f 3/3/1 2/2/1 1/1/1
f 2/2/1 3/3/1 4/4/1
f 4/4/1 3/3/1 5/5/1
f 4/4/1 5/5/1 6/6/1
f 9/9/4 8/8/3 7/7/2
f 8/8/3 9/9/4 10/10/4
f 5/13/5 11/12/6 6/11/5
f 11/12/6 5/13/5 12/14/7
f 12/14/7 5/13/5 13/15/5
f 12/18/7 7/17/8 11/16/6
f 7/17/8 12/18/7 14/19/9
f 16/22/11 12/21/10 15/20/10
f 12/21/10 16/22/11 14/23/12
f 19/26/13 18/25/13 17/24/13
f 18/25/13 19/26/13 20/27/13
f 21/30/14 14/29/12 16/28/11
f 14/29/12 21/30/14 22/31/14
f 14/34/9 9/33/15 7/32/8
f 9/33/15 14/34/9 22/35/15
f 16/38/17 20/37/16 21/36/16
f 20/37/16 16/38/17 18/39/18
f 23/42/19 16/41/17 15/40/19
f 16/41/17 23/42/19 18/43/18
f 18/43/18 23/42/19 24/44/19
f 26/47/20 23/46/20 25/45/20
f 23/46/20 26/47/20 24/48/20
f 8/51/23 28/50/22 27/49/21
f 28/50/22 8/51/23 29/52/24
f 30/55/26 3/54/25 1/53/25
f 3/54/25 30/55/26 31/56/25
f 31/56/25 30/55/26 25/57/27
f 27/60/21 2/59/28 4/58/28
f 2/59/28 27/60/21 28/61/22
f 10/64/29 29/63/24 8/62/23
f 29/63/24 10/64/29 32/65/29
f 31/60/30 5/59/30 3/58/30
f 5/59/30 31/60/30 13/61/30
f 34/68/31 17/67/31 33/66/31
f 17/67/31 34/68/31 19/69/31
f 35/72/32 25/71/27 30/70/26
f 25/71/27 35/72/32 26/73/32
f 11/76/34 4/75/33 6/74/33
f 4/75/33 11/76/34 27/77/35
f 32/80/38 33/79/37 29/78/36
f 33/79/37 32/80/38 34/81/38
f 7/84/2 27/83/35 11/82/34
f 27/83/35 7/84/2 8/85/3
f 28/15/40 1/11/39 2/13/39
f 1/11/39 28/15/40 30/12/41
f 29/87/36 30/16/41 28/86/40
f 30/16/41 29/87/36 33/88/37
f 30/16/41 33/88/37 35/89/42

usemtl snow

f 12/92/43 23/91/43 15/90/43
f 13/93/43 23/91/43 12/92/43
f 31/94/43 23/91/43 13/93/43
f 23/91/43 31/94/43 25/95/43
f 9/98/43 21/97/43 10/96/43
f 21/97/43 9/98/43 22/99/43
f 19/100/43 10/96/43 21/97/43
f 34/101/43 10/96/43 19/100/43
f 10/96/43 34/101/43 32/102/43
f 19/100/43 21/97/43 20/103/43
f 17/106/43 35/105/43 33/104/43
f 35/105/43 17/106/43 26/107/43
f 26/107/43 17/106/43 24/108/43
f 24/108/43 17/106/43 18/109/43

