# Created by Kenney (www.kenney.nl)

mtllib trackSimpleCornerLarge.mtl

g trackSimpleCornerLarge

v 0.2247721 0.014014 -0.005793002
v 0.2548325 0.014014 -0.02061716
v 0.1950403 0.014014 0.008869061
v 0.1950403 0.024104 0.008869061
v 0.2548325 0.024104 -0.02061716
v 0.396326 0.014014 -0.462
v 0.396326 0.024104 -0.462
v 0.3941579 0.014014 -0.428921
v 0.3929354 0.024104 -0.4102691
v 0.3929354 0.014014 -0.4102691
v 0.5096939 0.024104 -0.3254279
v 0.5096939 0.014014 -0.3254279
v 0.4875072 0.024104 -0.2600679
v 0.498163 0.014014 -0.291459
v 0.4875072 0.014014 -0.2600679
v 0.3102644 0.014014 -0.05765557
v 0.3102644 0.024104 -0.05765557
v 0.509665 0.014014 -0.462
v 0.509665 0.024104 -0.462
v 0.5074969 0.014014 -0.428921
v 0.5053048 0.024104 -0.3954754
v 0.5053048 0.014014 -0.3954754
v 0.3212276 0.014014 -0.04336807
v 0.263837 0.014014 -0.005020911
v 0.3212276 0.024104 -0.04336807
v 0.263837 0.024104 -0.005020911
v 0.4922986 0.014014 -0.330089
v 0.4922986 0.024104 -0.330089
v 0.1365721 0.014014 0.04769395
v 0.06887528 0.014014 0.06115967
v 0.1365721 0.024104 0.04769395
v 0.06887528 0.024104 0.06115967
v 0.4569791 0.024104 -0.198163
v 0.4569791 0.014014 -0.198163
v 0.4186319 0.024104 -0.1407724
v 0.4186319 0.014014 -0.1407724
v 0.414335 0.014014 -0.462
v 0.414335 0.024104 -0.462
v 0.033079 0.014014 0.06350589
v 0 0.014014 0.065674
v 0 0.024104 0.065674
v 0.3828215 0.014014 -0.3594233
v 0.3828215 0.024104 -0.3594233
v 0.3768133 0.014014 -0.3417237
v 0.3661575 0.024104 -0.3103326
v 0.3661575 0.014014 -0.3103326
v 0.4815249 0.014014 -0.2983507
v 0.4708691 0.024104 -0.2669596
v 0.4708691 0.014014 -0.2669596
v 0.3144266 0.014014 -0.220732
v 0.3144266 0.024104 -0.220732
v 0.3021022 0.014014 -0.2066788
v 0.2802448 0.024104 -0.1817552
v 0.2802448 0.014014 -0.1817552
v 0.170541 0.014014 0.03616304
v 0.2019321 0.014014 0.02550721
v 0.2019321 0.024104 0.02550721
v 0.4043444 0.014014 -0.1517356
v 0.4043444 0.024104 -0.1517356
v 0.382245 0.014014 -0.126536
v 0.3603876 0.024104 -0.1016124
v 0.3603876 0.014014 -0.1016124
v 0.3432284 0.014014 -0.263837
v 0.3432284 0.024104 -0.263837
v 0.4728451 0.014014 -0.2303361
v 0.2553212 0.014014 -0.1598978
v 0.241268 0.014014 -0.1475734
v 0.241268 0.024104 -0.1475734
v 0.3481983 0.014014 -0.06702073
v 0.3731219 0.014014 -0.08887814
v 0.3731219 0.024104 -0.08887814
v 0.4413828 0.014014 -0.2071675
v 0.4413828 0.024104 -0.2071675
v 0.033079 0.014014 -0.06784211
v 0.05173093 0.014014 -0.06906462
v 0 0.014014 -0.065674
v 0 0.024104 -0.065674
v 0.05173093 0.024104 -0.06906462
v 0.527674 0.014014 -0.462
v 0.527674 0.024104 -0.462
v 0.4107903 0.024104 -0.4079184
v 0.4002169 0.024104 -0.3547622
v 0.3827956 0.024104 -0.3034408
v 0.3588246 0.024104 -0.2548325
v 0.3287141 0.024104 -0.2097688
v 0.2929791 0.024104 -0.1690209
v 0.2522312 0.024104 -0.1332859
v 0.2071675 0.024104 -0.1031754
v 0.198163 0.024104 -0.1187716
v 0.1585591 0.024104 -0.07920437
v 0.1516674 0.024104 -0.09584252
v 0.1072378 0.024104 -0.06178312
v 0.1025767 0.024104 -0.07917848
v 0.05408157 0.024104 -0.0512097
v 2.064184E-09 0.024104 -0.047665
v 0.1025767 0.014014 -0.07917848
v 0.3949792 0.014014 -0.1138017
v 0.033079 0.014014 0.04549688
v 0.06652463 0.014014 0.04330475
v 0 0.014014 0.047665
v 0 0.024104 0.047665
v 0.06652463 0.024104 0.04330475
v 0.1202764 0.014014 -0.0851867
v 0.1516674 0.014014 -0.09584252
v 0.131911 0.014014 0.03029859
v 0.131911 0.024104 0.03029859
v 0.1636493 0.014014 0.01952489
v 0.2316639 0.014014 0.01084511
v 2.064184E-09 0.014014 -0.047665
v 0.2522312 0.014014 -0.1332859
v 0.2071675 0.014014 -0.1031754
v 0.4002169 0.014014 -0.3547622
v 0.3934515 0.014014 -0.3348319
v 0.3827956 0.014014 -0.3034408
v 0.3588246 0.014014 -0.2548325
v 0.3287141 0.014014 -0.2097688
v 0.4121669 0.014014 -0.428921
v 0.4107903 0.014014 -0.4079184
v 0.1813986 0.014014 -0.1105044
v 0.198163 0.014014 -0.1187716
v 0.3148365 0.014014 -0.1939445
v 0.2929791 0.014014 -0.1690209
v 0.3681338 0.014014 -0.2737095
v 0.1271681 0.014014 -0.06854855
v 0.1072378 0.014014 -0.06178312
v 0.1585591 0.014014 -0.07920437
v 0.5231597 0.024104 -0.3931247
v 0.5231597 0.014014 -0.3931247
v 0.033079 0.014014 -0.04983311
v 0.05408157 0.014014 -0.0512097
v 0.1882905 0.014014 -0.09386624
v 0.5255059 0.014014 -0.428921
v 0.456207 0.014014 -0.2372279
v 0.335464 0.014014 -0.07975502
v 0.3514957 0.014014 -0.2806014
v 0.2680555 0.014014 -0.1471635

vn -0.4422887 0 -0.8968728
vn -0.5 0 -0.8660254
vn -0.3826834 0 -0.9238795
vn -0.9978589 0 -0.06540313
vn -0.9914449 0 -0.1305262
vn 0.9659258 0 0.258819
vn 0.9238795 0 0.3826834
vn 0.9469302 0 0.3214395
vn -0.6087614 0 -0.7933533
vn 0.6087614 0 0.7933533
vn 0.5 0 0.8660254
vn -0.9659258 0 -0.258819
vn 0.258819 0 0.9659258
vn 0.1305262 0 0.9914449
vn 0.8660254 0 0.5
vn 0.7933533 0 0.6087614
vn 0 0 -1
vn 0.06540313 0 0.9978589
vn -0.9469302 0 -0.3214395
vn -0.9238795 0 -0.3826834
vn -0.9238795 0 -0.3826834
vn -0.7933533 0 -0.6087614
vn -0.7518399 0 -0.6593459
vn -0.7071068 0 -0.7071068
vn 0.3214395 0 0.9469302
vn 0.3826834 0 0.9238795
vn -0.8660254 0 -0.5
vn 0.8968728 0 0.4422887
vn -0.6593459 0 -0.7518399
vn 0.6593459 0 0.7518399
vn 0.7071068 0 0.7071068
vn -0.06540313 0 -0.9978589
vn -0.1305262 0 -0.9914449
vn 0 1 0
vn -0.258819 0 -0.9659258
vn 0.7518399 0 0.6593459
vn -0.1305262 0 -0.9914449
vn -0.3214395 0 -0.9469302
vn 0.4422887 0 0.8968728
vn -1 0 0
vn 0.9238795 0 0.3826834
vn 0.9978589 0 0.06540313
vn 0.9914449 0 0.1305262
vn 0.06540313 0 0.9978589
vn 0.1305262 0 0.9914449
vn -0.8968728 0 -0.4422887
vn 0 -1 0

vt -8.037564 0.5517323
vt -9.357128 0.5517323
vt -6.732429 0.5517323
vt -6.732429 0.9489764
vt -9.357128 0.9489764
vt -19.17054 0.5517323
vt -19.17054 0.9489764
vt -17.86543 0.5517323
vt -17.12952 0.9489764
vt -17.12952 0.5517323
vt 18.58241 0.9489764
vt 18.58241 0.5517323
vt 15.86497 0.9489764
vt 17.1701 0.5517323
vt 15.86497 0.5517323
vt -8.792904 0.5517323
vt -11.4176 0.5517323
vt -8.792904 0.9489764
vt -11.4176 0.9489764
vt -19.46238 0.5517323
vt -19.46238 0.9489764
vt -18.15726 0.5517323
vt -16.83768 0.9489764
vt -16.83768 0.5517323
vt 11.46398 0.5517323
vt 8.746532 0.5517323
vt 11.46398 0.9489764
vt 8.746532 0.9489764
vt -19.15183 0.5517323
vt -19.15183 0.9489764
vt -16.52713 0.5517323
vt -16.52713 0.9489764
vt 4.907215 0.5517323
vt 2.189772 0.5517323
vt 4.907215 0.9489764
vt 2.189772 0.9489764
vt 16.4823 0.9489764
vt 16.4823 0.5517323
vt 13.76486 0.9489764
vt 13.76486 0.5517323
vt -15.60339 0.5517323
vt -16.3124 0.5517323
vt -15.60339 0.9489764
vt -16.3124 0.9489764
vt 1.136011 0.5517323
vt -0.1691057 0.5517323
vt 2.548338 0.5517323
vt 2.548338 0.9489764
vt -0.1691057 0.9489764
vt -18.2442 0.5517323
vt -18.2442 0.9489764
vt -17.50831 0.5517323
vt -16.20318 0.9489764
vt -16.20318 0.5517323
vt -18.53604 0.5517323
vt -18.53604 0.9489764
vt -17.21647 0.5517323
vt -15.91134 0.9489764
vt -15.91134 0.5517323
vt -14.69571 0.5517323
vt -14.69571 0.9489764
vt -13.95981 0.5517323
vt -12.65469 0.9489764
vt -12.65469 0.5517323
vt 5.900244 0.5517323
vt 4.487933 0.5517323
vt 7.205377 0.5517323
vt 7.205377 0.9489764
vt 4.487933 0.9489764
vt -14.98755 0.5517323
vt -14.98755 0.9489764
vt -13.66797 0.5517323
vt -12.36285 0.9489764
vt -12.36285 0.5517323
vt -16.14409 0.5517323
vt -16.14409 0.9489764
vt -14.10307 0.5517323
vt -14.10307 0.9489764
vt 17.67192 0.9489764
vt 17.67192 0.5517323
vt 14.95448 0.9489764
vt 16.36678 0.5517323
vt 14.95448 0.5517323
vt -11.70821 0.5517323
vt -13.01334 0.5517323
vt -10.97231 0.5517323
vt -10.97231 0.9489764
vt -13.01334 0.9489764
vt 12.04642 0.5517323
vt 10.6341 0.5517323
vt 13.35155 0.5517323
vt 13.35155 0.9489764
vt 10.6341 0.9489764
vt -16.43593 0.5517323
vt -16.43593 0.9489764
vt -13.81123 0.5517323
vt -13.81123 0.9489764
vt -1.474223 0.5517323
vt -2.210126 0.5517323
vt -2.210126 0.9489764
vt -20.06555 0.5517323
vt -20.77457 0.5517323
vt -20.06555 0.9489764
vt -20.77457 0.9489764
vt -16.3124 -18.18898
vt -16.17285 -16.05978
vt -15.60339 -18.18898
vt -15.75657 -13.96702
vt -15.4699 -16.15233
vt -15.07069 -11.94649
vt -15.07171 -14.15052
vt -14.41565 -12.21782
vt -14.12695 -10.03278
vt -13.51293 -10.38728
vt -12.9415 -8.258615
vt -12.379 -8.690237
vt -11.53461 -6.654366
vt -11.03326 -7.155716
vt -9.930361 -5.247478
vt -9.498739 -5.809978
vt -8.1562 -4.062022
vt -7.801693 -4.676048
vt -6.242486 -3.118283
vt -5.971157 -3.773328
vt -4.22196 -2.432406
vt -4.038454 -3.117263
vt -2.129196 -2.01613
vt -2.036651 -2.71908
vt -8.126707E-08 -1.876575
vt 9.102529E-33 -2.585591
vt -2.527983 0.5517323
vt -4.569004 0.5517323
vt -2.527983 0.9489764
vt -4.569004 0.9489764
vt 15.03392 0.9489764
vt 15.03392 0.5517323
vt 12.31647 0.9489764
vt 13.6216 0.5517323
vt 12.31647 0.5517323
vt -1.182383 0.5517323
vt -2.501966 0.5517323
vt 0.1227339 0.5517323
vt 0.1227339 0.9489764
vt -2.501966 0.9489764
vt -5.562035 0.5517323
vt -6.867165 0.5517323
vt -4.826145 0.5517323
vt -4.826145 0.9489764
vt -6.867165 0.9489764
vt -2.236143 0.5517323
vt -4.860843 0.5517323
vt -2.236143 0.9489764
vt -4.860843 0.9489764
vt -5.853873 0.5517323
vt -7.159005 0.5517323
vt -4.534305 0.5517323
vt -4.534305 0.9489764
vt -7.159005 0.9489764
vt 7.991196 0.5517323
vt 6.686057 0.5517323
vt 9.403501 0.5517323
vt 9.403501 0.9489764
vt 6.686057 0.9489764
vt -2.585591 0.5517323
vt -2.585591 0.9489764
vt -1.876575 0.5517323
vt -1.876575 0.9489764
vt 11.17214 0.5517323
vt 9.038372 0.5517323
vt 11.17214 0.9489764
vt 9.038372 0.9489764
vt 18.29057 0.9489764
vt 18.29057 0.5517323
vt 16.15681 0.9489764
vt 17.46194 0.5517323
vt 16.15681 0.5517323
vt 16.19046 0.9489764
vt 16.19046 0.5517323
vt 14.0567 0.9489764
vt 14.0567 0.5517323
vt 19.21692 0.9489764
vt 19.21692 0.5517323
vt 17.08315 0.9489764
vt 17.9118 0.5517323
vt 17.08315 0.5517323
vt -18.85999 0.5517323
vt -18.85999 0.9489764
vt -16.81897 0.5517323
vt -16.81897 0.9489764
vt -8.329383 0.5517323
vt -9.065289 0.5517323
vt -7.024268 0.5517323
vt -7.024268 0.9489764
vt -9.065289 0.9489764
vt 14.74208 0.9489764
vt 14.74208 0.5517323
vt 12.60831 0.9489764
vt 13.91344 0.5517323
vt 12.60831 0.5517323
vt 17.38008 0.9489764
vt 17.38008 0.5517323
vt 15.24632 0.9489764
vt 16.07496 0.5517323
vt 15.24632 0.5517323
vt 5.608407 0.5517323
vt 4.779773 0.5517323
vt 6.913537 0.5517323
vt 6.913537 0.9489764
vt 4.779773 0.9489764
vt 18.90636 0.9489764
vt 18.90636 0.5517323
vt 16.7726 0.9489764
vt 16.7726 0.5517323
vt 19.1982 0.9489764
vt 19.1982 0.5517323
vt 16.48076 0.9489764
vt 16.48076 0.5517323
vt 1.427851 0.5517323
vt 0.122734 0.5517323
vt 2.256498 0.5517323
vt 2.256498 0.9489764
vt 0.122734 0.9489764
vt 1.876575 0.5517323
vt 1.876575 0.9489764
vt 2.585591 0.5517323
vt 2.585591 0.9489764
vt -20.77457 -18.18898
vt -20.59684 -15.47735
vt -20.06555 -18.18898
vt -20.06669 -12.81212
vt -19.89389 -15.5699
vt -19.1932 -10.23889
vt -19.38183 -12.99563
vt -18.53815 -10.51022
vt -17.9913 -7.801693
vt -17.37728 -8.1562
vt -16.48157 -5.542222
vt -15.91907 -5.973843
vt -14.68984 -3.499139
vt -14.18849 -4.000489
vt -12.64676 -1.707404
vt -12.21513 -2.269904
vt -10.38728 -0.1976737
vt -10.03278 -0.8116993
vt -7.950083 1.004221
vt -7.678754 0.3491757
vt -5.376853 1.877714
vt -5.193347 1.192858
vt -2.711625 2.407861
vt -2.61908 1.704911
vt 6.328075E-33 2.585591
vt 6.328075E-33 1.876575
vt 8.283014 0.5517323
vt 6.977897 0.5517323
vt 9.111661 0.5517323
vt 9.111661 0.9489764
vt 6.977897 0.9489764
vt 19.50875 0.9489764
vt 19.50875 0.5517323
vt 16.79131 0.9489764
vt 18.20364 0.5517323
vt 16.79131 0.5517323
vt -17.62555 0.5517323
vt -17.62555 0.9489764
vt -16.32041 0.5517323
vt -15.00085 0.9489764
vt -15.00085 0.5517323
vt -9.084743 0.5517323
vt -11.12576 0.5517323
vt -9.084743 0.9489764
vt -11.12576 0.9489764
vt -12.00005 0.5517323
vt -13.30517 0.5517323
vt -10.68048 0.5517323
vt -10.68048 0.9489764
vt -13.30517 0.9489764
vt -17.33371 0.5517323
vt -17.33371 0.9489764
vt -16.02859 0.5517323
vt -15.29269 0.9489764
vt -15.29269 0.5517323
vt 16.3124 -18.18898
vt 15.60339 -18.18898
vt 16.22704 -16.88665
vt 16.17285 -16.05978
vt 15.75657 -13.96702
vt 15.49021 -13.18236
vt 15.51803 -16.88665
vt 15.4699 -16.15233
vt 15.07069 -11.94649
vt 15.07171 -14.15052
vt 14.83517 -13.45369
vt 14.49345 -10.77597
vt 14.41565 -12.21782
vt 14.12695 -10.03278
vt 13.83841 -11.0473
vt 12.9415 -8.258615
vt 13.51293 -10.38728
vt 12.379 -8.690237
vt 12.39514 -7.635611
vt 11.53461 -6.654366
vt 11.89379 -8.13696
vt 11.03326 -7.155716
vt 10.55337 -5.793839
vt 10.05202 -6.295189
vt 9.930361 -5.247478
vt 9.498739 -5.809978
vt 8.1562 -4.062022
vt 7.801693 -4.676048
vt 7.41301 -3.695521
vt 7.141679 -4.350565
vt 6.242486 -3.118283
vt 5.971157 -3.773328
vt 5.006618 -2.698762
vt 4.73529 -3.353807
vt 4.22196 -2.432406
vt 4.038454 -3.117263
vt 2.129196 -2.01613
vt 2.036651 -2.71908
vt 1.302323 -1.961933
vt 1.302323 -2.670949
vt 8.126707E-08 -1.876575
vt -1.489579E-17 -2.585591
vt 4.615376 0.5517323
vt 2.481611 0.5517323
vt 4.615376 0.9489764
vt 2.481611 0.9489764
vt 11.75458 0.5517323
vt 10.92594 0.5517323
vt 13.05971 0.5517323
vt 13.05971 0.9489764
vt 10.92594 0.9489764
vt 20.77457 -18.18898
vt 20.06555 -18.18898
vt 20.68921 -16.88665
vt 20.59684 -15.47735
vt 20.06669 -12.81212
vt 19.89389 -15.5699
vt 19.61272 -11.47476
vt 19.98019 -16.88665
vt 19.38183 -12.99563
vt 19.1932 -10.23889
vt 18.95767 -11.74609
vt 18.61595 -9.068351
vt 18.53815 -10.51022
vt 17.9913 -7.801693
vt 17.96091 -9.339682
vt 16.48157 -5.542222
vt 17.37728 -8.1562
vt 15.91907 -5.973843
vt 15.55036 -4.480383
vt 15.04902 -4.981733
vt 14.68984 -3.499139
vt 14.18849 -4.000489
vt 13.70859 -2.638612
vt 13.20724 -3.139961
vt 12.64676 -1.707404
vt 12.21513 -2.269904
vt 10.38728 -0.1976737
vt 10.03278 -0.8116993
vt 9.120625 0.4269727
vt 8.849295 -0.228071
vt 7.950083 1.004221
vt 7.678754 0.3491757
vt 6.714213 1.423742
vt 6.442885 0.7686966
vt 5.376853 1.877714
vt 5.193347 1.192858
vt 2.711625 2.407861
vt 2.61908 1.704911
vt 1.302323 2.500232
vt 1.302323 1.791216
vt -9.785854E-18 2.585591
vt -9.785854E-18 1.876575

usemtl stone

f 3/3/3 2/2/2 1/1/1
f 2/2/2 3/3/3 4/4/3
f 2/2/2 4/4/3 5/5/2
f 8/8/4 7/7/4 6/6/4
f 7/7/4 8/8/4 9/9/5
f 9/9/5 8/8/4 10/10/5
f 13/13/7 12/12/6 11/11/6
f 12/12/6 13/13/7 14/14/8
f 14/14/8 13/13/7 15/15/7
f 5/18/2 16/17/9 2/16/2
f 16/17/9 5/18/2 17/19/9
f 20/22/4 19/21/4 18/20/4
f 19/21/4 20/22/4 21/23/5
f 21/23/5 20/22/4 22/24/5
f 25/27/10 24/26/11 23/25/10
f 24/26/11 25/27/10 26/28/11
f 27/31/12 21/30/5 22/29/5
f 21/30/5 27/31/12 28/32/12
f 31/35/13 30/34/14 29/33/13
f 30/34/14 31/35/13 32/36/14
f 35/39/16 34/38/15 33/37/15
f 34/38/15 35/39/16 36/40/16
f 7/43/17 37/42/17 6/41/17
f 37/42/17 7/43/17 38/44/17
f 30/47/14 40/46/18 39/45/18
f 40/46/18 30/47/14 32/48/14
f 40/46/18 32/48/14 41/49/18
f 44/52/19 43/51/12 42/50/12
f 43/51/12 44/52/19 45/53/20
f 45/53/20 44/52/19 46/54/20
f 47/57/19 28/56/12 27/55/12
f 28/56/12 47/57/19 48/58/21
f 48/58/21 47/57/19 49/59/21
f 52/62/23 51/61/22 50/60/22
f 51/61/22 52/62/23 53/63/24
f 53/63/24 52/62/23 54/64/24
f 56/67/26 29/66/13 55/65/25
f 29/66/13 56/67/26 57/68/26
f 29/66/13 57/68/26 31/69/13
f 60/72/23 59/71/22 58/70/22
f 59/71/22 60/72/23 61/73/24
f 61/73/24 60/72/23 62/74/24
f 50/77/22 64/76/27 63/75/27
f 64/76/27 50/77/22 51/78/22
f 33/81/15 15/80/7 13/79/7
f 15/80/7 33/81/15 65/82/28
f 65/82/28 33/81/15 34/83/15
f 67/86/9 54/85/24 66/84/29
f 54/85/24 67/86/9 68/87/9
f 54/85/24 68/87/9 53/88/24
f 70/91/31 23/90/10 69/89/30
f 23/90/10 70/91/31 71/92/31
f 23/90/10 71/92/31 25/93/10
f 58/96/22 73/95/27 72/94/27
f 73/95/27 58/96/22 59/97/22
f 76/46/32 75/99/33 74/98/32
f 75/99/33 76/46/32 77/49/32
f 75/99/33 77/49/32 78/100/33
f 19/103/17 79/102/17 18/101/17
f 79/102/17 19/103/17 80/104/17
f 7/107/34 81/106/34 38/105/34
f 81/106/34 7/107/34 82/108/34
f 82/108/34 7/107/34 9/109/34
f 82/108/34 9/109/34 83/110/34
f 83/110/34 9/109/34 43/111/34
f 83/110/34 43/111/34 45/112/34
f 83/110/34 45/112/34 84/113/34
f 84/113/34 45/112/34 64/114/34
f 84/113/34 64/114/34 85/115/34
f 85/115/34 64/114/34 51/116/34
f 85/115/34 51/116/34 86/117/34
f 86/117/34 51/116/34 53/118/34
f 86/117/34 53/118/34 87/119/34
f 87/119/34 53/118/34 68/120/34
f 87/119/34 68/120/34 88/121/34
f 88/121/34 68/120/34 89/122/34
f 88/121/34 89/122/34 90/123/34
f 90/123/34 89/122/34 91/124/34
f 90/123/34 91/124/34 92/125/34
f 92/125/34 91/124/34 93/126/34
f 92/125/34 93/126/34 94/127/34
f 94/127/34 93/126/34 78/128/34
f 94/127/34 78/128/34 95/129/34
f 95/129/34 78/128/34 77/130/34
f 78/133/33 96/132/35 75/131/33
f 96/132/35 78/133/33 93/134/35
f 71/137/31 36/136/16 35/135/16
f 36/136/16 71/137/31 97/138/36
f 97/138/36 71/137/31 70/139/31
f 100/142/32 99/141/37 98/140/32
f 99/141/37 100/142/32 101/143/32
f 99/141/37 101/143/32 102/144/37
f 96/147/35 104/146/3 103/145/38
f 104/146/3 96/147/35 93/148/35
f 104/146/3 93/148/35 91/149/3
f 102/152/37 105/151/35 99/150/37
f 105/151/35 102/152/37 106/153/35
f 105/156/35 3/155/3 107/154/38
f 3/155/3 105/156/35 106/157/35
f 3/155/3 106/157/35 4/158/3
f 24/161/11 56/160/26 108/159/39
f 56/160/26 24/161/11 26/162/11
f 56/160/26 26/162/11 57/163/26
f 109/166/40 77/165/40 76/164/40
f 77/165/40 109/166/40 95/167/40
f 87/170/10 111/169/11 110/168/10
f 111/169/11 87/170/10 88/171/11
f 83/174/41 112/173/6 82/172/6
f 112/173/6 83/174/41 113/175/8
f 113/175/8 83/174/41 114/176/41
f 85/179/16 115/178/15 84/177/15
f 115/178/15 85/179/16 116/180/16
f 81/183/43 37/182/42 38/181/42
f 37/182/42 81/183/43 117/184/42
f 117/184/42 81/183/43 118/185/43
f 42/188/12 9/187/5 10/186/5
f 9/187/5 42/188/12 43/189/12
f 104/192/3 120/191/2 119/190/1
f 120/191/2 104/192/3 91/193/3
f 120/191/2 91/193/3 89/194/2
f 86/197/31 116/196/16 85/195/16
f 116/196/16 86/197/31 121/198/36
f 121/198/36 86/197/31 122/199/31
f 84/202/15 114/201/41 83/200/41
f 114/201/41 84/202/15 123/203/28
f 123/203/28 84/202/15 115/204/15
f 126/207/26 125/206/13 124/205/25
f 125/206/13 126/207/26 90/208/26
f 125/206/13 90/208/26 92/209/13
f 82/212/6 118/211/43 81/210/43
f 118/211/43 82/212/6 112/213/6
f 11/216/6 128/215/43 127/214/43
f 128/215/43 11/216/6 12/217/6
f 130/220/45 109/219/44 129/218/44
f 109/219/44 130/220/45 94/221/45
f 109/219/44 94/221/45 95/222/44
f 40/225/40 101/224/40 100/223/40
f 101/224/40 40/225/40 41/226/40
f 19/229/34 127/228/34 80/227/34
f 127/228/34 19/229/34 11/230/34
f 11/230/34 19/229/34 21/231/34
f 11/230/34 21/231/34 13/232/34
f 13/232/34 21/231/34 28/233/34
f 13/232/34 28/233/34 48/234/34
f 13/232/34 48/234/34 33/235/34
f 33/235/34 48/234/34 73/236/34
f 33/235/34 73/236/34 35/237/34
f 35/237/34 73/236/34 59/238/34
f 35/237/34 59/238/34 71/239/34
f 71/239/34 59/238/34 61/240/34
f 71/239/34 61/240/34 25/241/34
f 25/241/34 61/240/34 17/242/34
f 25/241/34 17/242/34 26/243/34
f 26/243/34 17/242/34 5/244/34
f 26/243/34 5/244/34 57/245/34
f 57/245/34 5/244/34 4/246/34
f 57/245/34 4/246/34 31/247/34
f 31/247/34 4/246/34 106/248/34
f 31/247/34 106/248/34 32/249/34
f 32/249/34 106/248/34 102/250/34
f 32/249/34 102/250/34 41/251/34
f 41/251/34 102/250/34 101/252/34
f 111/255/11 126/254/26 131/253/39
f 126/254/26 111/255/11 88/256/11
f 126/254/26 88/256/11 90/257/26
f 127/260/43 79/259/42 80/258/42
f 79/259/42 127/260/43 132/261/42
f 132/261/42 127/260/43 128/262/43
f 133/265/46 48/264/21 49/263/21
f 48/264/21 133/265/46 73/266/27
f 73/266/27 133/265/46 72/267/27
f 89/270/2 67/269/9 120/268/2
f 67/269/9 89/270/2 68/271/9
f 16/274/9 62/273/24 134/272/29
f 62/273/24 16/274/9 17/275/9
f 62/273/24 17/275/9 61/276/24
f 135/279/46 45/278/20 46/277/20
f 45/278/20 135/279/46 64/280/27
f 64/280/27 135/279/46 63/281/27
f 117/284/47 6/283/47 37/282/47
f 6/283/47 117/284/47 118/285/47
f 6/283/47 118/285/47 112/286/47
f 6/283/47 112/286/47 113/287/47
f 6/283/47 113/287/47 8/288/47
f 8/288/47 113/287/47 10/289/47
f 10/289/47 113/287/47 114/290/47
f 10/289/47 114/290/47 42/291/47
f 42/291/47 114/290/47 44/292/47
f 44/292/47 114/290/47 123/293/47
f 44/292/47 123/293/47 46/294/47
f 46/294/47 123/293/47 115/295/47
f 46/294/47 115/295/47 135/296/47
f 135/296/47 115/295/47 116/297/47
f 135/296/47 116/297/47 63/298/47
f 63/298/47 116/297/47 50/299/47
f 50/299/47 116/297/47 121/300/47
f 50/299/47 121/300/47 122/301/47
f 50/299/47 122/301/47 52/302/47
f 52/302/47 122/301/47 54/303/47
f 54/303/47 122/301/47 136/304/47
f 54/303/47 136/304/47 66/305/47
f 66/305/47 136/304/47 110/306/47
f 66/305/47 110/306/47 67/307/47
f 67/307/47 110/306/47 111/308/47
f 67/307/47 111/308/47 120/309/47
f 120/309/47 111/308/47 131/310/47
f 120/309/47 131/310/47 119/311/47
f 119/311/47 131/310/47 126/312/47
f 119/311/47 126/312/47 104/313/47
f 104/313/47 126/312/47 124/314/47
f 104/313/47 124/314/47 103/315/47
f 103/315/47 124/314/47 125/316/47
f 103/315/47 125/316/47 96/317/47
f 96/317/47 125/316/47 130/318/47
f 96/317/47 130/318/47 75/319/47
f 75/319/47 130/318/47 129/320/47
f 75/319/47 129/320/47 74/321/47
f 74/321/47 129/320/47 109/322/47
f 74/321/47 109/322/47 76/323/47
f 92/326/13 130/325/45 125/324/13
f 130/325/45 92/326/13 94/327/45
f 122/330/31 110/329/10 136/328/30
f 110/329/10 122/330/31 86/331/31
f 110/329/10 86/331/31 87/332/10
f 132/335/47 18/334/47 79/333/47
f 18/334/47 132/335/47 128/336/47
f 18/334/47 128/336/47 12/337/47
f 18/334/47 12/337/47 22/338/47
f 22/338/47 12/337/47 14/339/47
f 18/334/47 22/338/47 20/340/47
f 22/338/47 14/339/47 27/341/47
f 27/341/47 14/339/47 15/342/47
f 27/341/47 15/342/47 47/343/47
f 47/343/47 15/342/47 65/344/47
f 47/343/47 65/344/47 49/345/47
f 49/345/47 65/344/47 34/346/47
f 49/345/47 34/346/47 133/347/47
f 133/347/47 34/346/47 36/348/47
f 133/347/47 36/348/47 72/349/47
f 72/349/47 36/348/47 58/350/47
f 58/350/47 36/348/47 97/351/47
f 58/350/47 97/351/47 60/352/47
f 60/352/47 97/351/47 70/353/47
f 60/352/47 70/353/47 62/354/47
f 62/354/47 70/353/47 69/355/47
f 62/354/47 69/355/47 134/356/47
f 134/356/47 69/355/47 23/357/47
f 134/356/47 23/357/47 16/358/47
f 16/358/47 23/357/47 24/359/47
f 16/358/47 24/359/47 2/360/47
f 2/360/47 24/359/47 108/361/47
f 2/360/47 108/361/47 1/362/47
f 1/362/47 108/361/47 56/363/47
f 1/362/47 56/363/47 3/364/47
f 3/364/47 56/363/47 55/365/47
f 3/364/47 55/365/47 107/366/47
f 107/366/47 55/365/47 29/367/47
f 107/366/47 29/367/47 105/368/47
f 105/368/47 29/367/47 30/369/47
f 105/368/47 30/369/47 99/370/47
f 99/370/47 30/369/47 39/371/47
f 99/370/47 39/371/47 98/372/47
f 98/372/47 39/371/47 40/373/47
f 98/372/47 40/373/47 100/374/47

