# Created by Kenney (www.kenney.nl)

mtllib trackCornerSmall.mtl

g trackCornerSmall

v 0.196533 0.014014 -0.004248
v 0.149752 0.014014 0.042533
v 0.1767749 0.014014 -0.02400613
v 0.1742791 0.014014 -0.02027094
v 0.155333 0.014014 0.001332975
v 0.1337291 0.014014 0.0202791
v 0.1299939 0.014014 0.02277487
v 0.021256 0 -0.085963
v 0.068037 0 -0.132744
v 0.021256 0.014014 -0.085963
v 0.068037 0.014014 -0.132744
v 0.08126548 0.014014 -0.1195155
v 0.196533 0 -0.004248
v 0.09468465 0.014014 -0.1060963
v 0.1638189 0.014014 -0.03696209
v 0.149752 0 0.042533
v 0.07649256 0.014014 -0.109837
v 0.07007372 0.014014 -0.1002305
v 0.06245591 0.014014 -0.09154408
v 0.05376946 0.014014 -0.08392627
v 0.044163 0.014014 -0.07750744
v 0.03448448 0.014014 -0.07273452
v 0.04790365 0.014014 -0.05931535
v 0.1170379 0.014014 0.009818907
v 0.1599916 0.014014 -0.03123413
v 0.1425987 0.014014 -0.01140131
v 0.1227659 0.014014 0.005991601
v 0.09208881 0.014014 -0.1008325
v 0.08436123 0.014014 -0.08926735
v 0.0751902 0.014014 -0.07880981
v 0.06473265 0.014014 -0.06963877
v 0.0531675 0.014014 -0.06191118
v 0.106335 0.024104 -0.154
v 0.1054253 0.024104 -0.1401205
v 0.088326 0.024104 -0.154
v 0.1027117 0.024104 -0.1264785
v 0.09824073 0.024104 -0.1133073
v 0.09208881 0.024104 -0.1008325
v 0.08436123 0.024104 -0.08926735
v 0.08757035 0.024104 -0.1424711
v 0.08531636 0.024104 -0.1311395
v 0.08160258 0.024104 -0.1201991
v 0.0751902 0.024104 -0.07880981
v 0.07649256 0.024104 -0.109837
v 0.07007372 0.024104 -0.1002305
v 0.06473265 0.024104 -0.06963877
v 0.06245591 0.024104 -0.09154408
v 0.0531675 0.024104 -0.06191118
v 0.05376946 0.024104 -0.08392627
v 0.044163 0.024104 -0.07750744
v 0.04069264 0.024104 -0.05575927
v 0.0338009 0.024104 -0.07239742
v 0.02752152 0.024104 -0.05128828
v 0.02286045 0.024104 -0.06868363
v 0.0138795 0.024104 -0.04857471
v 0.01152886 0.024104 -0.06642964
v 0 0.024104 -0.047665
v 0 0.024104 -0.065674
v 0.106335 0.014014 -0.154
v 0.088326 0.014014 -0.154
v 0.1054253 0.014014 -0.1401205
v 0.1027117 0.014014 -0.1264785
v 0.09824073 0.014014 -0.1133073
v 0.08757035 0.014014 -0.1424711
v 0.08531636 0.014014 -0.1311395
v 0.08160258 0.014014 -0.1201991
v 0.109837 0.014014 0.03624326
v 0.1008325 0.014014 0.02064701
v 0.0840656 0.014014 0.04895231
v 0.07717386 0.014014 0.03231417
v 0.05685581 0.014014 0.05818878
v 0.05219474 0.014014 0.04079343
v 0.02867321 0.014014 0.06379466
v 0.02632256 0.014014 0.04593973
v 0 0.014014 0.065674
v 0 0.014014 0.047665
v 0.219674 0.014014 -0.154
v 0.201665 0.014014 -0.154
v 0.2177946 0.014014 -0.1253268
v 0.2121888 0.014014 -0.09714419
v 0.2029523 0.014014 -0.0699344
v 0.1999397 0.014014 -0.1276774
v 0.1902433 0.014014 -0.044163
v 0.1947934 0.014014 -0.1018053
v 0.1863142 0.014014 -0.07682614
v 0.174647 0.014014 -0.0531675
v 0.04069264 0.014014 -0.05575927
v 0.02752152 0.014014 -0.05128828
v 0.0338009 0.014014 -0.07239742
v 0.02286045 0.014014 -0.06868363
v 0.0138795 0.014014 -0.04857471
v 0.01152886 0.014014 -0.06642964
v 0 0.014014 -0.047665
v 0 0.014014 -0.065674
v 0.219674 0.024104 -0.154
v 0.2177946 0.024104 -0.1253268
v 0.201665 0.024104 -0.154
v 0.2121888 0.024104 -0.09714419
v 0.2029523 0.024104 -0.0699344
v 0.1999397 0.024104 -0.1276774
v 0.1902433 0.024104 -0.044163
v 0.1947934 0.024104 -0.1018053
v 0.1863142 0.024104 -0.07682614
v 0.1742791 0.024104 -0.02027094
v 0.174647 0.024104 -0.0531675
v 0.1599916 0.024104 -0.03123413
v 0.155333 0.024104 0.001332975
v 0.1425987 0.024104 -0.01140131
v 0.1337291 0.024104 0.0202791
v 0.1227659 0.024104 0.005991601
v 0.109837 0.024104 0.03624326
v 0.1008325 0.024104 0.02064701
v 0.0840656 0.024104 0.04895231
v 0.07717386 0.024104 0.03231417
v 0.05685581 0.024104 0.05818878
v 0.05219474 0.024104 0.04079343
v 0.02867321 0.024104 0.06379466
v 0.02632256 0.024104 0.04593973
v 0 0.024104 0.065674
v 0 0.024104 0.047665

vn 0 1 0
vn -0.7071068 0 -0.7071068
vn 0.7071068 0 -0.7071068
vn 0 -1 0
vn -0.7071068 0 0.7071068
vn 0.7071068 0 0.7071068
vn -0.258819 0 -0.9659258
vn -0.3826834 0 -0.9238795
vn -0.06540313 0 -0.9978589
vn -0.1305262 0 -0.9914449
vn -0.4422887 0 -0.8968728
vn -0.5 0 -0.8660254
vn -0.6087614 0 -0.7933533
vn 0.1305262 0 0.9914449
vn 0.06540313 0 0.9978589
vn 0.6087614 0 0.7933533
vn 0.3826834 0 0.9238795
vn 0.258819 0 0.9659258
vn -1 0 0
vn 0.5 0 0.8660254
vn 0.5555702 0 0.8314696
vn 0 0 -1
vn 0.8660254 0 0.5
vn 0.7933533 0 0.6087614
vn 0.8314696 0 0.5555702
vn -0.5555702 0 -0.8314696
vn 0.9914449 0 0.1305262
vn 0.9659258 0 0.258819
vn -0.9659258 0 -0.258819
vn -0.9238795 0 -0.3826834
vn -0.8968728 0 -0.4422887
vn -0.8660254 0 -0.5
vn -0.7933533 0 -0.6087614
vn 0.9238795 0 0.3826834
vn 0.8968728 0 0.4422887
vn -0.9978589 0 -0.06540313
vn -0.9914449 0 -0.1305262
vn 0.9978589 0 0.06540313
vn -0.8314696 0 -0.5555702
vn 0.4422887 0 0.8968728

vt -7.73752 -0.1672441
vt -5.895748 1.674528
vt -6.959641 -0.9451231
vt -6.861382 -0.7980686
vt -6.115471 0.05247933
vt -5.264924 0.7983899
vt -5.117869 0.8966485
vt -2.984854 0
vt -5.589512 0
vt -2.984854 0.5517323
vt -5.589512 0.5517323
vt 1.801368 0.5517323
vt 1.801368 -1.447298E-14
vt 1.064837 0.5517323
vt -5.352993 -1.447298E-14
vt 0.3176884 0.5517323
vt -3.531548 0.5517323
vt -4.252906 0.5517323
vt -5.352993 0.5517323
vt 7.73752 -0.1672441
vt 2.678622 -5.226142
vt 5.895748 1.674528
vt 0.8368504 -3.38437
vt -3.199428 -4.705336
vt -3.011518 -4.324291
vt -2.678622 -5.226142
vt -2.758808 -3.946084
vt -2.458894 -3.604098
vt -0.8368504 -3.38437
vt -2.116908 -3.304184
vt -1.738701 -3.051474
vt -1.357657 -2.863564
vt -1.801368 -5.697811E-15
vt -1.801368 0.5517323
vt 5.352993 -5.697811E-15
vt -1.064837 0.5517323
vt -0.3176884 0.5517323
vt 3.531548 0.5517323
vt 4.252906 0.5517323
vt 5.352993 0.5517323
vt -6.449563 -1.455201
vt -6.298882 -1.22969
vt -3.727742 -4.177022
vt -5.614121 -0.4488705
vt -4.833302 0.2358898
vt -4.607791 0.3865711
vt -3.625544 -3.969784
vt -3.321308 -3.514463
vt -2.960244 -3.102748
vt -2.548529 -2.741684
vt -2.093209 -2.437448
vt -1.885971 -2.33525
vt 5.589512 0
vt 2.984854 0
vt 5.589512 0.5517323
vt 2.984854 0.5517323
vt -4.186417 -6.062992
vt -4.150602 -5.516555
vt -3.477401 -6.062992
vt -4.043768 -4.979467
vt -3.867745 -4.460919
vt -3.447652 -5.6091
vt -3.358912 -5.162974
vt -3.2127 -4.732248
vt -1.602073 -2.195247
vt -1.330744 -2.850292
vt -1.083525 -2.019223
vt -0.9000177 -2.70408
vt -0.5464371 -1.91239
vt -0.453892 -2.61534
vt 1.559078E-32 -1.876575
vt 1.559078E-32 -2.585591
vt 4.186417 -6.062992
vt 3.477401 -6.062992
vt 4.150602 -5.516555
vt 4.043768 -4.979467
vt 3.867745 -4.460919
vt 3.727742 -4.177022
vt 3.447652 -5.6091
vt 3.358912 -5.162974
vt 3.2127 -4.732248
vt 3.199428 -4.705336
vt 5.117869 0.8966485
vt 4.607791 0.3865711
vt 4.324291 1.4269
vt 3.969784 0.8128746
vt 3.309669 1.927256
vt 3.038341 1.272211
vt 2.238418 2.290897
vt 2.054911 1.606041
vt 1.128867 2.511601
vt 1.036321 1.808651
vt -5.826295E-18 2.585591
vt -5.826295E-18 1.876575
vt 8.648582 -6.062992
vt 7.939567 -6.062992
vt 8.574593 -4.934125
vt 8.353889 -3.824574
vt 7.990249 -2.753323
vt 7.871643 -5.02667
vt 7.489892 -1.738701
vt 7.669033 -4.008081
vt 7.335203 -3.024651
vt 6.959641 -0.9451231
vt 6.875867 -2.093209
vt 6.449563 -1.455201
vt 1.885971 -2.33525
vt 1.357657 -2.863564
vt 1.602073 -2.195247
vt 1.083525 -2.019223
vt 1.330744 -2.850292
vt 0.9000177 -2.70408
vt 0.5464371 -1.91239
vt 0.453892 -2.61534
vt -2.108622E-16 -1.876575
vt -2.108622E-16 -2.585591
vt -1.721452 0.5517323
vt -2.176318 0.5517323
vt -1.721452 0.9489764
vt -2.176318 0.9489764
vt -0.1691057 0.5517323
vt -0.6239716 0.5517323
vt -0.1691057 0.9489764
vt -0.6239716 0.9489764
vt -8.648582 -6.062992
vt -8.574593 -4.934125
vt -7.939567 -6.062992
vt -8.353889 -3.824574
vt -7.990249 -2.753323
vt -7.871643 -5.02667
vt -7.489892 -1.738701
vt -7.669033 -4.008081
vt -7.335203 -3.024651
vt -6.875867 -2.093209
vt -4.324291 1.4269
vt -3.969784 0.8128746
vt -3.309669 1.927256
vt -3.038341 1.272211
vt -2.238418 2.290897
vt -2.054911 1.606041
vt -1.128867 2.511601
vt -1.036321 1.808651
vt -1.894789E-32 2.585591
vt -1.894789E-32 1.876575
vt -0.9553981 0.5517323
vt -1.410264 0.5517323
vt -0.9553981 0.9489764
vt -1.410264 0.9489764
vt -2.484167 0.5517323
vt -2.909026 0.5517323
vt -2.45416 0.5517323
vt -2.45416 0.9489764
vt -2.909026 0.9489764
vt -3.140985 0.5517323
vt -3.595851 0.5517323
vt -3.140985 0.9489764
vt -3.595851 0.9489764
vt 0.962183 0.5517323
vt 0.962183 0.9489764
vt 4.563253 0.5517323
vt 3.431964 0.5517323
vt 4.563253 0.9489764
vt 3.431964 0.9489764
vt 2.514529 0.5517323
vt 1.383241 0.5517323
vt 2.514529 0.9489764
vt 1.383241 0.9489764
vt 1.876575 0.5517323
vt 1.876575 0.9489764
vt 2.585591 0.5517323
vt 2.585591 0.9489764
vt 3.247237 0.5517323
vt 2.115948 0.5517323
vt 3.247237 0.9489764
vt 2.115948 0.9489764
vt 3.757201 0.5517323
vt 2.802773 0.5517323
vt 3.934062 0.5517323
vt 3.934062 0.9489764
vt 2.802773 0.9489764
vt 1.748475 0.5517323
vt 0.6171867 0.5517323
vt 1.748475 0.9489764
vt 0.6171867 0.9489764
vt -7.939567 0.5517323
vt -8.648582 0.5517323
vt -7.939567 0.9489764
vt -8.648582 0.9489764
vt 5.606838 0.9489764
vt 5.606838 0.5517323
vt 4.475549 0.9489764
vt 4.652411 0.5517323
vt 4.475549 0.5517323
vt -3.616471 0.5517323
vt -3.887691 0.5517323
vt -2.849145 0.5517323
vt -2.849145 0.9489764
vt -3.887691 0.9489764
vt 6.512138 0.9489764
vt 6.512138 0.5517323
vt 5.380849 0.9489764
vt 5.380849 0.5517323
vt -2.16232 0.5517323
vt -3.200865 0.5517323
vt -2.16232 0.9489764
vt -3.200865 0.9489764
vt -5.968663 0.5517323
vt -5.968663 0.9489764
vt -5.513797 0.5517323
vt -5.513797 0.9489764
vt 0.1227339 0.5517323
vt -0.9158112 0.5517323
vt 0.1227339 0.9489764
vt -0.9158112 0.9489764
vt -5.665165 0.5517323
vt -5.665165 0.9489764
vt -5.635158 0.5517323
vt -5.210299 0.9489764
vt -5.210299 0.5517323
vt -5.268627 0.5517323
vt -5.268627 0.9489764
vt -4.813761 0.5517323
vt -4.813761 0.9489764
vt 5.711537 0.9489764
vt 5.711537 0.5517323
vt 5.163928 0.9489764
vt 5.394995 0.5517323
vt 5.163928 0.5517323
vt -6.260502 0.5517323
vt -6.260502 0.9489764
vt -5.221957 0.5517323
vt -5.221957 0.9489764
vt 5.124043 0.9489764
vt 5.124043 0.5517323
vt 3.992754 0.9489764
vt 3.992754 0.5517323
vt -5.957005 0.5517323
vt -5.957005 0.9489764
vt -4.91846 0.5517323
vt -4.91846 0.9489764
vt -0.6635585 0.5517323
vt -1.702104 0.5517323
vt -0.6635585 0.9489764
vt -1.702104 0.9489764
vt -6.569283 0.5517323
vt -6.569283 0.9489764
vt -5.530738 0.5517323
vt -5.530738 0.9489764
vt -1.429612 0.5517323
vt -2.468158 0.5517323
vt -1.429612 0.9489764
vt -2.468158 0.9489764
vt 6.615655 0.9489764
vt 6.615655 0.5517323
vt 5.484366 0.9489764
vt 5.484366 0.5517323
vt -6.465766 0.5517323
vt -6.465766 0.9489764
vt -5.427221 0.5517323
vt -5.427221 0.9489764
vt -5.560466 0.5517323
vt -5.560466 0.9489764
vt -4.79314 0.5517323
vt -4.521921 0.9489764
vt -4.521921 0.5517323
vt 6.306874 0.9489764
vt 6.306874 0.5517323
vt 5.175586 0.9489764
vt 5.175586 0.5517323
vt -5.077672 0.5517323
vt -5.077672 0.9489764
vt -4.039126 0.5517323
vt -4.039126 0.9489764
vt -3.478336 0.5517323
vt -4.516881 0.5517323
vt -3.478336 0.9489764
vt -4.516881 0.9489764
vt 6.003377 0.9489764
vt 6.003377 0.5517323
vt 4.872088 0.9489764
vt 4.872088 0.5517323
vt 1.456636 0.5517323
vt 0.9090263 0.5517323
vt 1.456636 0.9489764
vt 0.9090263 0.9489764
vt 4.271413 0.5517323
vt 3.723804 0.5517323
vt 4.271413 0.9489764
vt 3.723804 0.9489764
vt 6.015035 0.9489764
vt 6.015035 0.5517323
vt 5.467425 0.9489764
vt 5.467425 0.5517323
vt -6.277444 0.5517323
vt -6.277444 0.9489764
vt -5.822578 0.5517323
vt -5.822578 0.9489764
vt -6.173926 0.5517323
vt -6.173926 0.9489764
vt -5.71906 0.5517323
vt -5.71906 0.9489764
vt 3.642223 0.5517323
vt 3.094613 0.5517323
vt 3.642223 0.9489764
vt 3.094613 0.9489764
vt 5.314999 0.9489764
vt 5.314999 0.5517323
vt 4.767389 0.9489764
vt 4.767389 0.5517323
vt 4.832203 0.9489764
vt 4.832203 0.5517323
vt 4.284594 0.9489764
vt 4.284594 0.5517323
vt 2.72433 0.5517323
vt 2.407788 0.5517323
vt 2.955398 0.5517323
vt 2.955398 0.9489764
vt 2.407788 0.9489764
vt 6.323816 0.9489764
vt 6.323816 0.5517323
vt 5.776206 0.9489764
vt 5.776206 0.5517323
vt -2.585591 0.5517323
vt -2.585591 0.9489764
vt -1.876575 0.5517323
vt -1.876575 0.9489764
vt 2.22269 0.5517323
vt 1.67508 0.5517323
vt 2.22269 0.9489764
vt 1.67508 0.9489764
vt -3.477401 0.5517323
vt -4.186417 0.5517323
vt -3.477401 0.9489764
vt -4.186417 0.9489764
vt -4.785832 0.5517323
vt -4.785832 0.9489764
vt -4.330966 0.5517323
vt -4.330966 0.9489764
vt 0.6703435 0.5517323
vt 0.6703435 0.9489764
vt -3.770175 0.5517323
vt -4.225041 0.5517323
vt -3.770175 0.9489764
vt -4.225041 0.9489764
vt 6.220298 0.9489764
vt 6.220298 0.5517323
vt 5.672688 0.9489764
vt 5.672688 0.5517323

usemtl wood

f 3/3/1 2/2/1 1/1/1
f 2/2/1 3/3/1 4/4/1
f 2/2/1 4/4/1 5/5/1
f 2/2/1 5/5/1 6/6/1
f 2/2/1 6/6/1 7/7/1
f 10/10/2 9/9/2 8/8/2
f 9/9/2 10/10/2 11/11/2
f 12/14/3 9/13/3 11/12/3
f 9/13/3 12/14/3 13/15/3
f 13/15/3 12/14/3 14/16/3
f 13/15/3 14/16/3 15/17/3
f 13/15/3 15/17/3 3/18/3
f 13/15/3 3/18/3 1/19/3
f 16/22/4 9/21/4 13/20/4
f 9/21/4 16/22/4 8/23/4
f 11/26/1 17/25/1 12/24/1
f 17/25/1 11/26/1 18/27/1
f 18/27/1 11/26/1 19/28/1
f 19/28/1 11/26/1 10/29/1
f 19/28/1 10/29/1 20/30/1
f 20/30/1 10/29/1 21/31/1
f 21/31/1 10/29/1 22/32/1
f 16/35/5 10/34/5 8/33/5
f 10/34/5 16/35/5 22/36/5
f 22/36/5 16/35/5 23/37/5
f 23/37/5 16/35/5 24/38/5
f 24/38/5 16/35/5 7/39/5
f 7/39/5 16/35/5 2/40/5
f 14/43/1 25/42/1 15/41/1
f 25/42/1 14/43/1 26/44/1
f 26/44/1 14/43/1 27/45/1
f 27/45/1 14/43/1 24/46/1
f 24/46/1 14/43/1 28/47/1
f 24/46/1 28/47/1 29/48/1
f 24/46/1 29/48/1 30/49/1
f 24/46/1 30/49/1 31/50/1
f 24/46/1 31/50/1 32/51/1
f 24/46/1 32/51/1 23/52/1
f 1/55/6 16/54/6 13/53/6
f 16/54/6 1/55/6 2/56/6

usemtl stone

f 35/59/1 34/58/1 33/57/1
f 34/58/1 35/59/1 36/60/1
f 36/60/1 35/59/1 37/61/1
f 37/61/1 35/59/1 38/47/1
f 38/47/1 35/59/1 39/48/1
f 39/48/1 35/59/1 40/62/1
f 39/48/1 40/62/1 41/63/1
f 39/48/1 41/63/1 42/64/1
f 39/48/1 42/64/1 43/49/1
f 43/49/1 42/64/1 44/25/1
f 43/49/1 44/25/1 45/27/1
f 43/49/1 45/27/1 46/50/1
f 46/50/1 45/27/1 47/28/1
f 46/50/1 47/28/1 48/51/1
f 48/51/1 47/28/1 49/30/1
f 48/51/1 49/30/1 50/31/1
f 48/51/1 50/31/1 51/65/1
f 51/65/1 50/31/1 52/66/1
f 51/65/1 52/66/1 53/67/1
f 53/67/1 52/66/1 54/68/1
f 53/67/1 54/68/1 55/69/1
f 55/69/1 54/68/1 56/70/1
f 55/69/1 56/70/1 57/71/1
f 57/71/1 56/70/1 58/72/1
f 61/75/4 60/74/4 59/73/4
f 60/74/4 61/75/4 62/76/4
f 60/74/4 62/76/4 63/77/4
f 60/74/4 63/77/4 14/78/4
f 60/74/4 14/78/4 64/79/4
f 64/79/4 14/78/4 65/80/4
f 65/80/4 14/78/4 66/81/4
f 66/81/4 14/78/4 12/82/4
f 67/85/4 24/84/4 7/83/4
f 24/84/4 67/85/4 68/86/4
f 68/86/4 67/85/4 69/87/4
f 68/86/4 69/87/4 70/88/4
f 70/88/4 69/87/4 71/89/4
f 70/88/4 71/89/4 72/90/4
f 72/90/4 71/89/4 73/91/4
f 72/90/4 73/91/4 74/92/4
f 74/92/4 73/91/4 75/93/4
f 74/92/4 75/93/4 76/94/4
f 79/97/4 78/96/4 77/95/4
f 78/96/4 79/97/4 80/98/4
f 78/96/4 80/98/4 81/99/4
f 78/96/4 81/99/4 82/100/4
f 82/100/4 81/99/4 83/101/4
f 82/100/4 83/101/4 84/102/4
f 84/102/4 83/101/4 85/103/4
f 85/103/4 83/101/4 3/104/4
f 85/103/4 3/104/4 86/105/4
f 86/105/4 3/104/4 15/106/4
f 87/109/4 22/108/4 23/107/4
f 22/108/4 87/109/4 88/110/4
f 22/108/4 88/110/4 89/111/4
f 89/111/4 88/110/4 90/112/4
f 90/112/4 88/110/4 91/113/4
f 90/112/4 91/113/4 92/114/4
f 92/114/4 91/113/4 93/115/4
f 92/114/4 93/115/4 94/116/4
f 54/119/7 89/118/8 90/117/7
f 89/118/8 54/119/7 52/120/8
f 58/123/9 92/122/10 94/121/9
f 92/122/10 58/123/9 56/124/10
f 97/127/1 96/126/1 95/125/1
f 96/126/1 97/127/1 98/128/1
f 98/128/1 97/127/1 99/129/1
f 99/129/1 97/127/1 100/130/1
f 99/129/1 100/130/1 101/131/1
f 101/131/1 100/130/1 102/132/1
f 101/131/1 102/132/1 103/133/1
f 101/131/1 103/133/1 104/4/1
f 104/4/1 103/133/1 105/134/1
f 104/4/1 105/134/1 106/42/1
f 104/4/1 106/42/1 107/5/1
f 107/5/1 106/42/1 108/44/1
f 107/5/1 108/44/1 109/6/1
f 109/6/1 108/44/1 110/45/1
f 109/6/1 110/45/1 111/135/1
f 111/135/1 110/45/1 112/136/1
f 111/135/1 112/136/1 113/137/1
f 113/137/1 112/136/1 114/138/1
f 113/137/1 114/138/1 115/139/1
f 115/139/1 114/138/1 116/140/1
f 115/139/1 116/140/1 117/141/1
f 117/141/1 116/140/1 118/142/1
f 117/141/1 118/142/1 119/143/1
f 119/143/1 118/142/1 120/144/1
f 56/147/10 90/146/7 92/145/10
f 90/146/7 56/147/10 54/148/7
f 89/151/8 21/150/12 22/149/11
f 21/150/12 89/151/8 52/152/8
f 21/150/12 52/152/8 50/153/12
f 50/156/12 20/155/13 21/154/12
f 20/155/13 50/156/12 49/157/13
f 117/159/14 75/121/15 73/158/14
f 75/121/15 117/159/14 119/123/15
f 107/162/6 6/161/16 5/160/6
f 6/161/16 107/162/6 109/163/16
f 113/166/17 71/165/18 69/164/17
f 71/165/18 113/166/17 115/167/18
f 75/170/19 120/169/19 76/168/19
f 120/169/19 75/170/19 119/171/19
f 111/174/20 69/173/17 67/172/20
f 69/173/17 111/174/20 113/175/17
f 6/178/16 67/177/20 7/176/21
f 67/177/20 6/178/16 109/179/16
f 67/177/20 109/179/16 111/180/20
f 115/183/18 73/182/14 71/181/18
f 73/182/14 115/183/18 117/184/14
f 97/187/22 77/186/22 78/185/22
f 77/186/22 97/187/22 95/188/22
f 104/191/24 83/190/23 101/189/23
f 83/190/23 104/191/24 3/192/25
f 3/192/25 104/191/24 4/193/24
f 68/196/12 27/195/13 24/194/26
f 27/195/13 68/196/12 112/197/12
f 27/195/13 112/197/12 110/198/13
f 98/201/28 79/200/27 96/199/27
f 79/200/27 98/201/28 80/202/28
f 114/205/8 68/204/12 70/203/8
f 68/204/12 114/205/8 112/206/12
f 66/209/30 41/208/29 65/207/29
f 41/208/29 66/209/30 42/210/30
f 120/213/9 74/212/10 76/211/9
f 74/212/10 120/213/9 118/214/10
f 12/217/31 42/216/30 66/215/30
f 42/216/30 12/217/31 44/218/32
f 44/218/32 12/217/31 17/219/32
f 18/222/33 44/221/32 17/220/32
f 44/221/32 18/222/33 45/223/33
f 38/226/23 63/225/34 37/224/34
f 63/225/34 38/226/23 14/227/35
f 14/227/35 38/226/23 28/228/23
f 85/231/30 102/230/29 84/229/29
f 102/230/29 85/231/30 103/232/30
f 107/235/6 4/234/24 104/233/24
f 4/234/24 107/235/6 5/236/6
f 86/239/32 103/238/30 85/237/30
f 103/238/30 86/239/32 105/240/32
f 118/243/10 72/242/7 74/241/10
f 72/242/7 118/243/10 116/244/7
f 82/247/37 97/246/36 78/245/36
f 97/246/36 82/247/37 100/248/37
f 116/251/7 70/250/8 72/249/7
f 70/250/8 116/251/7 114/252/8
f 96/255/27 77/254/38 95/253/38
f 77/254/38 96/255/27 79/256/27
f 84/259/29 100/258/37 82/257/37
f 100/258/37 84/259/29 102/260/29
f 15/263/39 105/262/32 86/261/32
f 105/262/32 15/263/39 106/264/33
f 106/264/33 15/263/39 25/265/33
f 99/268/34 80/267/28 98/266/28
f 80/267/28 99/268/34 81/269/34
f 26/272/2 106/271/33 25/270/33
f 106/271/33 26/272/2 108/273/2
f 110/276/13 26/275/2 27/274/13
f 26/275/2 110/276/13 108/277/2
f 101/280/23 81/279/34 99/278/34
f 81/279/34 101/280/23 83/281/23
f 53/284/18 91/283/14 88/282/18
f 91/283/14 53/284/18 55/285/14
f 43/288/6 31/287/16 30/286/6
f 31/287/16 43/288/6 46/289/16
f 37/292/34 62/291/28 36/290/28
f 62/291/28 37/292/34 63/293/34
f 64/296/37 35/295/36 60/294/36
f 35/295/36 64/296/37 40/297/37
f 65/300/29 40/299/37 64/298/37
f 40/299/37 65/300/29 41/301/29
f 46/304/16 32/303/20 31/302/16
f 32/303/20 46/304/16 48/305/20
f 39/308/24 28/307/23 38/306/23
f 28/307/23 39/308/24 29/309/24
f 43/312/6 29/311/24 39/310/24
f 29/311/24 43/312/6 30/313/6
f 32/316/20 87/315/17 23/314/40
f 87/315/17 32/316/20 48/317/20
f 87/315/17 48/317/20 51/318/17
f 34/321/27 59/320/38 33/319/38
f 59/320/38 34/321/27 61/322/27
f 93/325/19 58/324/19 94/323/19
f 58/324/19 93/325/19 57/326/19
f 51/329/17 88/328/18 87/327/17
f 88/328/18 51/329/17 53/330/18
f 35/333/22 59/332/22 60/331/22
f 59/332/22 35/333/22 33/334/22
f 19/337/2 45/336/33 18/335/33
f 45/336/33 19/337/2 47/338/2
f 55/340/14 93/211/15 91/339/14
f 93/211/15 55/340/14 57/213/15
f 49/343/13 19/342/2 20/341/13
f 19/342/2 49/343/13 47/344/2
f 36/347/28 61/346/27 34/345/27
f 61/346/27 36/347/28 62/348/28

