# Created by Kenney (www.kenney.nl)

mtllib treePineSnowed.mtl

g treePineSnowed

v 0.375865 0.18634 0
v 0.187932 0.18634 -0.325508
v 0.187932 0.18634 0.325508
v 0.096867 0.18634 0
v 0.048433 0.18634 0.083889
v -0.187932 0.18634 0.325508
v -0.048433 0.18634 0.083889
v -0.096867 0.18634 0
v 0.048433 0.18634 -0.083889
v -0.187932 0.18634 -0.325508
v -0.048433 0.18634 -0.083889
v -0.375865 0.18634 0
v -0.229925 0.479608 0
v -0.120906 0.455721 0.209415
v 0.238603 0.7939579 0.019708
v 0.176901 0.787532 0.009245
v 0.123775 0.8104 0.214998
v 0.089384 0.799167 0.151306
v -0.102649 0.791897 0.214998
v -0.079115 0.7862 0.157371
v -0.184232 0.757587 0.005958
v -0.214246 0.756953 0.019708
v 0.127006 0.759013 -0.175581
v 0.099094 0.759481 -0.154798
v -0.099418 0.740511 -0.175581
v -0.094442 0.742109 -0.16657
v -0.112987 0.487548 -0.195699
v 0.125072 0.438976 0.216632
v 0.138149 0.476532 -0.264472
v -0.15454 0.495771 -0.264472
v 0.116617 0.472958 -0.201987
v 0.245475 0.448359 0
v 0.151698 1.120867 -0.012215
v 0.12681 1.122457 -0.014472
v 0.070226 1.116056 0.128101
v 0.060894 1.117984 0.107616
v -0.091874 1.125417 0.128101
v -0.07739399 1.12643 0.100836
v -0.137062 1.13795 -0.018223
v -0.172503 1.139589 -0.012215
v 0.07107 1.135038 -0.152531
v 0.053468 1.134346 -0.127336
v -0.091031 1.1444 -0.152531
v -0.072412 1.141466 -0.125134
v 0.283473 0.446755 -0.011194
v -0.301903 0.485233 -0.011194
v -0.156579 0.455457 0.242084
v 0.010402 1.598415 0.012215
v 0.13611 0.436218 0.242084
v 0.055214 0.057596 -0.095633
v 0.110428 0.057596 0
v -0.130305 0 0
v -0.110428 0.057596 0
v -0.065152 0 0.112847
v -0.055214 0.057596 0.095633
v -0.065152 0 -0.112847
v 0.065152 0 -0.112847
v -0.055214 0.057596 -0.095633
v 0.065152 0 0.112847
v 0.055214 0.057596 0.095633
v 0.130305 0 0

vn 0 -1 0
vn -0.7953121 0.3957734 0.4591753
vn 0.0807464 -0.9881321 0.1306715
vn -0.7953123 0.3957731 -0.4591753
vn -6.228496E-07 0.3957725 0.9183486
vn 0.02393904 0.364177 -0.931022
vn 0.7953123 0.3957738 -0.4591747
vn -3.052262E-07 0.3957723 -0.9183487
vn -0.05752162 -0.9960566 -0.06754757
vn 0.8441949 0.2910089 -0.4501652
vn 0.8259499 0.3287362 0.457973
vn -0.807189 0.3773357 -0.4539421
vn -0.8061311 0.3168148 0.4997809
vn -0.8511258 0.1215811 -0.5106886
vn 0.01358078 0.2351719 0.9718589
vn -0.8153771 0.349609 -0.4614473
vn 0.01947412 0.3371902 -0.9412351
vn -0.0653833 -0.9946943 -0.07942501
vn -0.02652884 0.3246499 0.9454621
vn -0.8633898 0.2201082 0.4539938
vn -0.01025542 0.1255065 -0.9920398
vn 0.8365705 0.231851 0.4963818
vn 0.8456338 0.2736488 -0.4582791
vn -0.8143114 0.2980972 0.4980312
vn 0.827211 0.2280806 -0.5135184
vn 0.795312 0.3957742 0.4591748
vn 0.0160754 0.2445536 0.9695025
vn 0.8396553 0.2231036 0.4951805
vn 0.8624426 0.09084526 -0.4979357
vn -0.8297575 0.2863553 0.4790649
vn 0 0.2863588 -0.9581224
vn 0 0.2863588 0.9581224
vn -0.8297575 0.2863553 -0.4790649
vn 0.8297575 0.2863553 -0.4790649
vn -0.8624426 0.09084526 -0.4979357
vn 0 0.09084261 -0.9958652
vn -0.8624426 0.09084526 0.4979357
vn 0.8297575 0.2863553 0.4790649
vn 0.8624426 0.09084526 0.4979357
vn 0 0.09084261 0.9958652

vt 14.79783 0
vt 7.398898 -12.81528
vt 7.398898 12.81528
vt 3.813661 0
vt 1.906811 3.302716
vt -7.398898 12.81528
vt -1.906811 3.302716
vt -3.813661 0
vt 1.906811 -3.302716
vt -7.398898 -12.81528
vt -1.906811 -3.302716
vt -14.79783 0
vt -7.398938 1.665254
vt -4.526095 14.23781
vt 7.398885 1.665257
vt 4.760054 13.21376
vt 7.583345 10.33313
vt 5.73338 8.686195
vt -0.3040929 14.54729
vt -0.1377573 11.66823
vt -7.887414 9.805014
vt -5.906591 8.344713
vt -6.293544 1.011135
vt -7.583329 0.8485589
vt 7.887409 1.376702
vt 6.522471 1.496527
vt 0.3040889 -3.36557
vt 0.2842549 -2.955935
vt -7.398888 1.665262
vt -4.448289 14.5782
vt 7.398935 1.665258
vt 4.526093 14.23782
vt 7.398906 1.665276
vt -7.398889 1.665272
vt 4.9241 12.49591
vt -4.760073 13.21378
vt -5.169501 13.6312
vt -3.743398 25.5923
vt 6.349881 14.44449
vt 3.885525 24.85793
vt 7.398894 1.665253
vt -7.398929 1.665246
vt 4.591228 13.95271
vt -4.832192 12.89815
vt 7.398893 1.665276
vt -7.398902 1.665277
vt 4.448305 14.57822
vt -4.591223 13.95274
vt -4.85884 0.4229573
vt -4.170449 1.128665
vt 1.16484 -1.711744
vt 0.9216743 -0.856144
vt 6.023681 2.44229
vt 4.893705 2.891707
vt 3.643196 8.003627
vt 4.858873 8.731051
vt -6.023678 6.711689
vt -4.85296 6.404572
vt -1.164807 10.86575
vt -1.023582 9.564154
vt 6.628453 15.12677
vt -4.862403 13.90142
vt 3.541915 26.77044
vt -3.598221 27.92476
vt 2.919284 40.39064
vt 3.876717 26.69652
vt -2.542806 40.20418
vt -5.039619 27.38193
vt -6.093215 14.14872
vt -3.893417 24.62123
vt 5.442095 13.70072
vt 3.759825 25.27924
vt -6.637555 14.99269
vt -3.62254 26.29764
vt 4.852162 13.75674
vt 3.624565 27.48531
vt -3.913674 28.09722
vt -2.757654 44.00083
vt 5.005122 28.74938
vt 2.161148 43.86137
vt 2.694064 41.51186
vt -3.687202 41.89104
vt 0.402768 61.05035
vt 2.926452 39.88529
vt -3.461099 40.08746
vt 0.2168267 59.166
vt 3.707351 40.41709
vt -2.673213 40.02557
vt -0.4193877 59.40361
vt -8.896471 -4.907539
vt -7.461397 -4.293746
vt 1.920266 -8.940188
vt 1.618913 -7.884762
vt 10.81677 -1.577453
vt 8.915015 -1.476529
vt 6.988743 7.665174
vt 8.896471 9.817881
vt -10.81677 6.487799
vt -8.598784 5.120038
vt -1.920265 13.85053
vt -1.46246 10.70369
vt -3.802297 26.70461
vt -2.93446 40.62944
vt 5.108527 27.47478
vt 2.515294 40.27789
vt -3.14641 42.72469
vt 2.095662 42.25974
vt -3.238908 27.34769
vt 5.611036 28.75803
vt 3.842428 28.05084
vt -5.071426 28.78507
vt 2.799788 43.96228
vt -2.156749 43.67973
vt 6.073989 14.93635
vt -5.462136 14.50989
vt 3.240923 28.72859
vt -3.32726 29.19949
vt 3.946525 41.52468
vt -2.422818 40.94463
vt -0.6179346 60.49185
vt -3.953718 41.1736
vt 0.623931 60.09801
vt 2.41524 40.58908
vt 3.235785 27.29428
vt -5.613701 28.70731
vt 3.149022 42.4712
vt -2.149081 41.99046
vt 4.832194 12.89814
vt 7.398932 1.66524
vt -4.924117 12.49588
vt -7.398891 1.665245
vt 5.199914 14.30025
vt -6.321691 15.08141
vt 3.419813 29.03705
vt -3.217053 28.51055
vt -0.2062022 61.21036
vt 3.448102 41.92312
vt -2.939692 41.72881
vt 2.17375 1.916142
vt -2.173794 1.916142
vt 1.906819 7.00585
vt -1.906843 7.005849
vt -2.565076 -1.27222
vt -2.173794 1.094449
vt 2.565037 -1.272218
vt 2.17375 1.094446
vt 2.565039 -1.272233
vt -2.565039 -1.272233
vt 2.173779 1.094436
vt -2.173779 1.094436
vt -2.565037 -1.272218
vt -2.17375 1.094446
vt 2.565076 -1.27222
vt 2.173794 1.094449
vt -2.17375 1.916142
vt -1.906819 7.00585
vt 2.173794 1.916142
vt 1.906843 7.005849
vt 2.173779 1.916154
vt -2.173779 1.916154
vt 1.906811 7.00586
vt -1.906811 7.00586
vt 5.130118 0
vt 2.565039 -4.442795
vt 2.565039 4.442795
vt -2.565039 4.442795
vt -2.565039 -4.442795
vt -5.130118 0

usemtl snow

f 3/3/1 2/2/1 1/1/1
f 2/2/1 3/3/1 4/4/1
f 4/4/1 3/3/1 5/5/1
f 5/5/1 3/3/1 6/6/1
f 5/5/1 6/6/1 7/7/1
f 7/7/1 6/6/1 8/8/1
f 9/9/1 2/2/1 4/4/1
f 2/2/1 9/9/1 10/10/1
f 10/10/1 8/8/1 6/6/1
f 10/10/1 9/9/1 11/11/1
f 10/10/1 11/11/1 8/8/1
f 10/10/1 6/6/1 12/12/1
f 6/15/2 13/14/2 12/13/2
f 13/14/2 6/15/2 14/16/2
f 17/19/3 16/18/3 15/17/3
f 16/18/3 17/19/3 18/20/3
f 18/20/3 17/19/3 19/21/3
f 18/20/3 19/21/3 20/22/3
f 20/22/3 19/21/3 21/23/3
f 21/23/3 19/21/3 22/24/3
f 16/18/3 23/25/3 15/17/3
f 23/25/3 16/18/3 24/26/3
f 23/25/3 24/26/3 25/27/3
f 25/27/3 21/23/3 22/24/3
f 25/27/3 24/26/3 26/28/3
f 25/27/3 26/28/3 21/23/3
f 12/31/4 27/30/4 10/29/4
f 27/30/4 12/31/4 13/32/4
f 28/35/5 6/34/5 3/33/5
f 6/34/5 28/35/5 14/36/5
f 30/39/6 24/38/6 29/37/6
f 24/38/6 30/39/6 26/40/6
f 31/43/7 1/42/7 2/41/7
f 1/42/7 31/43/7 32/44/7
f 27/47/8 2/46/8 10/45/8
f 2/46/8 27/47/8 31/48/8
f 35/51/9 34/50/9 33/49/9
f 34/50/9 35/51/9 36/52/9
f 36/52/9 35/51/9 37/53/9
f 36/52/9 37/53/9 38/54/9
f 38/54/9 37/53/9 39/55/9
f 39/55/9 37/53/9 40/56/9
f 34/50/9 41/57/9 33/49/9
f 41/57/9 34/50/9 42/58/9
f 41/57/9 42/58/9 43/59/9
f 43/59/9 39/55/9 40/56/9
f 43/59/9 42/58/9 44/60/9
f 43/59/9 44/60/9 39/55/9
f 24/63/10 45/62/10 29/61/10
f 45/62/10 24/63/10 16/64/10
f 36/67/11 15/66/11 34/65/11
f 15/66/11 36/67/11 17/68/11
f 46/71/12 26/70/12 30/69/12
f 26/70/12 46/71/12 21/72/12
f 47/75/13 21/74/13 46/73/13
f 21/74/13 47/75/13 20/76/13
f 22/79/14 44/78/14 25/77/14
f 44/78/14 22/79/14 39/80/14
f 48/83/15 37/82/15 35/81/15
f 48/86/16 43/85/16 40/84/16
f 48/89/17 41/88/17 43/87/17
f 49/92/18 32/91/18 45/90/18
f 32/91/18 49/92/18 28/93/18
f 28/93/18 49/92/18 47/94/18
f 28/93/18 47/94/18 14/95/18
f 14/95/18 47/94/18 13/96/18
f 13/96/18 47/94/18 46/97/18
f 32/91/18 29/98/18 45/90/18
f 29/98/18 32/91/18 31/99/18
f 29/98/18 31/99/18 30/100/18
f 30/100/18 13/96/18 46/97/18
f 30/100/18 31/99/18 27/101/18
f 30/100/18 27/101/18 13/96/18
f 17/104/19 38/103/19 19/102/19
f 38/103/19 17/104/19 36/105/19
f 22/108/20 38/107/20 39/106/20
f 38/107/20 22/108/20 19/109/20
f 44/112/21 23/111/21 25/110/21
f 23/111/21 44/112/21 42/113/21
f 16/116/22 49/115/22 45/114/22
f 49/115/22 16/116/22 18/117/22
f 48/120/23 33/119/23 41/118/23
f 37/123/24 48/122/24 40/121/24
f 42/126/25 15/125/25 23/124/25
f 15/125/25 42/126/25 34/127/25
f 28/130/26 1/129/26 32/128/26
f 1/129/26 28/130/26 3/131/26
f 18/134/27 47/133/27 49/132/27
f 47/133/27 18/134/27 20/135/27
f 35/138/28 33/137/28 48/136/28

usemtl wood

f 9/141/29 51/140/29 50/139/29
f 51/140/29 9/141/29 4/142/29
f 54/145/30 53/144/30 52/143/30
f 53/144/30 54/145/30 55/146/30
f 58/149/31 57/148/31 56/147/31
f 57/148/31 58/149/31 50/150/31
f 60/149/32 54/148/32 59/147/32
f 54/148/32 60/149/32 55/150/32
f 52/153/33 58/152/33 56/151/33
f 58/152/33 52/153/33 53/154/33
f 50/146/34 61/143/34 57/145/34
f 61/143/34 50/146/34 51/144/34
f 53/157/35 11/156/35 58/155/35
f 11/156/35 53/157/35 8/158/35
f 11/161/36 50/160/36 58/159/36
f 50/160/36 11/161/36 9/162/36
f 55/139/37 8/142/37 53/140/37
f 8/142/37 55/139/37 7/141/37
f 59/165/1 57/164/1 61/163/1
f 57/164/1 59/165/1 54/166/1
f 57/164/1 54/166/1 56/167/1
f 56/167/1 54/166/1 52/168/1
f 60/152/38 61/153/38 51/154/38
f 61/153/38 60/152/38 59/151/38
f 5/156/39 51/157/39 4/158/39
f 51/157/39 5/156/39 60/155/39
f 5/161/40 55/160/40 60/159/40
f 55/160/40 5/161/40 7/162/40

